SplineFontDB: 3.0
FontName: BhavukaDevanagari14
FullName: BhavukaDevanagari14
FamilyName: BhavukaDevanagari14
Weight: Regular
Copyright: Copyright 2014 - Matt Heximer (www.10fourdesign.com)\nbased on "Bellota" by Kemie Guaida (www.pixilate.com), \nwhich is in turn based on "Snippet" by Gesine Todt.\n\nLicensed under the SIL Open Font License 1.1 This license is available with a FAQ at: http://scripts.sil.org/OFL\n(see file OFL.txt)
Version: 2.700
ItalicAngle: 0
UnderlinePosition: 0
UnderlineWidth: 48
Ascent: 850
Descent: 400
sfntRevision: 0x0001b333
LayerCount: 5
Layer: 0 1 "Back"  1
Layer: 1 0 "Fore"  0
Layer: 2 0 "Lines"  1
Layer: 3 0 "compare"  1
Layer: 4 0 "elements"  1
XUID: [1021 641 1310512963 1469]
FSType: 0
OS2Version: 0
OS2_WeightWidthSlopeOnly: 0
OS2_UseTypoMetrics: 1
CreationTime: 1405119260
ModificationTime: 1408841851
PfmFamily: 33
TTFWeight: 400
TTFWidth: 5
LineGap: 260
VLineGap: 0
Panose: 2 11 6 0 0 0 0 0 0 0
OS2TypoAscent: 976
OS2TypoAOffset: 0
OS2TypoDescent: -356
OS2TypoDOffset: 0
OS2TypoLinegap: 0
OS2WinAscent: 1095
OS2WinAOffset: 0
OS2WinDescent: 503
OS2WinDOffset: 0
HheadAscent: 1095
HheadAOffset: 0
HheadDescent: -503
HheadDOffset: 0
OS2SubXSize: 910
OS2SubYSize: 846
OS2SubXOff: 0
OS2SubYOff: 260
OS2SupXSize: 910
OS2SupYSize: 846
OS2SupXOff: 0
OS2SupYOff: 650
OS2StrikeYSize: 65
OS2StrikeYPos: 325
OS2Vendor: 'ACE '
OS2CodePages: 00000001.00000000
OS2UnicodeRanges: 80008023.00002042.00000000.00000000
Lookup: 4 0 0 "halnHalantFormslookup29"  {"halnHalantFormslookup29 subtable"  } ['haln' ('deva' <'dflt' 'MAR ' 'NEP ' > 'dev2' <'dflt' 'MAR ' 'NEP ' > 'DFLT' <'dflt' > ) ]
Lookup: 1 0 0 "LocalizedMrForms_lookup0"  {"LocalizedMrForms_lookup0 subtable"  } ['locl' ('deva' <'MAR ' > 'dev2' <'MAR ' > ) ]
Lookup: 4 0 0 "LocalizedMrHalfFormslookup1"  {"LocalizedMrHalfFormslookup1 subtable"  } ['locl' ('deva' <'MAR ' > 'dev2' <'MAR ' > ) ]

StartChar: .notdef
Encoding: 256 -1 0
Width: 500
VWidth: 1000
Flags: HMW
LayerCount: 5
Fore
SplineSet
50 605 m 1
 50 95 l 1
 220 350 l 1
 50 605 l 1
80 50 m 1
 420 50 l 1
 250 305 l 1
 80 50 l 1
280 350 m 1
 450 95 l 1
 450 605 l 1
 280 350 l 1
250 395 m 1
 420 650 l 1
 80 650 l 1
 250 395 l 1
0 0 m 1
 0 700 l 1
 500 700 l 1
 500 0 l 1
 0 0 l 1
EndSplineSet
Validated: 1
EndChar

StartChar: exclam
Encoding: 33 33 2
Width: 189
VWidth: 1000
Flags: HMW
LayerCount: 5
Fore
SplineSet
29 46 m 0
 29 72 52 95 78 95 c 0
 104 95 126 72 126 46 c 0
 126 20 104 -1 78 -1 c 0
 52 -1 29 21 29 46 c 0
107 159 m 1
 51 159 l 1
 41 704 l 1
 117 704 l 1
 107 159 l 1
EndSplineSet
Validated: 1
EndChar

StartChar: quotedbl
Encoding: 34 34 3
Width: 314
VWidth: 1000
Flags: HMW
LayerCount: 5
Fore
SplineSet
223 492 m 1
 171 492 l 1
 161 684 l 1
 233 684 l 1
 223 492 l 1
113 492 m 1
 61 492 l 1
 51 684 l 1
 123 684 l 1
 113 492 l 1
EndSplineSet
Validated: 1
EndChar

StartChar: numbersign
Encoding: 35 35 4
Width: 596
VWidth: 1000
Flags: HMW
LayerCount: 5
Fore
SplineSet
199 432 m 1
 199 236 l 1
 366 236 l 1
 366 432 l 1
 199 432 l 1
422 484 m 1
 536 484 l 1
 536 432 l 1
 422 432 l 1
 422 236 l 1
 536 236 l 1
 536 184 l 1
 422 184 l 1
 422 30 l 1
 368 30 l 1
 368 184 l 1
 199 184 l 1
 199 30 l 1
 145 30 l 1
 145 184 l 1
 29 184 l 1
 29 236 l 1
 143 236 l 1
 143 432 l 1
 29 432 l 1
 29 484 l 1
 143 484 l 1
 143 637 l 1
 199 637 l 1
 199 484 l 1
 366 484 l 1
 366 637 l 1
 422 637 l 1
 422 484 l 1
EndSplineSet
Validated: 1
EndChar

StartChar: dollar
Encoding: 36 36 5
Width: 542
VWidth: 1000
Flags: HMW
LayerCount: 5
Fore
SplineSet
286 303 m 1
 286 46 l 1
 306 46 323 50 338 55 c 0
 354 60 368 67 381 78 c 0
 393 87 403 100 410 115 c 0
 417 131 421 149 421 169 c 0
 421 188 417 205 410 220 c 0
 403 235 393 247 380 257 c 0
 367 268 352 276 337 283 c 0
 318 292 301 298 286 303 c 1
228 384 m 1
 228 608 l 1
 211 608 198 604 188 601 c 0
 179 598 172 594 168 591 c 0
 163 588 157 582 150 575 c 0
 132 557 123 535 123 510 c 0
 123 493 126 477 131 463 c 0
 135 452 142 440 153 429 c 0
 166 418 177 409 187 404 c 0
 204 395 218 388 228 384 c 1
286 750 m 1
 286 662 l 1
 322 662 358 651 393 637 c 0
 426 624 456 608 481 590 c 1
 448 542 l 1
 425 556 401 569 376 580 c 0
 352 592 322 601 286 606 c 1
 286 364 l 1
 305 359 328 350 357 339 c 0
 382 330 403 318 420 304 c 0
 439 290 454 272 465 250 c 0
 477 229 483 202 483 169 c 0
 483 140 477 114 466 93 c 0
 455 71 440 53 423 40 c 0
 405 25 384 14 360 7 c 0
 337 -1 313 -8 286 -8 c 1
 286 -70 l 1
 228 -70 l 1
 228 -9 l 1
 189 -9 151 2 116 15 c 0
 83 28 53 44 26 64 c 1
 59 112 l 1
 83 97 108 83 133 72 c 0
 161 59 193 51 228 47 c 1
 228 322 l 1
 207 329 186 337 165 346 c 0
 145 355 127 366 112 381 c 0
 95 398 83 415 75 434 c 0
 66 456 61 481 61 510 c 0
 61 528 65 546 72 564 c 0
 81 583 92 598 106 610 c 0
 121 624 138 635 159 644 c 0
 179 653 202 659 228 662 c 1
 228 750 l 1
 286 750 l 1
EndSplineSet
Validated: 1
EndChar

StartChar: percent
Encoding: 37 37 6
Width: 737
VWidth: 1000
Flags: HMW
LayerCount: 5
Fore
SplineSet
630 138 m 2
 630 145 l 2
 630 159 628 172 623 183 c 0
 618 196 611 207 604 215 c 0
 597 224 588 231 577 236 c 0
 567 241 556 243 543 243 c 0
 530 243 519 241 509 236 c 0
 498 231 489 224 481 215 c 0
 474 206 468 196 463 183 c 0
 458 172 456 159 456 145 c 2
 456 138 l 2
 456 124 458 111 463 100 c 0
 468 89 474 78 481 69 c 0
 489 60 498 53 509 48 c 0
 521 43 532 40 543 40 c 0
 554 40 565 43 577 48 c 0
 588 53 597 60 604 69 c 0
 611 78 618 88 623 100 c 0
 628 111 630 124 630 138 c 2
407 138 m 2
 407 145 l 2
 407 166 410 185 417 202 c 0
 424 219 433 235 446 250 c 0
 460 264 474 275 489 282 c 0
 507 289 525 293 543 293 c 0
 560 293 578 289 596 282 c 0
 611 275 626 264 640 250 c 0
 652 237 662 221 669 202 c 0
 676 183 680 164 680 145 c 2
 680 138 l 2
 680 119 676 100 669 81 c 0
 662 62 652 46 640 34 c 0
 627 19 612 8 596 1 c 0
 578 -6 560 -10 543 -10 c 0
 525 -10 507 -6 489 1 c 0
 474 9 459 20 446 34 c 0
 433 47 424 63 417 81 c 0
 410 98 407 117 407 138 c 2
268 0 m 1
 209 0 l 1
 428 653 l 1
 486 653 l 1
 268 0 l 1
255 556 m 2
 255 563 l 2
 255 577 253 590 248 601 c 0
 243 614 236 625 229 633 c 0
 222 642 213 649 202 654 c 0
 192 659 181 661 168 661 c 0
 155 661 144 659 134 654 c 0
 123 649 114 642 106 633 c 0
 99 624 93 614 88 601 c 0
 83 590 81 577 81 563 c 2
 81 556 l 2
 81 542 83 529 88 518 c 0
 93 507 99 496 106 487 c 0
 114 478 123 471 134 466 c 0
 146 461 157 458 168 458 c 0
 179 458 190 461 202 466 c 0
 213 471 222 478 229 487 c 0
 236 496 243 506 248 518 c 0
 253 529 255 542 255 556 c 2
32 556 m 2
 32 563 l 2
 32 582 36 601 43 620 c 0
 50 639 60 655 72 668 c 0
 85 681 99 692 114 700 c 0
 132 707 150 711 168 711 c 0
 185 711 203 707 221 700 c 0
 236 693 251 682 265 668 c 0
 277 655 287 639 294 620 c 0
 301 601 305 582 305 563 c 2
 305 556 l 2
 305 537 301 518 294 499 c 0
 287 480 277 464 265 452 c 0
 251 437 236 427 221 420 c 0
 204 412 187 408 168 408 c 0
 149 408 131 412 114 420 c 0
 99 427 85 437 72 452 c 0
 60 464 50 480 43 499 c 0
 36 518 32 537 32 556 c 2
EndSplineSet
Validated: 1
EndChar

StartChar: ampersand
Encoding: 38 38 7
Width: 636
VWidth: 1000
Flags: HMW
LayerCount: 5
Fore
SplineSet
263 252 m 1
 190 314 l 1
 158 299 135 278 120 252 c 0
 105 225 97 197 97 170 c 0
 97 151 101 133 108 116 c 0
 115 101 125 87 138 76 c 0
 153 64 167 56 182 51 c 0
 199 45 216 42 235 42 c 0
 273 42 307 49 337 62 c 0
 366 75 391 93 412 114 c 1
 263 252 l 1
540 -3 m 1
 451 79 l 1
 426 51 395 29 359 14 c 0
 323 -2 282 -10 235 -10 c 0
 208 -10 182 -6 159 2 c 0
 135 10 114 22 97 37 c 0
 79 52 65 70 55 93 c 0
 45 114 40 138 40 166 c 0
 40 185 42 203 47 220 c 0
 52 237 59 255 68 272 c 0
 77 289 88 305 102 318 c 0
 118 333 134 344 151 352 c 1
 135 371 123 390 114 409 c 0
 105 431 100 455 100 480 c 0
 100 499 104 519 111 539 c 0
 118 558 129 574 144 588 c 0
 157 601 176 613 199 622 c 0
 221 630 247 634 277 634 c 0
 285 634 296 632 311 629 c 0
 324 625 336 620 349 613 c 0
 362 606 373 597 384 586 c 0
 395 575 403 563 408 548 c 1
 369 514 l 1
 356 542 341 560 322 568 c 0
 302 575 284 579 268 579 c 0
 229 579 203 570 188 552 c 0
 173 533 165 509 165 480 c 0
 165 461 169 444 177 429 c 0
 185 413 195 398 208 383 c 0
 221 368 235 354 250 341 c 0
 259 333 274 320 294 301 c 2
 445 159 l 1
 458 182 468 207 475 235 c 0
 482 261 485 288 485 317 c 2
 485 357 l 1
 538 357 l 1
 538 315 l 2
 538 280 534 246 525 214 c 0
 517 183 504 153 485 123 c 1
 576 38 l 1
 540 -3 l 1
EndSplineSet
Validated: 1
EndChar

StartChar: quotesingle
Encoding: 39 39 8
Width: 193
VWidth: 1000
Flags: HMW
LayerCount: 5
Fore
SplineSet
107 492 m 1
 55 492 l 1
 45 684 l 1
 117 684 l 1
 107 492 l 1
EndSplineSet
Validated: 1
EndChar

StartChar: parenleft
Encoding: 40 40 9
Width: 370
VWidth: 1000
Flags: HMW
LayerCount: 5
Fore
SplineSet
283 750 m 1
 308 707 l 1
 275 687 245 663 219 634 c 0
 190 602 167 569 149 534 c 0
 130 498 114 459 103 417 c 0
 92 375 86 334 86 294 c 0
 86 255 92 214 103 172 c 0
 114 130 130 91 149 55 c 0
 167 20 190 -13 219 -45 c 0
 245 -74 275 -98 308 -118 c 1
 283 -161 l 1
 240 -138 202 -109 169 -75 c 0
 136 -41 109 -4 88 36 c 0
 67 76 51 118 41 161 c 0
 30 204 25 248 25 294 c 0
 25 340 30 385 41 428 c 0
 51 471 67 513 88 554 c 0
 109 594 136 631 169 664 c 0
 202 698 240 727 283 750 c 1
EndSplineSet
Validated: 1
EndChar

StartChar: parenright
Encoding: 41 41 10
Width: 370
VWidth: 1000
Flags: HMW
LayerCount: 5
Fore
SplineSet
32 707 m 1
 57 750 l 1
 100 727 138 698 172 664 c 0
 205 629 231 593 252 554 c 0
 273 514 289 472 300 428 c 0
 310 383 315 338 315 294 c 0
 315 249 310 205 300 161 c 0
 289 116 273 75 252 36 c 0
 231 -3 205 -40 172 -75 c 0
 138 -109 100 -138 57 -161 c 1
 32 -118 l 1
 65 -98 95 -74 121 -45 c 0
 149 -14 173 20 192 55 c 0
 213 95 228 134 238 172 c 0
 249 212 254 253 254 294 c 0
 254 336 249 377 238 417 c 0
 228 455 213 494 192 534 c 0
 173 569 149 603 121 634 c 0
 95 663 65 687 32 707 c 1
EndSplineSet
Validated: 1
EndChar

StartChar: asterisk
Encoding: 42 42 11
Width: 378
VWidth: 1000
Flags: HMW
LayerCount: 5
Fore
SplineSet
198 577 m 1
 305 619 l 1
 322 562 l 1
 218 533 l 1
 285 452 l 1
 236 418 l 1
 175 512 l 1
 113 416 l 1
 65 452 l 1
 133 534 l 1
 27 562 l 1
 46 619 l 1
 151 578 l 1
 145 694 l 1
 205 694 l 1
 198 577 l 1
EndSplineSet
Validated: 1
EndChar

StartChar: plus
Encoding: 43 43 12
Width: 432
VWidth: 1000
Flags: HMW
LayerCount: 5
Fore
SplineSet
229 319 m 1
 387 319 l 1
 387 268 l 1
 229 268 l 1
 229 107 l 1
 173 107 l 1
 173 268 l 1
 15 268 l 1
 15 319 l 1
 173 319 l 1
 173 479 l 1
 229 479 l 1
 229 319 l 1
EndSplineSet
Validated: 1
EndChar

StartChar: comma
Encoding: 44 44 13
Width: 192
VWidth: 1000
Flags: HMW
LayerCount: 5
Fore
SplineSet
55 32 m 2
 55 52 l 1
 55 62 60 70 65 75 c 0
 71 82 79 85 88 85 c 0
 97 85 105 82 111 75 c 0
 117 69 120 61 120 52 c 2
 120 32 l 2
 120 4 116 -21 108 -42 c 0
 100 -62 83 -81 58 -100 c 1
 24 -67 l 1
 37 -54 46 -41 51 -27 c 0
 54 -17 56 -5 56 10 c 0
 56 17 56 24 55 32 c 2
EndSplineSet
Validated: 1
EndChar

StartChar: hyphen
Encoding: 45 45 14
Width: 436
VWidth: 1000
Flags: HMW
LayerCount: 5
Fore
SplineSet
351 277 m 1
 54 277 l 1
 54 334 l 1
 351 334 l 1
 351 277 l 1
EndSplineSet
Validated: 1
EndChar

StartChar: period
Encoding: 46 46 15
Width: 206
VWidth: 1000
Flags: HMW
LayerCount: 5
Fore
SplineSet
89 81 m 0
 101 81 111 77 120 68 c 0
 128 60 132 50 132 38 c 0
 132 27 128 17 120 8 c 0
 111 0 101 -4 89 -4 c 0
 78 -4 68 0 60 8 c 0
 51 17 47 27 47 38 c 0
 47 50 51 60 60 68 c 0
 68 77 78 81 89 81 c 0
EndSplineSet
Validated: 1
EndChar

StartChar: slash
Encoding: 47 47 16
Width: 342
VWidth: 1000
Flags: HMW
LayerCount: 5
Fore
SplineSet
79 -70 m 1
 15 -70 l 1
 234 750 l 1
 297 750 l 1
 79 -70 l 1
EndSplineSet
Validated: 1
EndChar

StartChar: zero
Encoding: 48 48 17
Width: 654
VWidth: 1000
Flags: HMW
LayerCount: 5
Fore
SplineSet
313 608 m 0
 282 608 253 601 228 587 c 0
 203 574 181 555 162 529 c 0
 143 504 129 475 119 440 c 0
 109 406 104 368 104 326 c 0
 104 285 109 247 119 212 c 0
 130 177 144 147 162 123 c 0
 179 98 201 79 228 65 c 0
 253 52 282 45 313 45 c 0
 343 45 371 52 398 65 c 0
 423 79 445 98 464 123 c 0
 482 148 496 178 506 212 c 0
 516 247 521 285 521 326 c 0
 521 367 516 405 506 440 c 0
 496 475 482 505 464 530 c 0
 445 555 423 574 398 588 c 0
 371 601 343 608 313 608 c 0
312 663 m 0
 331 663 348 662 362 660 c 0
 375 657 386 655 392 652 c 0
 400 649 410 644 424 637 c 0
 458 620 486 596 509 566 c 0
 533 534 551 499 564 460 c 0
 577 420 583 375 583 326 c 0
 583 277 577 233 564 193 c 0
 551 153 533 117 509 86 c 0
 487 57 459 34 424 16 c 0
 391 -1 354 -10 312 -10 c 0
 271 -10 233 -1 200 16 c 0
 166 33 138 57 115 87 c 0
 92 117 74 153 61 194 c 0
 48 236 41 280 41 326 c 0
 41 373 48 418 61 460 c 0
 74 500 92 536 115 567 c 0
 138 597 166 621 200 638 c 0
 233 655 270 663 312 663 c 0
EndSplineSet
Validated: 1
Substitution2: "Bellota-Regular-'sups' Superscript lookup 6 subtable" zerosuperior
Substitution2: "Bellota-Regular-'subs' Subscript lookup 5 subtable" zeroinferior
AlternateSubs2: "Bellota-Regular-'aalt' Access All Alternates lookup 1 subtable" zeroinferior zerosuperior
EndChar

StartChar: one
Encoding: 49 49 18
Width: 363
VWidth: 1000
Flags: HMW
LayerCount: 5
Fore
SplineSet
278 0 m 1
 217 0 l 1
 217 573 l 1
 192 552 168 537 145 526 c 0
 120 515 93 509 64 509 c 1
 51 561 l 1
 68 561 86 564 103 571 c 0
 121 577 139 585 156 595 c 0
 173 604 192 616 212 630 c 2
 270 669 l 1
 278 669 l 1
 278 0 l 1
EndSplineSet
Validated: 1
Substitution2: "Bellota-Regular-'sups' Superscript lookup 6 subtable" onesuperior
Substitution2: "Bellota-Regular-'subs' Subscript lookup 5 subtable" oneinferior
AlternateSubs2: "Bellota-Regular-'aalt' Access All Alternates lookup 1 subtable" oneinferior onesuperior
EndChar

StartChar: two
Encoding: 50 50 19
Width: 538
VWidth: 1000
Flags: HMW
LayerCount: 5
Fore
SplineSet
45 517 m 1
 69 565 l 2
 74 576 82 588 93 601 c 0
 102 612 115 623 131 633 c 0
 146 643 164 651 184 656 c 0
 205 662 228 665 255 665 c 0
 292 665 323 660 349 649 c 0
 372 640 392 626 408 608 c 0
 422 592 432 572 438 549 c 0
 444 527 447 506 447 487 c 0
 447 451 440 420 425 393 c 0
 412 369 393 345 368 320 c 0
 350 302 325 281 293 258 c 0
 246 223 220 203 214 198 c 0
 187 175 164 154 147 133 c 0
 128 110 115 84 108 57 c 1
 480 57 l 1
 480 0 l 1
 44 0 l 1
 44 13 l 2
 44 52 52 87 69 118 c 0
 84 145 105 173 134 202 c 0
 159 227 186 250 217 273 c 0
 259 304 287 325 302 338 c 0
 328 361 349 384 365 407 c 0
 382 432 391 459 391 488 c 0
 391 526 379 557 355 581 c 0
 330 606 298 618 258 618 c 0
 231 618 206 613 183 603 c 0
 165 595 149 584 136 570 c 0
 124 558 115 545 109 531 c 2
 95 499 l 1
 92 493 l 1
 45 517 l 1
EndSplineSet
Validated: 1
Substitution2: "Bellota-Regular-'sups' Superscript lookup 6 subtable" twosuperior
Substitution2: "Bellota-Regular-'subs' Subscript lookup 5 subtable" twoinferior
AlternateSubs2: "Bellota-Regular-'aalt' Access All Alternates lookup 1 subtable" twoinferior twosuperior
EndChar

StartChar: three
Encoding: 51 51 20
Width: 559
VWidth: 1000
Flags: HMW
LayerCount: 5
Fore
SplineSet
89 612 m 1
 99 618 l 2
 122 633 143 644 160 652 c 0
 191 665 225 672 262 672 c 0
 319 672 366 656 403 625 c 0
 437 596 454 560 454 517 c 0
 454 494 448 472 437 449 c 0
 428 432 418 418 406 407 c 0
 392 395 381 387 372 382 c 0
 365 378 358 375 350 372 c 1
 369 368 386 360 402 349 c 0
 419 336 434 322 447 306 c 0
 459 291 469 272 477 250 c 0
 486 227 490 202 490 175 c 0
 490 118 469 73 426 40 c 0
 381 5 323 -12 253 -12 c 0
 211 -12 169 -4 127 12 c 0
 99 23 68 38 34 58 c 1
 59 107 l 1
 91 89 118 76 139 67 c 0
 172 54 206 47 243 47 c 0
 300 47 345 59 378 84 c 0
 410 107 426 139 426 180 c 0
 426 203 421 225 411 248 c 0
 403 266 391 282 376 295 c 0
 361 308 343 318 324 325 c 0
 305 332 284 336 263 336 c 1
 153 336 l 1
 153 392 l 1
 262 392 l 2
 277 392 291 395 306 401 c 0
 322 408 336 416 347 426 c 0
 359 437 369 449 377 464 c 0
 385 480 389 496 389 512 c 0
 389 543 377 567 353 585 c 0
 328 604 296 614 258 614 c 0
 213 614 166 597 117 564 c 1
 89 612 l 1
EndSplineSet
Validated: 1
Substitution2: "Bellota-Regular-'sups' Superscript lookup 6 subtable" threesuperior
Substitution2: "Bellota-Regular-'subs' Subscript lookup 5 subtable" threeinferior
AlternateSubs2: "Bellota-Regular-'aalt' Access All Alternates lookup 1 subtable" threeinferior threesuperior
EndChar

StartChar: four
Encoding: 52 52 21
Width: 537
VWidth: 1000
Flags: HMW
LayerCount: 5
Fore
SplineSet
91 183 m 1
 338 183 l 1
 338 405 l 1
 400 405 l 1
 400 183 l 1
 484 183 l 1
 484 126 l 1
 400 126 l 1
 400 -3 l 1
 338 -3 l 1
 338 126 l 1
 20 126 l 1
 20 176 l 1
 224 660 l 1
 291 660 l 1
 91 183 l 1
EndSplineSet
Validated: 1
Substitution2: "Bellota-Regular-'sups' Superscript lookup 6 subtable" foursuperior
Substitution2: "Bellota-Regular-'subs' Subscript lookup 5 subtable" fourinferior
AlternateSubs2: "Bellota-Regular-'aalt' Access All Alternates lookup 1 subtable" fourinferior foursuperior
EndChar

StartChar: five
Encoding: 53 53 22
Width: 520
VWidth: 1000
Flags: HMW
LayerCount: 5
Fore
SplineSet
397 596 m 1
 281 592 l 1
 124 592 l 1
 124 432 l 1
 183 440 l 1
 211 440 l 2
 246 440 279 435 310 426 c 0
 341 417 366 403 387 386 c 0
 411 366 429 343 440 317 c 0
 453 288 459 258 459 226 c 0
 459 207 457 190 454 175 c 0
 452 164 447 149 439 129 c 0
 433 114 426 100 418 87 c 0
 410 74 401 63 390 52 c 0
 370 32 346 17 317 7 c 0
 291 -2 261 -6 227 -6 c 0
 206 -6 187 -4 170 0 c 0
 155 3 140 9 123 17 c 0
 104 26 89 33 78 40 c 0
 61 51 50 59 43 66 c 1
 55 119 l 1
 84 98 112 81 137 69 c 0
 163 56 191 50 221 50 c 0
 252 50 278 54 297 61 c 0
 317 68 336 82 355 102 c 0
 370 118 381 138 389 163 c 0
 396 186 400 210 400 235 c 0
 400 264 394 289 383 309 c 0
 374 326 359 341 339 354 c 0
 323 364 302 372 275 377 c 0
 251 382 226 384 201 384 c 0
 170 384 143 382 121 378 c 0
 100 374 83 369 68 364 c 1
 63 368 l 1
 63 646 l 1
 134 646 206 649 280 649 c 0
 283 649 301 650 333 650 c 0
 365 652 386 653 397 653 c 1
 397 596 l 1
EndSplineSet
Validated: 1
Substitution2: "Bellota-Regular-'sups' Superscript lookup 6 subtable" fivesuperior
Substitution2: "Bellota-Regular-'subs' Subscript lookup 5 subtable" fiveinferior
AlternateSubs2: "Bellota-Regular-'aalt' Access All Alternates lookup 1 subtable" fiveinferior fivesuperior
EndChar

StartChar: six
Encoding: 54 54 23
Width: 571
VWidth: 1000
Flags: HMW
LayerCount: 5
Fore
SplineSet
278 366 m 0
 255 366 232 362 211 353 c 0
 192 345 173 332 154 315 c 0
 137 299 124 280 114 258 c 0
 104 235 99 210 99 185 c 0
 99 174 100 163 102 152 c 0
 109 127 119 107 131 92 c 0
 146 73 160 58 173 49 c 0
 187 39 204 31 223 25 c 0
 241 19 259 16 278 16 c 0
 303 16 326 21 347 30 c 0
 368 39 387 51 403 68 c 0
 420 85 432 103 441 124 c 0
 450 145 454 167 454 191 c 0
 454 215 449 238 440 260 c 0
 431 281 418 299 401 316 c 0
 384 333 366 345 345 353 c 0
 324 362 301 366 278 366 c 0
430 649 m 1
 430 596 l 1
 355 596 289 575 233 533 c 0
 176 490 131 423 99 331 c 1
 122 359 150 381 181 396 c 0
 212 411 244 419 277 419 c 0
 306 419 335 413 364 402 c 0
 392 391 417 374 439 352 c 0
 462 329 478 305 489 280 c 0
 501 251 507 221 507 189 c 0
 507 159 501 130 489 102 c 0
 478 75 461 51 440 30 c 0
 419 9 395 -8 368 -19 c 0
 340 -31 310 -37 278 -37 c 0
 246 -37 216 -31 187 -19 c 0
 158 -6 132 11 110 34 c 0
 87 57 69 86 56 120 c 0
 42 157 35 197 35 242 c 0
 35 291 45 341 65 392 c 0
 85 443 112 487 147 524 c 0
 183 563 224 593 271 615 c 0
 320 638 373 649 430 649 c 1
EndSplineSet
Validated: 1
Substitution2: "Bellota-Regular-'sups' Superscript lookup 6 subtable" sixsuperior
Substitution2: "Bellota-Regular-'subs' Subscript lookup 5 subtable" sixinferior
AlternateSubs2: "Bellota-Regular-'aalt' Access All Alternates lookup 1 subtable" sixinferior sixsuperior
EndChar

StartChar: seven
Encoding: 55 55 24
Width: 487
VWidth: 1000
Flags: HMW
LayerCount: 5
Fore
SplineSet
437 645 m 1
 183 0 l 1
 119 0 l 1
 358 596 l 1
 339 596 302 594 248 592 c 2
 20 592 l 1
 20 650 l 1
 123 650 l 1
 222 650 l 1
 437 653 l 1
 437 645 l 1
EndSplineSet
Validated: 1
Substitution2: "Bellota-Regular-'sups' Superscript lookup 6 subtable" sevensuperior
Substitution2: "Bellota-Regular-'subs' Subscript lookup 5 subtable" seveninferior
AlternateSubs2: "Bellota-Regular-'aalt' Access All Alternates lookup 1 subtable" seveninferior sevensuperior
EndChar

StartChar: eight
Encoding: 56 56 25
Width: 556
VWidth: 1000
Flags: HMW
LayerCount: 5
Back
SplineSet
261 666 m 4,0,1
 304 666 304 666 340 653 c 4,2,3
 374 641 374 641 400 616 c 4,4,5
 425 592 425 592 437 564 c 4,6,7
 450 533 450 533 450 503 c 4,8,9
 450 477 450 477 442 456 c 4,10,11
 434 436 434 436 420 417 c 4,12,13
 411 403 411 403 390 385 c 4,14,15
 373 370 373 370 358 361 c 5,16,17
 380 352 380 352 405 335 c 4,18,19
 425 322 425 322 446 298 c 4,20,21
 464 277 464 277 476 248 c 4,22,23
 487 220 487 220 487 180 c 4,24,25
 487 139 487 139 473 104 c 4,26,27
 459 70 459 70 431 42 c 4,28,29
 401 13.0000000001 401 13.0000000001 362 -1 c 4,30,31
 320 -16 320 -16 264 -16 c 132,-1,33
 208 -16 208 -16 166 -1 c 4,34,35
 126 14 126 14 96 42 c 4,36,37
 68 67.9999999999 68 67.9999999999 54 105 c 4,38,39
 40.0000000001 141 40.0000000001 141 40 182 c 4,40,41
 40 217 40 217 51 247 c 4,42,43
 60 272 60 272 79 298 c 4,44,45
 93 318 93 318 117 339 c 4,46,47
 140 359 140 359 157 372 c 5,48,49
 122 391 122 391 100 422 c 4,50,51
 76 455 76 455 76 500 c 4,52,53
 76 535 76 535 89 565 c 4,54,55
 102 596 102 596 127 618 c 4,56,57
 152 641 152 641 185 653 c 4,58,59
 221 666 221 666 261 666 c 4,0,1
290 386 m 5,60,-1
 303 382 l 5,61,62
 341 408 341 408 362 433 c 4,63,64
 388 462 388 462 388 499 c 4,65,66
 388 549 388 549 354 580 c 132,-1,68
 320 611 320 611 263 611 c 132,-1,70
 206 611 206 611 172 580 c 132,-1,72
 138 549 138 549 138 500 c 4,73,74
 138 474 138 474 150 456 c 4,75,76
 160 441 160 441 181 426 c 4,77,78
 201 413 201 413 224 407 c 6,79,-1
 270 392 l 5,80,-1
 279 389 l 5,81,-1
 290 386 l 5,60,-1
207 343 m 5,82,-1
 171 312 l 6,83,84
 158 302 158 302 137 276 c 4,85,86
 121 256 121 256 112 234 c 4,87,88
 102 212 102 212 102 182 c 4,89,90
 102 120 102 120 142 80 c 4,91,92
 184 38 184 38 263 38 c 4,93,94
 346 38 346 38 386 80 c 4,95,96
 425 121 425 121 425 184 c 4,97,98
 425 221 425 221 408 248 c 4,99,100
 393 271 393 271 364 292 c 4,101,102
 344 306 344 306 303 321 c 4,103,104
 270 333 270 333 235 342 c 6,105,-1
 213 348 l 5,106,-1
 207 343 l 5,82,-1
EndSplineSet
Fore
SplineSet
263 38 m 0
 363 38 425 90 425 184 c 0
 425 238 399 267 364 292 c 0
 337 311 277 331 235 342 c 2
 213 348 l 1
 168 310 102 261 102 182 c 0
 102 90 168 38 263 38 c 0
263 611 m 0
 192 611 138 569 138 500 c 0
 138 462 155 443 181 426 c 0
 213 406 260 397 303 382 c 1
 339 409 388 442 388 499 c 0
 388 569 335 611 263 611 c 0
157 372 m 1
 114 395 76 437 76 500 c 0
 76 605 162 666 261 666 c 0
 384 666 450 582 450 503 c 0
 450 435 401 389 358 361 c 1
 422 332 487 282 487 180 c 0
 487 78 417 -16 264 -16 c 0
 188 -16 136 5 96 42 c 0
 63 73 40 121 40 182 c 0
 40 277 101 329 157 372 c 1
EndSplineSet
Validated: 1
Substitution2: "Bellota-Regular-'sups' Superscript lookup 6 subtable" eightsuperior
Substitution2: "Bellota-Regular-'subs' Subscript lookup 5 subtable" eightinferior
AlternateSubs2: "Bellota-Regular-'aalt' Access All Alternates lookup 1 subtable" eightinferior eightsuperior
EndChar

StartChar: nine
Encoding: 57 57 26
Width: 570
VWidth: 1000
Flags: HMW
LayerCount: 5
Fore
SplineSet
262 596 m 0
 182 596 127 547 101 490 c 0
 92 469 87 446 87 421 c 0
 87 342 136 283 194 260 c 0
 217 251 240 246 263 246 c 0
 344 246 404 298 428 356 c 0
 437 378 442 402 442 427 c 0
 442 467 426 498 410 520 c 0
 378 564 332 596 262 596 c 0
112 -37 m 1
 112 16 l 1
 247 16 333 87 390 171 c 0
 412 204 431 242 446 287 c 1
 415 252 364 216 314 201 c 0
 297 196 280 193 261 193 c 0
 160 193 86 257 53 331 c 0
 40 360 34 390 34 421 c 0
 34 525 98 599 173 631 c 0
 201 643 231 649 262 649 c 0
 377 649 451 577 485 493 c 0
 498 459 505 420 505 377 c 0
 505 249 460 161 395 89 c 0
 331 18 240 -37 115 -37 c 2
 112 -37 l 1
EndSplineSet
Validated: 1
Substitution2: "Bellota-Regular-'sups' Superscript lookup 6 subtable" ninesuperior
Substitution2: "Bellota-Regular-'subs' Subscript lookup 5 subtable" nineinferior
AlternateSubs2: "Bellota-Regular-'aalt' Access All Alternates lookup 1 subtable" nineinferior ninesuperior
EndChar

StartChar: colon
Encoding: 58 58 27
Width: 215
VWidth: 1000
Flags: HMW
LayerCount: 5
Fore
SplineSet
47 38 m 0
 47 61 66 81 89 81 c 0
 113 81 132 62 132 38 c 0
 132 15 112 -4 89 -4 c 0
 67 -4 47 16 47 38 c 0
47 432 m 0
 47 455 66 475 89 475 c 0
 113 475 132 456 132 432 c 0
 132 409 112 390 89 390 c 0
 67 390 47 410 47 432 c 0
EndSplineSet
Validated: 1
EndChar

StartChar: semicolon
Encoding: 59 59 28
Width: 199
VWidth: 1000
Flags: HMW
LayerCount: 5
Fore
SplineSet
24 -67 m 1
 45 -46 56 -29 56 10 c 0
 56 17 56 24 55 32 c 2
 55 52 l 1
 57 71 69 85 88 85 c 0
 106 85 120 70 120 52 c 2
 120 32 l 2
 120 -37 102 -66 58 -100 c 1
 24 -67 l 1
47 432 m 0
 47 455 67 475 89 475 c 0
 112 475 132 456 132 432 c 0
 132 409 113 390 89 390 c 0
 66 390 47 410 47 432 c 0
EndSplineSet
Validated: 1
EndChar

StartChar: less
Encoding: 60 60 29
Width: 389
VWidth: 1000
Flags: HMW
LayerCount: 5
Fore
SplineSet
310 403 m 1
 114 267 l 1
 312 129 l 1
 278 80 l 1
 12 265 l 1
 278 450 l 1
 310 403 l 1
EndSplineSet
Validated: 1
EndChar

StartChar: equal
Encoding: 61 61 30
Width: 459
VWidth: 1000
Flags: HMW
LayerCount: 5
Fore
SplineSet
406 187 m 1
 54 187 l 1
 54 239 l 1
 406 239 l 1
 406 187 l 1
406 347 m 1
 54 347 l 1
 54 399 l 1
 406 399 l 1
 406 347 l 1
EndSplineSet
Validated: 1
EndChar

StartChar: greater
Encoding: 62 62 31
Width: 389
VWidth: 1000
Flags: HMW
LayerCount: 5
Fore
SplineSet
347 265 m 1
 81 80 l 1
 49 127 l 1
 245 263 l 1
 47 401 l 1
 81 450 l 1
 347 265 l 1
EndSplineSet
Validated: 1
EndChar

StartChar: question
Encoding: 63 63 32
Width: 463
VWidth: 1000
Flags: HMW
LayerCount: 5
Fore
SplineSet
120 52 m 0
 120 78 142 100 168 100 c 0
 194 100 215 78 215 52 c 0
 215 26 194 5 168 5 c 0
 142 5 120 26 120 52 c 0
81 576 m 0
 81 558 93 547 111 547 c 0
 114 547 116 547 117 548 c 2
 131 496 l 1
 118 494 l 1
 110 494 l 2
 64 494 28 529 28 576 c 0
 28 622 58 651 89 670 c 0
 119 689 162 703 210 703 c 0
 302 703 367 649 396 585 c 0
 407 561 412 533 412 502 c 0
 412 405 358 354 293 317 c 0
 255 294 217 276 191 244 c 0
 179 229 173 212 173 193 c 0
 173 181 175 167 178 150 c 1
 126 139 l 1
 122 157 120 175 120 192 c 0
 120 364 359 329 359 503 c 0
 359 573 319 619 267 639 c 0
 248 646 229 650 211 650 c 0
 157 650 121 634 93 606 c 0
 85 598 81 588 81 576 c 0
EndSplineSet
Validated: 1
EndChar

StartChar: at
Encoding: 64 64 33
Width: 703
VWidth: 1000
Flags: HMW
LayerCount: 5
Fore
SplineSet
309 151 m 0
 352 151 372 184 383 216 c 1
 383 351 l 1
 354 354 l 2
 339 355 330 356 326 356 c 0
 274 356 235 313 235 260 c 0
 235 212 247 182 275 160 c 0
 284 154 295 151 309 151 c 0
339 -12 m 0
 414 -12 487 1 534 25 c 1
 548 -20 l 1
 510 -32 l 2
 488 -39 424 -53 400 -56 c 0
 382 -59 362 -60 339 -60 c 0
 195 -60 105 9 62 113 c 0
 48 148 41 188 41 232 c 0
 41 381 110 479 215 525 c 0
 253 540 294 548 339 548 c 0
 433 548 505 515 554 466 c 0
 602 420 635 347 635 255 c 0
 635 176 601 120 548 97 c 0
 532 90 515 87 498 87 c 0
 448 87 416 107 402 147 c 1
 377 116 346 101 309 101 c 0
 243 101 213 147 194 197 c 0
 188 216 185 237 185 260 c 0
 185 325 225 373 269 394 c 0
 286 402 304 406 323 406 c 0
 339 406 376 401 389 401 c 2
 433 401 l 1
 433 194 l 1
 439 156 460 132 498 132 c 0
 539 132 564 167 574 200 c 0
 579 217 582 236 582 257 c 0
 582 373 523 452 437 484 c 0
 406 495 374 501 339 501 c 0
 221 501 142 433 112 342 c 0
 101 308 95 272 95 235 c 0
 95 116 154 39 240 5 c 0
 271 -6 304 -12 339 -12 c 0
EndSplineSet
Validated: 1
EndChar

StartChar: bracketleft
Encoding: 91 91 34
Width: 335
VWidth: 1000
Flags: HMW
LayerCount: 5
Fore
SplineSet
292 693 m 1
 115 693 l 1
 115 -117 l 1
 292 -117 l 1
 292 -174 l 1
 54 -174 l 1
 54 750 l 1
 292 750 l 1
 292 693 l 1
EndSplineSet
Validated: 1
EndChar

StartChar: backslash
Encoding: 92 92 35
Width: 342
VWidth: 1000
Flags: HMW
LayerCount: 5
Fore
SplineSet
297 -70 m 1
 233 -70 l 1
 15 750 l 1
 78 750 l 1
 297 -70 l 1
EndSplineSet
Validated: 1
EndChar

StartChar: bracketright
Encoding: 93 93 36
Width: 336
VWidth: 1000
Flags: HMW
LayerCount: 5
Fore
SplineSet
251 -174 m 1
 13 -174 l 1
 13 -117 l 1
 190 -117 l 1
 190 693 l 1
 13 693 l 1
 13 750 l 1
 251 750 l 1
 251 -174 l 1
EndSplineSet
Validated: 1
EndChar

StartChar: asciicircum
Encoding: 94 94 37
Width: 454
VWidth: 1000
Flags: HMW
LayerCount: 5
Fore
SplineSet
397 363 m 1
 347 328 l 1
 210 524 l 1
 75 330 l 1
 27 363 l 1
 202 615 l 1
 222 615 l 1
 397 363 l 1
EndSplineSet
Validated: 1
EndChar

StartChar: underscore
Encoding: 95 95 38
Width: 579
VWidth: 1000
Flags: HMW
LayerCount: 5
Fore
SplineSet
494 -133 m 1
 54 -133 l 1
 54 -78 l 1
 494 -78 l 1
 494 -133 l 1
EndSplineSet
Validated: 1
EndChar

StartChar: grave
Encoding: 96 96 39
Width: 260
VWidth: 1000
GlyphClass: 4
Flags: HMW
AnchorPoint: "Anchor-3" 178 500 mark 0
AnchorPoint: "Anchor-0" 178 500 mark 0
LayerCount: 5
Fore
SplineSet
211 601 m 1
 189 567 l 1
 17 677 l 1
 53 726 l 1
 211 601 l 1
EndSplineSet
Validated: 1
EndChar

StartChar: braceleft
Encoding: 123 123 40
Width: 323
VWidth: 1000
Flags: HMW
LayerCount: 5
Fore
SplineSet
256 750 m 1
 270 704 l 1
 249 699 231 694 217 689 c 0
 202 684 188 678 177 671 c 0
 166 664 158 656 153 645 c 0
 148 634 145 622 145 607 c 0
 145 594 146 579 148 560 c 2
 155 499 l 2
 157 486 159 464 162 434 c 0
 164 413 165 394 165 377 c 0
 165 361 163 348 158 339 c 0
 153 329 147 320 140 313 c 0
 132 305 125 300 118 297 c 2
 99 288 l 2
 101 287 107 285 117 281 c 0
 125 276 132 271 139 264 c 0
 146 257 152 248 157 238 c 0
 162 226 165 213 165 200 c 0
 165 183 164 164 162 142 c 0
 159 112 157 91 155 78 c 2
 148 17 l 2
 146 -2 145 -18 145 -30 c 0
 145 -45 148 -57 153 -68 c 0
 158 -79 166 -87 177 -94 c 0
 188 -101 202 -107 217 -112 c 0
 231 -117 249 -122 270 -127 c 1
 256 -173 l 1
 229 -165 209 -159 196 -156 c 0
 177 -151 159 -144 141 -134 c 0
 125 -125 111 -112 100 -95 c 0
 89 -78 84 -56 84 -28 c 0
 84 -9 85 12 87 34 c 0
 90 61 92 83 94 98 c 2
 101 157 l 2
 103 175 104 189 104 200 c 0
 104 211 101 220 96 227 c 0
 91 234 85 240 76 245 c 0
 68 250 59 253 49 255 c 0
 39 258 30 260 21 261 c 1
 21 316 l 1
 34 317 43 319 48 320 c 0
 60 324 69 328 75 331 c 0
 82 335 89 341 96 350 c 0
 101 357 104 366 104 377 c 0
 104 388 103 402 101 420 c 2
 94 478 l 2
 92 492 90 514 87 543 c 0
 85 565 84 586 84 605 c 0
 84 633 89 655 100 672 c 0
 111 689 125 702 141 711 c 0
 159 721 177 728 196 733 c 0
 209 736 229 742 256 750 c 1
EndSplineSet
Validated: 1
EndChar

StartChar: bar
Encoding: 124 124 41
Width: 204
VWidth: 1000
Flags: HMW
LayerCount: 5
Fore
SplineSet
115 -70 m 1
 54 -70 l 1
 54 750 l 1
 115 750 l 1
 115 -70 l 1
EndSplineSet
Validated: 1
EndChar

StartChar: braceright
Encoding: 125 125 42
Width: 322
VWidth: 1000
Flags: HMW
LayerCount: 5
Fore
SplineSet
23 704 m 1
 37 750 l 1
 64 742 84 736 97 733 c 0
 116 728 134 721 152 711 c 0
 168 702 182 689 193 672 c 0
 204 655 209 633 209 605 c 0
 209 586 208 565 206 543 c 0
 203 514 201 492 199 478 c 2
 192 420 l 2
 190 402 189 388 189 377 c 0
 189 366 192 356 197 349 c 0
 202 342 209 336 218 331 c 0
 224 327 233 323 245 320 c 0
 251 319 260 317 272 316 c 1
 272 261 l 1
 262 260 253 258 244 255 c 0
 232 252 223 248 217 244 c 0
 208 239 202 233 197 226 c 0
 192 219 189 210 189 200 c 0
 189 189 190 175 192 157 c 2
 199 98 l 2
 201 83 203 61 206 34 c 0
 208 12 209 -9 209 -28 c 0
 209 -56 204 -78 193 -95 c 0
 182 -112 168 -125 152 -134 c 0
 134 -144 116 -151 97 -156 c 0
 84 -159 64 -165 37 -173 c 1
 23 -127 l 1
 44 -122 62 -117 76 -112 c 0
 91 -107 105 -101 116 -94 c 0
 127 -87 135 -79 140 -68 c 0
 145 -57 148 -45 148 -30 c 0
 148 -18 147 -2 145 17 c 2
 138 78 l 2
 136 91 134 112 131 142 c 0
 129 164 128 183 128 200 c 0
 128 214 131 226 136 237 c 0
 141 247 147 256 154 263 c 0
 162 271 169 277 175 280 c 0
 182 284 189 287 194 288 c 1
 192 289 186 291 176 295 c 0
 170 298 163 304 155 312 c 0
 146 321 140 329 136 338 c 0
 131 350 128 363 128 377 c 0
 128 394 129 413 131 434 c 0
 134 464 136 486 138 499 c 2
 145 560 l 2
 147 579 148 594 148 607 c 0
 148 622 145 634 140 645 c 0
 135 656 127 664 116 671 c 0
 105 678 92 684 77 689 c 0
 61 694 43 699 23 704 c 1
EndSplineSet
Validated: 1
EndChar

StartChar: asciitilde
Encoding: 126 126 43
Width: 529
VWidth: 1000
Flags: HMW
LayerCount: 5
Fore
SplineSet
155 337 m 2
 167 337 l 2
 195 337 225 331 256 318 c 0
 281 308 303 303 324 303 c 0
 351 303 378 314 405 335 c 1
 439 294 l 1
 407 268 373 253 338 250 c 2
 324 250 l 2
 296 250 267 256 237 269 c 0
 211 279 188 284 169 284 c 0
 142 284 115 273 88 252 c 1
 54 293 l 1
 86 319 120 334 155 337 c 2
EndSplineSet
Validated: 1
EndChar

StartChar: cent
Encoding: 162 162 44
Width: 506
VWidth: 1000
GlyphClass: 2
Flags: HMW
LayerCount: 5
Back
SplineSet
435.546875 581.0546875 m 1,0,1
 415.0390625 584.9609375 415.0390625 584.9609375 397.94921875 587.890625 c 128,-1,2
 380.859375 590.8203125 380.859375 590.8203125 369.140625 590.8203125 c 0,3,4
 278.3203125 590.8203125 278.3203125 590.8203125 223.14453125 518.5546875 c 128,-1,5
 167.96875 446.2890625 167.96875 446.2890625 167.96875 325.1953125 c 0,6,7
 167.96875 258.7890625 167.96875 258.7890625 187.98828125 200.1953125 c 128,-1,8
 208.0078125 141.6015625 208.0078125 141.6015625 246.09375 98.6328125 c 1,9,-1
 435.546875 581.0546875 l 1,0,1
97.65625 325.1953125 m 0,10,11
 97.65625 471.6796875 97.65625 471.6796875 171.875 561.03515625 c 128,-1,12
 246.09375 650.390625 246.09375 650.390625 369.140625 650.390625 c 0,13,14
 393.5546875 650.390625 393.5546875 650.390625 415.0390625 647.4609375 c 128,-1,15
 436.5234375 644.53125 436.5234375 644.53125 455.078125 640.625 c 1,16,-1
 513.671875 785.15625 l 1,17,-1
 579.1015625 785.15625 l 1,18,-1
 512.6953125 615.234375 l 1,19,20
 563.4765625 581.0546875 563.4765625 581.0546875 594.23828125 533.69140625 c 128,-1,21
 625 486.328125 625 486.328125 628.90625 435.546875 c 1,22,-1
 556.640625 435.546875 l 1,23,24
 553.7109375 465.8203125 553.7109375 465.8203125 537.109375 497.0703125 c 128,-1,25
 520.5078125 528.3203125 520.5078125 528.3203125 490.234375 556.640625 c 1,26,-1
 301.7578125 69.3359375 l 1,27,28
 321.2890625 63.4765625 321.2890625 63.4765625 338.37890625 60.546875 c 128,-1,29
 355.46875 57.6171875 355.46875 57.6171875 369.140625 57.6171875 c 0,30,31
 451.171875 57.6171875 451.171875 57.6171875 504.39453125 102.05078125 c 128,-1,32
 557.6171875 146.484375 557.6171875 146.484375 564.453125 222.65625 c 1,33,-1
 634.765625 222.65625 l 1,34,35
 625 120.1171875 625 120.1171875 553.22265625 58.59375 c 128,-1,36
 481.4453125 -2.9296875 481.4453125 -2.9296875 369.140625 -2.9296875 c 0,37,38
 347.65625 -2.9296875 347.65625 -2.9296875 324.21875 0.48828125 c 128,-1,39
 300.78125 3.90625 300.78125 3.90625 278.3203125 10.7421875 c 1,40,-1
 226.5625 -122.0703125 l 1,41,-1
 161.1328125 -122.0703125 l 1,42,-1
 223.6328125 36.1328125 l 1,43,44
 164.0625 79.1015625 164.0625 79.1015625 130.859375 155.76171875 c 128,-1,45
 97.65625 232.421875 97.65625 232.421875 97.65625 325.1953125 c 0,10,11
EndSplineSet
Fore
SplineSet
210 120 m 1
 210 529 l 1
 188 524 169 514 154 499 c 0
 139 485 126 467 114 446 c 0
 103 425 95 402 90 379 c 0
 85 352 82 328 82 306 c 0
 82 252 94 210 118 179 c 0
 140 149 171 129 210 120 c 1
271 683 m 1
 271 580 l 1
 293 577 313 571 331 564 c 0
 350 556 367 546 380 533 c 0
 393 520 404 505 412 488 c 0
 420 471 424 451 424 430 c 1
 409 430 l 1
 381 431 l 2
 372 431 367 431 367 430 c 1
 367 458 358 481 341 498 c 0
 323 515 300 526 271 531 c 1
 271 116 l 1
 294 118 318 124 342 133 c 0
 369 144 391 154 410 164 c 1
 436 122 l 1
 415 107 391 94 362 83 c 0
 335 72 304 66 271 64 c 1
 271 -1 l 1
 210 -1 l 1
 210 66 l 1
 148 75 102 101 72 144 c 0
 41 187 26 246 26 321 c 0
 26 354 30 384 39 412 c 0
 48 442 61 468 76 490 c 0
 93 514 112 534 134 549 c 0
 157 564 183 574 210 579 c 1
 210 683 l 1
 271 683 l 1
EndSplineSet
Validated: 1
EndChar

StartChar: multiply
Encoding: 215 215 45
Width: 515
VWidth: 1000
Flags: HMW
LayerCount: 5
Fore
SplineSet
427 410 m 1
 285 268 l 1
 434 119 l 1
 391 76 l 1
 242 225 l 1
 93 75 l 1
 52 116 l 1
 201 265 l 1
 59 408 l 1
 102 451 l 1
 244 308 l 1
 386 451 l 1
 427 410 l 1
EndSplineSet
Validated: 1
EndChar

StartChar: divide
Encoding: 247 247 46
Width: 490
VWidth: 1000
Flags: HMW
LayerCount: 5
Fore
SplineSet
229 190 m 0
 243 190 254 186 263 177 c 0
 272 168 276 157 276 143 c 0
 276 130 272 120 263 111 c 0
 254 102 242 97 229 97 c 0
 217 97 206 102 197 111 c 0
 188 120 183 131 183 143 c 0
 183 156 188 168 197 177 c 0
 206 186 216 190 229 190 c 0
416 268 m 1
 44 268 l 1
 44 319 l 1
 416 319 l 1
 416 268 l 1
229 489 m 0
 243 489 254 485 263 476 c 0
 272 467 276 456 276 442 c 0
 276 429 272 419 263 410 c 0
 254 401 242 396 229 396 c 0
 217 396 206 401 197 410 c 0
 188 419 183 430 183 442 c 0
 183 455 188 467 197 476 c 0
 206 485 216 489 229 489 c 0
EndSplineSet
Validated: 1
EndChar

StartChar: uni02BC
Encoding: 257 700 47
Width: 210
VWidth: 1000
Flags: HMW
LayerCount: 5
Fore
SplineSet
76 602 m 2
 76 662 l 2
 76 671 79 679 85 686 c 0
 91 692 99 695 108 695 c 0
 117 695 125 692 131 686 c 0
 137 679 140 671 140 662 c 2
 140 602 l 2
 140 573 135 545 124 519 c 0
 113 491 95 468 70 450 c 1
 36 483 l 1
 63 510 76 549 76 602 c 2
EndSplineSet
Validated: 1
EndChar

StartChar: candrabinduinverteddeva
Encoding: 258 2304 48
Width: 0
VWidth: 1000
GlyphClass: 4
Flags: HMW
AnchorPoint: "DVAnchor3" -201 579 mark 0
LayerCount: 5
Back
SplineSet
-173.828125 826.171875 m 1,0,-1
 -89.84375 826.171875 l 1,1,-1
 -89.84375 741.2109375 l 1,2,-1
 -173.828125 741.2109375 l 1,3,-1
 -173.828125 826.171875 l 1,0,-1
-128.90625 968.75 m 0,4,5
 -51.7578125 968.75 -51.7578125 968.75 6.8359375 917.48046875 c 128,-1,6
 65.4296875 866.2109375 65.4296875 866.2109375 79.1015625 787.109375 c 1,7,-1
 7.8125 787.109375 l 1,8,9
 -0.9765625 839.84375 -0.9765625 839.84375 -40.0390625 875 c 128,-1,10
 -79.1015625 910.15625 -79.1015625 910.15625 -128.90625 910.15625 c 0,11,12
 -177.734375 910.15625 -177.734375 910.15625 -216.796875 875 c 128,-1,13
 -255.859375 839.84375 -255.859375 839.84375 -265.625 787.109375 c 1,14,-1
 -336.9140625 787.109375 l 1,15,16
 -322.265625 866.2109375 -322.265625 866.2109375 -263.671875 917.48046875 c 128,-1,17
 -205.078125 968.75 -205.078125 968.75 -128.90625 968.75 c 0,4,5
EndSplineSet
Fore
SplineSet
-96 684 m 5
 -96 736 -146 773 -202 773 c 4
 -258 773 -309 736 -309 684 c 5
 -364 684 l 5
 -364 768 -282 823 -202 823 c 4
 -122 823 -41 768 -41 684 c 5
 -96 684 l 5
-202 637 m 5
 -257 692 l 5
 -202 746 l 5
 -148 692 l 5
 -202 637 l 5
EndSplineSet
Validated: 1
EndChar

StartChar: candrabindudeva
Encoding: 259 2305 49
Width: 0
VWidth: 1000
GlyphClass: 4
Flags: HMW
AnchorPoint: "DVAnchor3" -200 579 mark 0
LayerCount: 5
Back
SplineSet
-173.828125 883.7890625 m 1,0,-1
 -173.828125 968.75 l 1,1,-1
 -89.84375 968.75 l 1,2,-1
 -89.84375 883.7890625 l 1,3,-1
 -173.828125 883.7890625 l 1,0,-1
-128.90625 741.2109375 m 0,4,5
 -205.078125 741.2109375 -205.078125 741.2109375 -263.671875 792.48046875 c 128,-1,6
 -322.265625 843.75 -322.265625 843.75 -336.9140625 922.8515625 c 1,7,-1
 -265.625 922.8515625 l 1,8,9
 -255.859375 870.1171875 -255.859375 870.1171875 -216.796875 834.9609375 c 128,-1,10
 -177.734375 799.8046875 -177.734375 799.8046875 -128.90625 799.8046875 c 0,11,12
 -79.1015625 799.8046875 -79.1015625 799.8046875 -40.0390625 834.9609375 c 128,-1,13
 -0.9765625 870.1171875 -0.9765625 870.1171875 7.8125 922.8515625 c 1,14,-1
 79.1015625 922.8515625 l 1,15,16
 65.4296875 843.75 65.4296875 843.75 6.8359375 792.48046875 c 128,-1,17
 -51.7578125 741.2109375 -51.7578125 741.2109375 -128.90625 741.2109375 c 0,4,5
EndSplineSet
Fore
SplineSet
-200 714 m 5
 -255 769 l 5
 -200 823 l 5
 -146 769 l 5
 -200 714 l 5
-94 773 m 5
 -39 773 l 5
 -39 689 -120 634 -200 634 c 4
 -281 634 -362 689 -362 773 c 5
 -307 773 l 5
 -307 721 -256 684 -200 684 c 4
 -145 684 -94 721 -94 773 c 5
EndSplineSet
Validated: 1
EndChar

StartChar: anusvaradeva
Encoding: 260 2306 50
Width: 0
VWidth: 1000
GlyphClass: 4
Flags: HMW
AnchorPoint: "DVAnchor3" -180 579 mark 0
LayerCount: 5
Back
SplineSet
-172.8515625 812.5 m 5,0,-1
 -172.8515625 903.3203125 l 5,1,-1
 -75.1953125 903.3203125 l 5,2,-1
 -75.1953125 812.5 l 5,3,-1
 -172.8515625 812.5 l 5,0,-1
EndSplineSet
Fore
SplineSet
-180 711 m 1
 -234 766 l 1
 -180 820 l 1
 -126 766 l 1
 -180 711 l 1
EndSplineSet
Validated: 1
EndChar

StartChar: visargadeva
Encoding: 261 2307 51
Width: 198
VWidth: 1000
GlyphClass: 2
Flags: HMW
LayerCount: 5
Back
SplineSet
108.609375 389.6484375 m 0,0,1
 81.265625 389.6484375 81.265625 389.6484375 62.7109375 410.64453125 c 128,-1,2
 44.15625 431.640625 44.15625 431.640625 44.15625 461.9140625 c 0,3,4
 44.15625 491.2109375 44.15625 491.2109375 62.7109375 512.20703125 c 128,-1,5
 81.265625 533.203125 81.265625 533.203125 108.609375 533.203125 c 0,6,7
 138.8828125 533.203125 138.8828125 533.203125 159.87890625 512.20703125 c 128,-1,8
 180.875 491.2109375 180.875 491.2109375 180.875 461.9140625 c 0,9,10
 180.875 431.640625 180.875 431.640625 159.87890625 410.64453125 c 128,-1,11
 138.8828125 389.6484375 138.8828125 389.6484375 108.609375 389.6484375 c 0,0,1
108.609375 104.4921875 m 0,12,13
 81.265625 104.4921875 81.265625 104.4921875 62.7109375 125 c 128,-1,14
 44.15625 145.5078125 44.15625 145.5078125 44.15625 175.78125 c 0,15,16
 44.15625 205.078125 44.15625 205.078125 62.7109375 226.07421875 c 128,-1,17
 81.265625 247.0703125 81.265625 247.0703125 108.609375 247.0703125 c 0,18,19
 138.8828125 247.0703125 138.8828125 247.0703125 159.87890625 226.07421875 c 128,-1,20
 180.875 205.078125 180.875 205.078125 180.875 175.78125 c 0,21,22
 180.875 145.5078125 180.875 145.5078125 159.87890625 125 c 128,-1,23
 138.8828125 104.4921875 138.8828125 104.4921875 108.609375 104.4921875 c 0,12,13
EndSplineSet
Fore
SplineSet
99 115 m 1
 45 170 l 1
 99 224 l 1
 153 170 l 1
 99 115 l 1
99 356 m 1
 45 411 l 1
 99 465 l 1
 153 411 l 1
 99 356 l 1
EndSplineSet
Validated: 1
EndChar

StartChar: ashortdeva
Encoding: 262 2308 52
Width: 811
VWidth: 1000
GlyphClass: 2
Flags: HMW
AnchorPoint: "DVAnchor3" 731 648 basechar 0
LayerCount: 5
Back
SplineSet
368.7578125 45.8984375 m 0,0,1
 290.6328125 45.8984375 290.6328125 45.8984375 217.390625 110.83984375 c 128,-1,2
 144.1484375 175.78125 144.1484375 175.78125 89.4609375 292.96875 c 1,3,-1
 137.3125 320.3125 l 1,4,5
 184.1875 220.703125 184.1875 220.703125 244.734375 165.52734375 c 128,-1,6
 305.28125 110.3515625 305.28125 110.3515625 368.7578125 110.3515625 c 0,7,8
 408.796875 110.3515625 408.796875 110.3515625 437.60546875 140.13671875 c 128,-1,9
 466.4140625 169.921875 466.4140625 169.921875 466.4140625 212.890625 c 0,10,11
 466.4140625 265.625 466.4140625 265.625 433.69921875 301.7578125 c 128,-1,12
 400.984375 337.890625 400.984375 337.890625 356.0625 337.890625 c 0,13,14
 341.4140625 337.890625 341.4140625 337.890625 325.30078125 334.9609375 c 128,-1,15
 309.1875 332.03125 309.1875 332.03125 290.6328125 325.1953125 c 1,16,-1
 264.265625 383.7890625 l 1,17,18
 322.859375 388.671875 322.859375 388.671875 367.78125 424.31640625 c 128,-1,19
 412.703125 459.9609375 412.703125 459.9609375 412.703125 500.9765625 c 0,20,21
 412.703125 538.0859375 412.703125 538.0859375 390.2421875 564.94140625 c 128,-1,22
 367.78125 591.796875 367.78125 591.796875 336.53125 591.796875 c 0,23,24
 298.4453125 591.796875 298.4453125 591.796875 257.4296875 567.87109375 c 128,-1,25
 216.4140625 543.9453125 216.4140625 543.9453125 180.28125 500.9765625 c 1,26,-1
 134.3828125 545.8984375 l 1,27,28
 168.5625 595.703125 168.5625 595.703125 221.78515625 623.046875 c 128,-1,29
 275.0078125 650.390625 275.0078125 650.390625 336.53125 650.390625 c 0,30,31
 396.1015625 650.390625 396.1015625 650.390625 437.60546875 606.93359375 c 128,-1,32
 479.109375 563.4765625 479.109375 563.4765625 479.109375 500.9765625 c 0,33,34
 479.109375 467.7734375 479.109375 467.7734375 463.484375 437.5 c 128,-1,35
 447.859375 407.2265625 447.859375 407.2265625 420.515625 383.7890625 c 1,36,37
 470.3203125 355.46875 470.3203125 355.46875 508.40625 340.33203125 c 128,-1,38
 546.4921875 325.1953125 546.4921875 325.1953125 569.9296875 325.1953125 c 0,39,40
 584.578125 325.1953125 584.578125 325.1953125 606.0625 333.49609375 c 128,-1,41
 627.546875 341.796875 627.546875 341.796875 654.890625 357.421875 c 1,42,-1
 654.890625 591.796875 l 1,43,-1
 537.703125 591.796875 l 1,44,-1
 537.703125 650.390625 l 1,45,-1
 658.796875 650.390625 l 1,46,47
 658.796875 706.0546875 658.796875 706.0546875 620.7109375 746.58203125 c 128,-1,48
 582.625 787.109375 582.625 787.109375 528.9140625 787.109375 c 0,49,50
 457.625 787.109375 457.625 787.109375 402.44921875 836.42578125 c 128,-1,51
 347.2734375 885.7421875 347.2734375 885.7421875 333.6015625 962.890625 c 1,52,-1
 399.03125 962.890625 l 1,53,54
 407.8203125 909.1796875 407.8203125 909.1796875 444.9296875 874.0234375 c 128,-1,55
 482.0390625 838.8671875 482.0390625 838.8671875 528.9140625 838.8671875 c 0,56,57
 609.96875 838.8671875 609.96875 838.8671875 667.09765625 783.69140625 c 128,-1,58
 724.2265625 728.515625 724.2265625 728.515625 724.2265625 650.390625 c 1,59,-1
 830.671875 650.390625 l 1,60,-1
 830.671875 591.796875 l 1,61,-1
 719.34375 591.796875 l 1,62,-1
 719.34375 0 l 1,63,-1
 654.890625 0 l 1,64,-1
 654.890625 292.96875 l 1,65,66
 639.265625 279.296875 639.265625 279.296875 623.15234375 272.94921875 c 128,-1,67
 607.0390625 266.6015625 607.0390625 266.6015625 589.4609375 266.6015625 c 0,68,69
 562.1171875 266.6015625 562.1171875 266.6015625 540.14453125 271.97265625 c 128,-1,70
 518.171875 277.34375 518.171875 277.34375 505.4765625 286.1328125 c 1,71,72
 518.171875 275.390625 518.171875 275.390625 524.51953125 256.8359375 c 128,-1,73
 530.8671875 238.28125 530.8671875 238.28125 530.8671875 214.84375 c 0,74,75
 530.8671875 144.53125 530.8671875 144.53125 483.50390625 95.21484375 c 128,-1,76
 436.140625 45.8984375 436.140625 45.8984375 368.7578125 45.8984375 c 0,0,1
EndSplineSet
Fore
SplineSet
469 228 m 0
 469 136 388 74 296 74 c 0
 173 74 71 168 30 265 c 1
 80 287 l 1
 114 209 196 129 296 129 c 0
 357 129 414 167 414 228 c 0
 414 326 328 332 241 332 c 2
 231 332 l 1
 231 386 l 1
 241 386 l 2
 327 386 357 432 357 472 c 0
 357 520 312 554 262 554 c 0
 211 554 170 524 148 491 c 1
 102 521 l 1
 133 567 191 609 262 609 c 0
 341 609 412 551 412 472 c 0
 412 435 394 399 371 376 c 1
 387 369 405 356 418 343 c 0
 442 320 475 306 507 306 c 0
 559 306 596 337 616 363 c 1
 616 524 l 1
 502 524 l 1
 502 579 l 1
 616 579 l 1
 616 636 601 648 542 648 c 2
 434 648 l 2
 351 648 305 692 305 773 c 1
 360 773 l 1
 360 716 376 704 434 704 c 2
 542 704 l 2
 625 704 671 660 671 579 c 1
 831 579 l 1
 831 524 l 1
 671 524 l 1
 671 82 l 2
 671 63 686 48 705 48 c 0
 718 48 728 53 734 63 c 1
 780 32 l 1
 762 6 737 -7 705 -7 c 0
 654 -7 616 34 616 82 c 2
 616 291 l 1
 585 269 546 256 507 256 c 0
 493 256 479 258 466 261 c 1
 468 252 469 242 469 228 c 0
EndSplineSet
Validated: 1
Layer: 4
SplineSet
616 347 m 5
 616 524 l 5
 502 524 l 5
 502 579 l 5
 831 579 l 5
 831 524 l 5
 671 524 l 5
 671 82 l 6
 671 63 686 48 705 48 c 4
 718 48 728 53 734 63 c 5
 780 32 l 5
 762 6 737 -7 705 -7 c 4
 654 -7 616 34 616 82 c 6
 616 347 l 5
469 228 m 4
 469 136 388 74 296 74 c 4
 173 74 71 168 30 265 c 5
 80 287 l 5
 114 209 196 129 296 129 c 4
 357 129 414 167 414 228 c 4
 414 326 328 332 241 332 c 6
 231 332 l 5
 231 386 l 5
 241 386 l 6
 327 386 357 432 357 472 c 4
 357 520 312 554 262 554 c 4
 211 554 170 524 148 491 c 5
 102 521 l 5
 133 567 191 609 262 609 c 4
 341 609 412 551 412 472 c 4
 412 435 394 399 371 376 c 5
 387.215820312 368.905273438 405.168945312 355.831054688 418 343 c 4
 442 320 475 306 507 306 c 4
 561 306 598 340 618 366 c 5
 642 314 l 5
 608 278 558 256 507 256 c 4
 492.993164062 256 479.130859375 257.668945312 465.6875 260.831054688 c 5
 467.772460938 251.865234375 469 241.569335938 469 228 c 4
616 579 m 6
 616 636.380859375 601.31640625 648 542 648 c 6
 434 648 l 6
 351.287109375 648 305 691.952148438 305 773 c 5
 360 773 l 5
 360 716.096679688 375.587890625 704 434 704 c 6
 542 704 l 6
 624.712890625 704 671 660.047851562 671 579 c 6
 671 564 l 5
 616 564 l 5
 616 579 l 6
EndSplineSet
EndChar

StartChar: adeva
Encoding: 263 2309 53
Width: 811
VWidth: 1000
GlyphClass: 2
Flags: HMW
AnchorPoint: "DVAnchor3" 641 575 basechar 0
LayerCount: 5
Back
SplineSet
411.272460938 45.8984375 m 4,0,1
 333.147460938 45.8984375 333.147460938 45.8984375 259.905273438 110.83984375 c 132,-1,2
 186.663085938 175.78125 186.663085938 175.78125 131.975585938 292.96875 c 5,3,-1
 179.827148438 320.3125 l 5,4,5
 226.702148438 220.703125 226.702148438 220.703125 287.249023438 165.52734375 c 132,-1,6
 347.795898438 110.3515625 347.795898438 110.3515625 411.272460938 110.3515625 c 4,7,8
 451.311523438 110.3515625 451.311523438 110.3515625 480.120117188 140.13671875 c 132,-1,9
 508.928710938 169.921875 508.928710938 169.921875 508.928710938 212.890625 c 4,10,11
 508.928710938 265.625 508.928710938 265.625 476.213867188 301.7578125 c 132,-1,12
 443.499023438 337.890625 443.499023438 337.890625 398.577148438 337.890625 c 4,13,14
 383.928710938 337.890625 383.928710938 337.890625 367.815429688 334.9609375 c 132,-1,15
 351.702148438 332.03125 351.702148438 332.03125 333.147460938 325.1953125 c 5,16,-1
 306.780273438 383.7890625 l 5,17,18
 365.374023438 388.671875 365.374023438 388.671875 410.295898438 424.31640625 c 132,-1,19
 455.217773438 459.9609375 455.217773438 459.9609375 455.217773438 500.9765625 c 4,20,21
 455.217773438 538.0859375 455.217773438 538.0859375 432.756835938 564.94140625 c 132,-1,22
 410.295898438 591.796875 410.295898438 591.796875 379.045898438 591.796875 c 4,23,24
 340.959960938 591.796875 340.959960938 591.796875 299.944335938 567.87109375 c 132,-1,25
 258.928710938 543.9453125 258.928710938 543.9453125 222.795898438 500.9765625 c 5,26,-1
 176.897460938 545.8984375 l 5,27,28
 211.077148438 595.703125 211.077148438 595.703125 264.299804688 623.046875 c 132,-1,29
 317.522460938 650.390625 317.522460938 650.390625 379.045898438 650.390625 c 4,30,31
 438.616210938 650.390625 438.616210938 650.390625 480.120117188 606.93359375 c 132,-1,32
 521.624023438 563.4765625 521.624023438 563.4765625 521.624023438 500.9765625 c 4,33,34
 521.624023438 467.7734375 521.624023438 467.7734375 505.999023438 437.5 c 132,-1,35
 490.374023438 407.2265625 490.374023438 407.2265625 463.030273438 383.7890625 c 5,36,37
 512.834960938 355.46875 512.834960938 355.46875 550.920898438 340.33203125 c 132,-1,38
 589.006835938 325.1953125 589.006835938 325.1953125 612.444335938 325.1953125 c 4,39,40
 627.092773438 325.1953125 627.092773438 325.1953125 648.577148438 333.49609375 c 132,-1,41
 670.061523438 341.796875 670.061523438 341.796875 697.405273438 357.421875 c 5,42,-1
 697.405273438 591.796875 l 5,43,-1
 580.217773438 591.796875 l 5,44,-1
 580.217773438 650.390625 l 5,45,-1
 873.186523438 650.390625 l 5,46,-1
 873.186523438 591.796875 l 5,47,-1
 761.858398438 591.796875 l 5,48,-1
 761.858398438 0 l 5,49,-1
 697.405273438 0 l 5,50,-1
 697.405273438 292.96875 l 5,51,52
 681.780273438 279.296875 681.780273438 279.296875 665.666992188 272.94921875 c 132,-1,53
 649.553710938 266.6015625 649.553710938 266.6015625 631.975585938 266.6015625 c 4,54,55
 604.631835938 266.6015625 604.631835938 266.6015625 582.659179688 271.97265625 c 132,-1,56
 560.686523438 277.34375 560.686523438 277.34375 547.991210938 286.1328125 c 5,57,58
 560.686523438 275.390625 560.686523438 275.390625 567.034179688 256.8359375 c 132,-1,59
 573.381835938 238.28125 573.381835938 238.28125 573.381835938 214.84375 c 4,60,61
 573.381835938 144.53125 573.381835938 144.53125 526.018554688 95.21484375 c 132,-1,62
 478.655273438 45.8984375 478.655273438 45.8984375 411.272460938 45.8984375 c 4,0,1
EndSplineSet
Fore
SplineSet
469 228 m 0
 469 136 388 74 296 74 c 0
 173 74 71 168 30 265 c 1
 80 287 l 1
 114 209 196 129 296 129 c 0
 357 129 414 167 414 228 c 0
 414 326 328 332 241 332 c 2
 231 332 l 1
 231 386 l 1
 241 386 l 2
 327 386 357 432 357 472 c 0
 357 520 312 554 262 554 c 0
 211 554 170 524 148 491 c 1
 102 521 l 1
 133 567 191 609 262 609 c 0
 341 609 412 551 412 472 c 0
 412 435 394 399 371 376 c 1
 387 369 405 356 418 343 c 0
 442 320 475 306 507 306 c 0
 559 306 596 337 616 363 c 1
 616 524 l 1
 502 524 l 1
 502 579 l 1
 831 579 l 1
 831 524 l 1
 671 524 l 1
 671 82 l 2
 671 63 686 48 705 48 c 0
 718 48 728 53 734 63 c 1
 780 32 l 1
 762 6 737 -7 705 -7 c 0
 654 -7 616 34 616 82 c 2
 616 291 l 1
 585 269 546 256 507 256 c 0
 493 256 479 258 466 261 c 1
 468 252 469 242 469 228 c 0
EndSplineSet
Validated: 1
Layer: 2
SplineSet
417 332 m 4
 446.061523438 300.08984375 488.83984375 281.119140625 532 281 c 4
 574.537109375 280.8828125 616.818359375 299.055664062 646.004882812 330 c 1028
329.004882812 367 m 0
 352.864257812 365.048828125 376.270507812 357.647460938 396.875976562 345.461914062 c 0
 417.481445312 333.276367188 435.313476562 316.297851562 448.004882812 296 c 0
 461.763671875 273.99609375 469.288085938 247.918945312 468.004882812 222 c 0
 467.125 204.228515625 462.133789062 186.678710938 453.5546875 171.090820312 c 0
 444.975585938 155.501953125 432.868164062 141.918945312 418.602539062 131.28515625 c 0
 390.0703125 110.017578125 353.576171875 100.984375 318.004882812 102 c 0
 257.979492188 103.712890625 200.392578125 131.555664062 156.004882812 172 c 0
 124.318359375 200.872070312 98.9697265625 236.6328125 82.0048828125 276 c 1024
152.004882812 506 m 0
 167.546875 528.98046875 188.66796875 548.1796875 213.084960938 561.348632812 c 0
 236.422851562 573.935546875 262.821289062 581.045898438 289.325195312 581.045898438 c 0
 290.551757812 581.045898438 291.778320312 581.030273438 293.004882812 581 c 0
 322.200195312 580.271484375 351.497070312 570.446289062 373.69140625 551.463867188 c 0
 396.51953125 531.9375 411.051757812 503.21484375 411.051757812 471.9375 c 0
 411.051757812 448.694335938 402.965820312 425.603515625 389.004882812 407 c 0
 375.421875 388.900390625 356.30078125 375.102539062 334.983398438 367.51171875 c 0
 313.665039062 359.919921875 290.633789062 359 268.004882812 359 c 2
 247.004882812 359 l 1025
EndSplineSet
Layer: 3
SplineSet
610.12890625 346.2734375 m 5
 651.880859375 313.7265625 l 5
 617.806640625 277.600585938 568.411132812 256 517.408203125 256 c 4
 465.162109375 256 414.901367188 278.6328125 380.818359375 316.056640625 c 5
 420 346 l 5
 420 346 426.28515625 344.442382812 428 342.768554688 c 5
 451.943359375 319.396484375 485.1015625 306 517.408203125 306 c 4
 551.204101562 306 586.015625 320.708984375 610.12890625 346.2734375 c 5
EndSplineSet
Layer: 4
SplineSet
616 347 m 1
 616 524 l 1
 502 524 l 1
 502 579 l 1
 831 579 l 1
 831 524 l 1
 671 524 l 1
 671 82 l 2
 671 63 686 48 705 48 c 0
 718 48 728 53 734 63 c 1
 780 32 l 1
 762 6 737 -7 705 -7 c 0
 654 -7 616 34 616 82 c 2
 616 347 l 1
469 228 m 0
 469 136 388 74 296 74 c 0
 173 74 71 168 30 265 c 1
 80 287 l 1
 114 209 196 129 296 129 c 0
 357 129 414 167 414 228 c 0
 414 326 328 332 241 332 c 2
 231 332 l 1
 231 386 l 1
 241 386 l 2
 327 386 357 432 357 472 c 0
 357 520 312 554 262 554 c 0
 211 554 170 524 148 491 c 1
 102 521 l 1
 133 567 191 609 262 609 c 0
 341 609 412 551 412 472 c 0
 412 435 394 399 371 376 c 1
 387.215417139 368.905755002 405.169007721 355.830950708 418 343 c 0
 442 320 475 306 507 306 c 0
 561 306 598 340 618 366 c 1
 642 314 l 1
 608 278 558 256 507 256 c 0
 492.992917179 256 479.130951495 257.668847075 465.687731299 260.830637284 c 1
 467.772536055 251.864897737 469 241.569067463 469 228 c 0
EndSplineSet
EndChar

StartChar: aadeva
Encoding: 264 2310 54
Width: 1043
VWidth: 1000
GlyphClass: 2
Flags: HMW
LayerCount: 5
Back
SplineSet
412.249023438 45.8984375 m 0,0,1
 334.124023438 45.8984375 334.124023438 45.8984375 260.881835938 110.83984375 c 128,-1,2
 187.639648438 175.78125 187.639648438 175.78125 132.952148438 292.96875 c 1,3,-1
 178.850585938 332.03125 l 1,4,5
 227.678710938 226.5625 227.678710938 226.5625 288.713867188 168.45703125 c 128,-1,6
 349.749023438 110.3515625 349.749023438 110.3515625 412.249023438 110.3515625 c 0,7,8
 453.264648438 110.3515625 453.264648438 110.3515625 481.584960938 145.01953125 c 128,-1,9
 509.905273438 179.6875 509.905273438 179.6875 509.905273438 227.5390625 c 0,10,11
 509.905273438 273.4375 509.905273438 273.4375 477.678710938 305.6640625 c 128,-1,12
 445.452148438 337.890625 445.452148438 337.890625 399.553710938 337.890625 c 0,13,14
 384.905273438 337.890625 384.905273438 337.890625 368.791992188 334.9609375 c 128,-1,15
 352.678710938 332.03125 352.678710938 332.03125 334.124023438 325.1953125 c 1,16,-1
 308.733398438 383.7890625 l 1,17,18
 367.327148438 388.671875 367.327148438 388.671875 412.737304688 426.26953125 c 128,-1,19
 458.147460938 463.8671875 458.147460938 463.8671875 458.147460938 506.8359375 c 0,20,21
 458.147460938 541.9921875 458.147460938 541.9921875 431.291992188 566.89453125 c 128,-1,22
 404.436523438 591.796875 404.436523438 591.796875 367.327148438 591.796875 c 0,23,24
 336.077148438 591.796875 336.077148438 591.796875 297.991210938 567.87109375 c 128,-1,25
 259.905273438 543.9453125 259.905273438 543.9453125 223.772460938 500.9765625 c 1,26,-1
 178.850585938 545.8984375 l 1,27,28
 212.053710938 595.703125 212.053710938 595.703125 262.346679688 623.046875 c 128,-1,29
 312.639648438 650.390625 312.639648438 650.390625 367.327148438 650.390625 c 0,30,31
 431.780273438 650.390625 431.780273438 650.390625 477.190429688 608.88671875 c 128,-1,32
 522.600585938 567.3828125 522.600585938 567.3828125 522.600585938 506.8359375 c 0,33,34
 522.600585938 471.6796875 522.600585938 471.6796875 506.975585938 439.453125 c 128,-1,35
 491.350585938 407.2265625 491.350585938 407.2265625 464.983398438 383.7890625 c 1,36,37
 508.928710938 357.421875 508.928710938 357.421875 551.897460938 344.7265625 c 128,-1,38
 594.866210938 332.03125 594.866210938 332.03125 633.928710938 332.03125 c 0,39,40
 643.694335938 332.03125 643.694335938 332.03125 660.295898438 338.37890625 c 128,-1,41
 676.897460938 344.7265625 676.897460938 344.7265625 698.381835938 357.421875 c 1,42,-1
 698.381835938 591.796875 l 1,43,-1
 581.194335938 591.796875 l 1,44,-1
 581.194335938 650.390625 l 1,45,-1
 1140.76464844 650.390625 l 1,46,-1
 1140.76464844 591.796875 l 1,47,-1
 1030.41308594 591.796875 l 1,48,-1
 1030.41308594 0 l 1,49,-1
 964.983398438 0 l 1,50,-1
 964.983398438 591.796875 l 1,51,-1
 763.811523438 591.796875 l 1,52,-1
 763.811523438 0 l 1,53,-1
 698.381835938 0 l 1,54,-1
 698.381835938 292.96875 l 1,55,56
 682.756835938 279.296875 682.756835938 279.296875 666.643554688 272.94921875 c 128,-1,57
 650.530273438 266.6015625 650.530273438 266.6015625 633.928710938 266.6015625 c 0,58,59
 606.584960938 266.6015625 606.584960938 266.6015625 584.124023438 271.97265625 c 128,-1,60
 561.663085938 277.34375 561.663085938 277.34375 548.967773438 286.1328125 c 1,61,62
 561.663085938 275.390625 561.663085938 275.390625 568.499023438 256.8359375 c 128,-1,63
 575.334960938 238.28125 575.334960938 238.28125 575.334960938 214.84375 c 0,64,65
 575.334960938 144.53125 575.334960938 144.53125 527.971679688 95.21484375 c 128,-1,66
 480.608398438 45.8984375 480.608398438 45.8984375 412.249023438 45.8984375 c 0,0,1
EndSplineSet
Fore
SplineSet
937 -7 m 0
 888 -7 848 33 848 82 c 2
 848 524 l 1
 831 524 l 1
 744 524 l 1
 671 524 l 1
 671 82 l 2
 671 63 686 48 705 48 c 0
 718 48 728 53 734 63 c 1
 780 32 l 1
 762 6 737 -7 705 -7 c 0
 654 -7 616 34 616 82 c 2
 616 291 l 1
 585 269 546 256 507 256 c 0
 493 256 479 258 466 261 c 1
 468 252 469 242 469 228 c 0
 469 136 388 74 296 74 c 0
 173 74 71 168 30 265 c 1
 80 287 l 1
 114 209 196 129 296 129 c 0
 357 129 414 167 414 228 c 0
 414 326 328 332 241 332 c 2
 231 332 l 1
 231 386 l 1
 241 386 l 2
 327 386 357 432 357 472 c 0
 357 520 312 554 262 554 c 0
 211 554 170 524 148 491 c 1
 102 521 l 1
 133 567 191 609 262 609 c 0
 341 609 412 551 412 472 c 0
 412 435 394 399 371 376 c 1
 387 369 405 356 418 343 c 0
 442 320 475 306 507 306 c 0
 559 306 596 337 616 363 c 1
 616 524 l 1
 502 524 l 1
 502 579 l 1
 744 579 l 1
 831 579 l 1
 1063 579 l 1
 1063 524 l 1
 903 524 l 1
 903 82 l 2
 903 63 918 48 937 48 c 0
 950 48 960 53 966 63 c 1
 1012 32 l 1
 994 6 969 -7 937 -7 c 0
EndSplineSet
Validated: 1
Layer: 2
SplineSet
911 748 m 4
 911 680 845 634 777 634 c 4
 709 634 643 680 643 748 c 1028
EndSplineSet
Layer: 4
SplineSet
616 347 m 5
 616 524 l 5
 502 524 l 5
 502 579 l 5
 831 579 l 5
 831 524 l 5
 671 524 l 5
 671 82 l 6
 671 63 686 48 705 48 c 4
 718 48 728 53 734 63 c 5
 780 32 l 5
 762 6 737 -7 705 -7 c 4
 654 -7 616 34 616 82 c 6
 616 347 l 5
469 228 m 4
 469 136 388 74 296 74 c 4
 173 74 71 168 30 265 c 5
 80 287 l 5
 114 209 196 129 296 129 c 4
 357 129 414 167 414 228 c 4
 414 326 328 332 241 332 c 6
 231 332 l 5
 231 386 l 5
 241 386 l 6
 327 386 357 432 357 472 c 4
 357 520 312 554 262 554 c 4
 211 554 170 524 148 491 c 5
 102 521 l 5
 133 567 191 609 262 609 c 4
 341 609 412 551 412 472 c 4
 412 435 394 399 371 376 c 5
 387.215820312 368.905273438 405.168945312 355.831054688 418 343 c 4
 442 320 475 306 507 306 c 4
 561 306 598 340 618 366 c 5
 642 314 l 5
 608 278 558 256 507 256 c 4
 492.993164062 256 479.130859375 257.668945312 465.6875 260.831054688 c 5
 467.772460938 251.865234375 469 241.569335938 469 228 c 4
937 -7 m 4
 888 -7 848 33 848 82 c 6
 848 524 l 5
 744 524 l 5
 744 579 l 5
 1063 579 l 5
 1063 524 l 5
 903 524 l 5
 903 82 l 6
 903 63 918 48 937 48 c 4
 950 48 960 53 966 63 c 5
 1012 32 l 5
 994 6 969 -7 937 -7 c 4
EndSplineSet
EndChar

StartChar: ideva
Encoding: 265 2311 55
Width: 536
VWidth: 1000
GlyphClass: 2
Flags: HMW
LayerCount: 5
Back
SplineSet
202.90625 228.716796875 m 5,0,-1
 202.90625 283.716796875 l 5,1,-1
 310.90625 283.716796875 l 6,2,3
 348.149988051 283.716796875 348.149988051 283.716796875 368.23046875 280.811523438 c 4,4,5
 402.094130699 275.912204352 402.094130699 275.912204352 428.34375 261.209960938 c 4,6,7
 464.328583753 241.056919501 464.328583753 241.056919501 483.31640625 205.65234375 c 4,8,9
 499.7109375 175.085229297 499.7109375 175.085229297 499.7109375 139.571289062 c 4,10,11
 499.7109375 134.385742187 499.7109375 134.385742187 499.333007814 129.211914062 c 4,12,13
 494.556246197 63.8599745671 494.556246197 63.8599745671 441.609375 20.83984375 c 4,14,15
 393.864142938 -17.9533364273 393.864142938 -17.9533364273 327.533203125 -18.28515625 c 4,16,17
 263.093154236 -18.28515625 263.093154236 -18.28515625 193.26953125 21.3173828125 c 4,18,19
 103.412879295 72.2811296973 103.412879295 72.2811296973 8.3759765625 178.919921875 c 5,20,-1
 49.4365234375 215.513671875 l 5,21,22
 138.44103208 115.644379954 138.44103208 115.644379954 220.403320312 69.1572265625 c 4,23,24
 277.604705671 36.71484375 277.604705671 36.71484375 327.395507812 36.71484375 c 4,25,26
 374.215209905 36.9483278287 374.215209905 36.9483278287 406.926757812 63.5263671875 c 4,27,28
 441.434755313 91.564213931 441.434755313 91.564213931 444.479492188 133.221679688 c 4,29,30
 444.680195991 136.888977295 444.680195991 136.888977295 444.710937502 139.571289062 c 4,31,32
 444.7109375 161.266005202 444.7109375 161.266005202 434.84765625 179.657226562 c 4,33,34
 423.447151517 200.914449087 423.447151517 200.914449087 401.46875 213.223632812 c 4,35,36
 384.119712525 222.940799562 384.119712525 222.940799562 360.35546875 226.377929688 c 4,37,38
 344.191274529 228.716796875 344.191274529 228.716796875 310.90625 228.716796875 c 6,39,-1
 202.90625 228.716796875 l 5,0,-1
438.711914062 480 m 5,40,-1
 438.711914062 425 l 5,41,-1
 303.711914062 425 l 6,42,43
 299.018432617 425 299.018432617 425 289.960571289 425.061523438 c 132,-1,44
 280.902709961 425.123046875 280.902709961 425.123046875 276.549804688 425.123046875 c 4,44,45
 235.318079888 425.123046875 235.318079888 425.123046875 212.634765625 418.907226562 c 4,46,47
 192.800922143 413.473025083 192.800922143 413.473025083 180.536132812 402.295898438 c 4,48,49
 167.912685492 390.791816766 167.912685492 390.791816766 164.645507812 374.9453125 c 4,50,51
 163.630859375 370.032123393 163.630859375 370.032123393 163.630859375 364.72265625 c 4,52,53
 163.630859375 354.496090546 163.630859375 354.496090546 167.267578125 344.12890625 c 4,54,55
 172.685225073 328.683972827 172.685225073 328.683972827 185.723632812 313.241210938 c 4,56,57
 203.866175591 291.753357458 203.866175591 291.753357458 230.517578125 276.283203125 c 5,58,-1
 202.90625 228.716796875 l 5,59,60
 167.999179554 248.979161009 167.999179554 248.979161009 143.700195312 277.758789062 c 4,61,62
 124.133234246 300.93462779 124.133234246 300.93462779 115.368164062 325.921875 c 4,63,64
 108.630859375 345.12847242 108.630859375 345.12847242 108.630859375 364.72265625 c 4,65,66
 108.630859375 375.637430216 108.630859375 375.637430216 110.778320312 386.0546875 c 4,67,68
 117.657043706 419.406606421 117.657043706 419.406606421 143.489257812 442.947265625 c 4,69,70
 165.518436275 463.02378536 165.518436275 463.02378536 198.098632812 471.952148438 c 4,71,72
 227.919304898 480.123046875 227.919304898 480.123046875 276.549804688 480.123046875 c 4,73,74
 281.275146485 480.123046875 281.275146485 480.123046875 290.333740234 480.061523438 c 132,-1,75
 299.392333984 480 299.392333984 480 303.711914062 480 c 6,75,-1
 438.711914062 480 l 5,40,-1
383.711914062 562 m 5,76,-1
 438.711914062 562 l 5,77,-1
 438.711914062 425 l 5,78,-1
 383.711914062 425 l 5,79,-1
 383.711914062 562 l 5,76,-1
419 136 m 4,0,1
 419 188 419 188 376.5 218.5 c 132,-1,2
 334 249 334 249 276 249 c 4,2,3
 246 249 246 249 210 236 c 5,4,-1
 185 236 l 5,5,-1
 121 300 l 6,6,7
 95.999511718 322.000488282 95.999511718 322.000488282 96 354 c 4,8,9
 96 382.999511718 96 382.999511718 117 404 c 132,-1,10
 138 425 138 425 167 425 c 6,11,-1
 439 425 l 5,12,-1
 439 370 l 5,13,-1
 167 370 l 6,14,15
 159.999511718 370 159.999511718 370 155.5 365 c 132,-1,16
 151 360.000488282 151 360.000488282 151 354 c 132,-1,17
 151 348 151 348 159 340 c 6,18,-1
 205 294 l 5,19,20
 242.999511718 304.000488282 242.999511718 304.000488282 276 304 c 4,21,22
 352.999511718 304 352.999511718 304 413.5 259 c 132,-1,23
 473.999511718 214 473.999511718 214 474 136 c 4,24,25
 474 73.6548822776 474 73.6548822776 421.244765843 25.8496957058 c 132,-1,26
 368.489531685 -21.9554908661 368.489531685 -21.9554908661 280.651367188 -14.826171875 c 5,26,27
 282.867467909 -36.3331169698 282.867467909 -36.3331169698 284.887695312 -62.0751953125 c 5,28,-1
 230.056640625 -66.3798828125 l 5,29,30
 227.349211567 -31.9037509412 227.349211567 -31.9037509412 224.235351562 -4.8671875 c 5,31,32
 206.639192219 -0.217642417252 206.639192219 -0.217642417252 188.142578125 6.404296875 c 4,33,34
 140.546077504 23.4479252267 140.546077504 23.4479252267 112.651367188 45.0166015625 c 4,35,36
 92.6977995508 60.4455084333 92.6977995508 60.4455084333 81.4599609375 79.095703125 c 4,37,38
 67.1404119722 102.859436514 67.1404119722 102.859436514 67.9873046875 128.673828125 c 4,39,40
 69.0798805066 162.009046822 69.0798805066 162.009046822 93.146484375 184.478515625 c 4,41,42
 116.529521965 206.312048377 116.529521965 206.312048377 149.505859375 206.272460938 c 4,43,44
 181.43030137 206.233824857 181.43030137 206.233824857 208.736328125 184.975585938 c 4,45,46
 230.115681203 168.33257784 230.115681203 168.33257784 244.776367188 140.638671875 c 4,47,48
 263.839655885 104.629515983 263.839655885 104.629515983 273.556640625 41.232421875 c 4,49,50
 274.501606196 41.1085905088 274.501606196 41.1085905088 274.94921875 41.0517578125 c 4,51,52
 308.254104308 36.8058590888 308.254104308 36.8058590888 335.669921875 43.130859375 c 4,53,54
 357.999046449 48.2823278285 357.999046449 48.2823278285 376.706409818 61.0097135242 c 132,-1,55
 395.413773186 73.7370992199 395.413773186 73.7370992199 407.206886593 93.534441607 c 132,-1,56
 419 113.331783994 419 113.331783994 419 136 c 4,0,1
215.413085938 55.1630859375 m 5,55,56
 208.274090861 92.0372630271 208.274090861 92.0372630271 196.16796875 114.90625 c 4,57,58
 187.025351819 132.176826057 187.025351819 132.176826057 174.950195312 141.576171875 c 4,59,60
 162.517539195 151.256572118 162.517539195 151.256572118 149.439453125 151.272460938 c 4,61,62
 138.186357491 151.286342223 138.186357491 151.286342223 130.681640625 144.27734375 c 132,-1,64
 123.302507338 137.389391163 123.302507338 137.389391163 122.958007812 126.87109375 c 4,65,66
 122.644683602 117.313910073 122.644683602 117.313910073 128.569335938 107.481445312 c 132,-1,68
 134.491716824 97.6534943264 134.491716824 97.6534943264 146.293945312 88.52734375 c 4,69,70
 167.297945353 72.2873295321 167.297945353 72.2873295321 206.682617188 58.185546875 c 4,71,72
 210.77335126 56.7215888361 210.77335126 56.7215888361 215.413085938 55.1630859375 c 5,55,56
-15 579 m 5,73,-1
 551 579 l 5,74,-1
 551 524 l 5,75,-1
 -15 524 l 5,76,-1
 -15 579 l 5,73,-1
383.711914062 562 m 5,77,-1
 438.711914062 562 l 5,78,-1
 438.711914062 370 l 5,79,-1
 383.711914062 370 l 5,80,-1
 383.711914062 562 l 5,77,-1
463 141 m 25,0,0
 473.9453125 133.543945312 l 1,1,2
 471.099862379 69.8992408257 471.099862379 69.8992408257 422.669921875 27.154296875 c 0,3,4
 391.380459288 -0.461555754909 391.380459288 -0.461555754909 348.03515625 -10.4609375 c 0,5,6
 316.855510568 -17.6552975689 316.855510568 -17.6552975689 280.651367188 -14.826171875 c 1,7,8
 282.867467907 -36.3331169489 282.867467907 -36.3331169489 284.887695312 -62.0751953125 c 1,9,-1
 230.056640625 -66.3798828125 l 1,10,11
 227.349211569 -31.9037509638 227.349211569 -31.9037509638 224.235351562 -4.8671875 c 1,12,13
 206.639192216 -0.217642416671 206.639192216 -0.217642416671 188.142578125 6.404296875 c 0,14,15
 140.546077504 23.4479252273 140.546077504 23.4479252273 112.651367188 45.0166015625 c 0,16,17
 92.6977995505 60.4455084339 92.6977995505 60.4455084339 81.4599609375 79.095703125 c 0,18,19
 67.1404119722 102.859436514 67.1404119722 102.859436514 67.9873046875 128.673828125 c 0,20,21
 69.0798805066 162.009046823 69.0798805066 162.009046823 93.146484375 184.478515625 c 0,22,23
 116.529521965 206.312048377 116.529521965 206.312048377 149.505859375 206.272460938 c 0,24,25
 181.43030137 206.233824856 181.43030137 206.233824856 208.736328125 184.975585938 c 0,26,27
 230.115681203 168.33257784 230.115681203 168.33257784 244.776367188 140.638671875 c 0,28,29
 263.839655886 104.629515982 263.839655886 104.629515982 273.556640625 41.232421875 c 0,30,31
 274.501606196 41.1085905088 274.501606196 41.1085905088 274.94921875 41.0517578125 c 0,32,33
 308.254104308 36.8058590888 308.254104308 36.8058590888 335.669921875 43.130859375 c 0,34,35
 365.436234319 49.9989503605 365.436234319 49.9989503605 386.274414062 68.3896484375 c 0,36,37
 417.197097615 95.6826733845 417.197097615 95.6826733845 419 136 c 1024
215.413085938 55.1630859375 m 1,39,40
 208.274090861 92.0372630261 208.274090861 92.0372630261 196.16796875 114.90625 c 0,41,42
 187.02535182 132.176826056 187.02535182 132.176826056 174.950195312 141.576171875 c 0,43,44
 162.517539195 151.25657212 162.517539195 151.25657212 149.439453125 151.272460938 c 0,45,46
 138.186357491 151.286342223 138.186357491 151.286342223 130.681640625 144.27734375 c 128,-1,48
 123.302507337 137.389391161 123.302507337 137.389391161 122.958007812 126.87109375 c 0,49,50
 122.644683601 117.313910074 122.644683601 117.313910074 128.569335938 107.481445312 c 128,-1,52
 134.491716825 97.6534943255 134.491716825 97.6534943255 146.293945312 88.52734375 c 0,53,54
 167.297945352 72.2873295324 167.297945352 72.2873295324 206.682617188 58.185546875 c 0,55,56
 210.773351247 56.7215888404 210.773351247 56.7215888404 215.413085938 55.1630859375 c 1,39,40
-15 579 m 1,0,-1
 551 579 l 1,1,-1
 551 524 l 1,2,-1
 -15 524 l 1,3,-1
 -15 579 l 1,0,-1
383.711914062 562 m 1,4,-1
 438.711914062 562 l 1,5,-1
 438.711914062 370 l 1,6,-1
 383.711914062 370 l 1,7,-1
 383.711914062 562 l 1,4,-1
419 136 m 0,16,17
 419 185.999511718 419 185.999511718 377.5 217.5 c 128,-1,18
 335.999511718 249 335.999511718 249 276 249 c 0,19,20
 246 249 246 249 210 236 c 1,21,-1
 185 236 l 1,22,-1
 121 300 l 2,23,24
 95.999511718 322.000488282 95.999511718 322.000488282 96 354 c 0,25,26
 96 382.999511718 96 382.999511718 117 404 c 128,-1,27
 138 425 138 425 167 425 c 2,28,-1
 439 425 l 1,29,-1
 439 370 l 1,30,-1
 167 370 l 2,31,32
 159.999511718 370 159.999511718 370 155.5 365 c 128,-1,33
 151 360.000488282 151 360.000488282 151 354 c 128,-1,34
 151 348 151 348 159 340 c 2,35,-1
 205 294 l 1,36,37
 242.999511718 304.000488282 242.999511718 304.000488282 276 304 c 0,38,39
 352.999511718 304 352.999511718 304 413.5 259 c 128,-1,40
 473.999511718 214 473.999511718 214 474 136 c 1024,41,42
-12.6953125 591.796875 m 1,0,-1
 -12.6953125 650.390625 l 1,1,-1
 504.8828125 650.390625 l 1,2,-1
 504.8828125 591.796875 l 1,3,-1
 391.6015625 591.796875 l 1,4,-1
 391.6015625 422.8515625 l 1,5,-1
 157.2265625 422.8515625 l 2,6,7
 141.6015625 422.8515625 141.6015625 422.8515625 129.8828125 415.0390625 c 128,-1,8
 118.1640625 407.2265625 118.1640625 407.2265625 118.1640625 396.484375 c 0,9,10
 118.1640625 375.9765625 118.1640625 375.9765625 159.66796875 334.47265625 c 128,-1,11
 201.171875 292.96875 201.171875 292.96875 222.65625 292.96875 c 128,-1,12
 244.140625 292.96875 244.140625 292.96875 287.109375 309.08203125 c 128,-1,13
 330.078125 325.1953125 330.078125 325.1953125 352.5390625 325.1953125 c 0,14,15
 389.6484375 325.1953125 389.6484375 325.1953125 416.50390625 292.48046875 c 128,-1,16
 443.359375 259.765625 443.359375 259.765625 443.359375 214.84375 c 0,17,18
 443.359375 133.7890625 443.359375 133.7890625 394.04296875 76.66015625 c 128,-1,19
 344.7265625 19.53125 344.7265625 19.53125 274.4140625 19.53125 c 1,20,21
 298.828125 -15.625 298.828125 -15.625 339.84375 -46.875 c 128,-1,22
 380.859375 -78.125 380.859375 -78.125 436.5234375 -104.4921875 c 1,23,-1
 404.296875 -156.25 l 1,24,25
 333.984375 -116.2109375 333.984375 -116.2109375 281.25 -71.2890625 c 128,-1,26
 228.515625 -26.3671875 228.515625 -26.3671875 196.2890625 19.53125 c 1,27,28
 130.859375 19.53125 130.859375 19.53125 85.44921875 44.43359375 c 128,-1,29
 40.0390625 69.3359375 40.0390625 69.3359375 40.0390625 104.4921875 c 0,30,31
 40.0390625 130.859375 40.0390625 130.859375 59.08203125 149.90234375 c 128,-1,32
 78.125 168.9453125 78.125 168.9453125 105.46875 168.9453125 c 0,33,34
 142.578125 168.9453125 142.578125 168.9453125 179.19921875 143.06640625 c 128,-1,35
 215.8203125 117.1875 215.8203125 117.1875 242.1875 71.2890625 c 1,36,37
 297.8515625 71.2890625 297.8515625 71.2890625 337.890625 113.76953125 c 128,-1,38
 377.9296875 156.25 377.9296875 156.25 377.9296875 214.84375 c 0,39,40
 377.9296875 232.421875 377.9296875 232.421875 370.60546875 246.09375 c 128,-1,41
 363.28125 259.765625 363.28125 259.765625 352.5390625 259.765625 c 0,42,43
 330.078125 259.765625 330.078125 259.765625 287.109375 243.65234375 c 128,-1,44
 244.140625 227.5390625 244.140625 227.5390625 222.65625 227.5390625 c 0,45,46
 180.6640625 227.5390625 180.6640625 227.5390625 116.2109375 291.50390625 c 128,-1,47
 51.7578125 355.46875 51.7578125 355.46875 51.7578125 396.484375 c 0,48,49
 51.7578125 434.5703125 51.7578125 434.5703125 83.0078125 460.9375 c 128,-1,50
 114.2578125 487.3046875 114.2578125 487.3046875 158.203125 487.3046875 c 2,51,-1
 320.3125 487.3046875 l 1,52,-1
 320.3125 591.796875 l 1,53,-1
 -12.6953125 591.796875 l 1,0,-1
EndSplineSet
Fore
SplineSet
-15 579 m 1
 551 579 l 1
 551 524 l 1
 438 524 l 1
 438 451 l 1
 438 401 l 1
 383 401 l 1
 242 401 l 2
 184 401 165 390 165 355 c 0
 165 332 194 306 219 284 c 1
 317 284 l 2
 421 284 500 234 500 140 c 0
 500 34 401 -15 298 -15 c 0
 283 -15 266 -14 251 -12 c 1
 226 -64 184 -106 135 -133 c 1
 108 -85 l 1
 143 -65 174 -37 195 -2 c 1
 140 13 76 46 76 116 c 0
 76 165 116 204 165 204 c 0
 232 204 273 144 273 77 c 0
 273 65 271 53 269 41 c 1
 278 40 289 40 298 40 c 0
 367 40 427 65 442 119 c 0
 444 126 445 133 445 140 c 0
 445 192 406 219 360 226 c 0
 345 228 329 229 311 229 c 2
 203 229 l 1
 172 255 109 289 109 357 c 0
 109 440 186 451 242 451 c 2
 383 451 l 1
 383 524 l 1
 -15 524 l 1
 -15 579 l 1
165 149 m 0
 146 149 131 135 131 116 c 0
 131 75 180 58 215 50 c 1
 217 59 218 68 218 77 c 0
 218 113 199 149 165 149 c 0
EndSplineSet
Validated: 1
Layer: 2
SplineSet
125 -110 m 0
 156.191888968 -92.7571110662 183.908007733 -69.1489789034 205.517633186 -40.8068681138 c 0
 221.072670386 -20.4056543744 233.511676863 2.4930136499 241.070849728 27.0088781042 c 0
 248.630022594 51.5247425585 251.282140612 77.8948671601 246 103 c 0
 242.165194434 121.226190896 233.963623125 138.747130983 221.121719461 152.237322924 c 0
 208.279815797 165.727514864 190.592357077 174.901698243 171.999522394 176 c 0
 156.137368161 176.936997084 139.892125725 171.819695633 127.808977376 161.500614936 c 0
 115.725829028 151.181534239 108.143569691 135.848600847 107 120 c 0
 105.764781761 102.881252465 111.863600591 85.6705808696 122.189681171 71.9611191326 c 0
 132.51576175 58.2516573957 146.724477066 47.8265007918 161.999522394 40.0002455255 c 0
 187.517083256 26.9261798975 215.869215385 20.242834782 244.234958097 16.0641095152 c 0
 272.600700808 11.8853842484 301.448771412 10.3723678775 330 13 c 0
 360.511102884 15.808003648 391.00137785 23.8011722599 416.976957784 40.0517578125 c 0
 442.952537717 56.3023433652 463.930405756 81.4416859002 472 111 c 0
 477.089931097 129.64403309 476.989244661 149.718329344 471.404106954 168.220048325 c 0
 465.818969247 186.721767305 454.778155838 203.545543832 440 216 c 1024
-46 132 m 0
 -47.4775390625 98.943359375 -63.19140625 66.896484375 -88 45 c 0
 -105.693359375 29.3837890625 -127.625 18.8681640625 -150.620117188 13.5625 c 0
 -164.099609375 10.4521484375 -177.916015625 9.0830078125 -191.7578125 9.0830078125 c 0
 -201.529296875 9.0830078125 -211.3125 9.765625 -221 11 c 0
 -246.291015625 14.2236328125 -271.056640625 20.9287109375 -295.059570312 29.5234375 c 0
 -319.0625 38.1171875 -342.831054688 48.4052734375 -363 64 c 0
 -372.567382812 71.3974609375 -381.215820312 80.158203125 -387.458007812 90.5166015625 c 0
 -393.39453125 100.369140625 -397.029296875 111.740234375 -397.029296875 123.228515625 c 0
 -397.029296875 138.140625 -390.96875 151.88671875 -380.55859375 161.60546875 c 0
 -370.5390625 170.9609375 -356.775390625 176 -343.067382812 176 c 0
 -327.702148438 176 -312.735351562 169.928710938 -300.62890625 160.50390625 c 0
 -288.54296875 151.094726562 -279.166015625 138.537109375 -272 125 c 0
 -256.663085938 96.029296875 -250.41015625 63.1728515625 -245.5625 30.7529296875 c 0
 -240.71484375 -1.666015625 -237.565429688 -34.3203125 -235 -67 c 1024
EndSplineSet
Layer: 4
SplineSet
241.736328125 264.126953125 m 5
 202.90625 228.716796875 l 5
 172.284558146 254.467589169 109.221679688 289.73828125 109.221679688 357.328125 c 4
 109.221679688 439.875976562 186.346679688 451.421875 242 451.421875 c 6
 438.321289062 451.421875 l 5
 438.321289062 401.421875 l 5
 438.321289062 401.421875 285.864257812 401.421875 242 401.421875 c 4
 184.377929688 401.421875 165.221679688 390.248046875 165.221679688 355.328125 c 4
 165.221679688 324.988839674 217.868669495 285.75722521 241.736328125 264.126953125 c 5
164.793945312 204.463867188 m 4
 231.86321506 204.463867188 272.762695312 143.297693163 272.762695312 76.6083984375 c 4
 272.762695312 64.9990234375 271.443359375 52.7919921875 269.266601562 41.26953125 c 5
 278.72265625 40.4892578125 288.333007812 40.0517578125 297.513671875 40.0517578125 c 4
 366.635966856 40.0517578125 427.252688912 65.1866523663 441.97265625 119.096679688 c 4
 443.784179688 125.732421875 444.7109375 132.669921875 444.7109375 139.571289062 c 5
 499.7109375 139.571289062 l 5
 499.7109375 33.8000045608 400.616501536 -14.9482421875 297.513671875 -14.9482421875 c 4
 282.026367188 -14.9482421875 266.510742188 -13.94921875 251.26953125 -12.2001953125 c 5
 225.817711956 -64.6173955508 184.14085772 -105.941674513 134.805664062 -133.212890625 c 5
 108.197265625 -85.078125 l 5
 143.643761869 -65.483924371 173.956404594 -37.0233665005 194.525390625 -1.8486328125 c 5
 139.579333028 12.707005199 75.84375 46.6639091109 75.84375 116.44921875 c 4
 75.84375 165.173975371 115.667970318 204.463867188 164.793945312 204.463867188 c 4
164.793945312 149.463867188 m 4
 145.712693533 149.463867188 130.84375 135.239567843 130.84375 116.44921875 c 4
 130.84375 75.8904184228 180.330160982 57.9968772856 214.865234375 49.7470703125 c 5
 216.735351562 58.767578125 217.762695312 67.91796875 217.762695312 76.6083984375 c 4
 217.762695312 112.863379651 198.985220971 149.463867188 164.793945312 149.463867188 c 4
444.479492188 133.221679688 m 6
 444.633789062 135.331054688 444.7109375 137.450195312 444.7109375 139.571289062 c 4
 444.7109375 191.376315045 406.58778674 219.691140305 360.35546875 226.377929688 c 4
 345.244140625 228.564453125 328.680664062 228.716796875 310.90625 228.716796875 c 6
 202.90625 228.716796875 l 5
 202.90625 283.716796875 l 5
 310.90625 283.716796875 l 5
 311.474909783 283.716796875 l 6
 395.288174813 283.716796875 453.24787088 261.717947819 483.31640625 205.65234375 c 4
 494.283203125 185.205078125 499.7109375 162.37109375 499.7109375 139.571289062 c 4
 499.7109375 136.1171875 499.584960938 132.661132812 499.333007812 129.211914062 c 6
 444.479492188 133.221679688 l 6
-15 579 m 5
 551 579 l 5
 551 524 l 5
 -15 524 l 5
 -15 579 l 5
383.321289062 538.421875 m 5
 438.321289062 538.421875 l 5
 438.321289062 401.421875 l 5
 383.321289062 401.421875 l 5
 383.321289062 538.421875 l 5
EndSplineSet
EndChar

StartChar: iideva
Encoding: 266 2312 56
Width: 536
VWidth: 1000
GlyphClass: 2
Flags: HMW
AnchorPoint: "DVAnchor3" 410 582 basechar 0
LayerCount: 5
Back
SplineSet
405.2734375 -156.25 m 1,0,1
 335.9375 -116.2109375 335.9375 -116.2109375 283.203125 -71.2890625 c 128,-1,2
 230.46875 -26.3671875 230.46875 -26.3671875 197.265625 19.53125 c 1,3,4
 132.8125 19.53125 132.8125 19.53125 87.40234375 44.43359375 c 128,-1,5
 41.9921875 69.3359375 41.9921875 69.3359375 41.9921875 104.4921875 c 0,6,7
 41.9921875 130.859375 41.9921875 130.859375 60.546875 149.90234375 c 128,-1,8
 79.1015625 168.9453125 79.1015625 168.9453125 106.4453125 168.9453125 c 0,9,10
 144.53125 168.9453125 144.53125 168.9453125 180.6640625 143.06640625 c 128,-1,11
 216.796875 117.1875 216.796875 117.1875 243.1640625 71.2890625 c 1,12,13
 301.7578125 71.2890625 301.7578125 71.2890625 343.75 113.76953125 c 128,-1,14
 385.7421875 156.25 385.7421875 156.25 385.7421875 214.84375 c 0,15,16
 385.7421875 232.421875 385.7421875 232.421875 376.46484375 246.09375 c 128,-1,17
 367.1875 259.765625 367.1875 259.765625 353.515625 259.765625 c 0,18,19
 337.890625 259.765625 337.890625 259.765625 323.73046875 256.8359375 c 128,-1,20
 309.5703125 253.90625 309.5703125 253.90625 294.921875 247.0703125 c 0,21,22
 274.4140625 238.28125 274.4140625 238.28125 256.34765625 232.91015625 c 128,-1,23
 238.28125 227.5390625 238.28125 227.5390625 223.6328125 227.5390625 c 0,24,25
 180.6640625 227.5390625 180.6640625 227.5390625 114.2578125 291.50390625 c 128,-1,26
 47.8515625 355.46875 47.8515625 355.46875 47.8515625 396.484375 c 0,27,28
 47.8515625 434.5703125 47.8515625 434.5703125 80.56640625 460.9375 c 128,-1,29
 113.28125 487.3046875 113.28125 487.3046875 158.203125 487.3046875 c 2,30,-1
 328.125 487.3046875 l 1,31,-1
 328.125 591.796875 l 1,32,-1
 -12.6953125 591.796875 l 1,33,-1
 -12.6953125 650.390625 l 1,34,-1
 313.4765625 650.390625 l 1,35,36
 279.296875 679.6875 279.296875 679.6875 261.23046875 713.8671875 c 128,-1,37
 243.1640625 748.046875 243.1640625 748.046875 243.1640625 780.2734375 c 0,38,39
 243.1640625 839.84375 243.1640625 839.84375 288.57421875 881.34765625 c 128,-1,40
 333.984375 922.8515625 333.984375 922.8515625 399.4140625 922.8515625 c 0,41,42
 416.9921875 922.8515625 416.9921875 922.8515625 434.5703125 919.921875 c 128,-1,43
 452.1484375 916.9921875 452.1484375 916.9921875 470.703125 910.15625 c 1,44,-1
 470.703125 851.5625 l 1,45,46
 443.359375 862.3046875 443.359375 862.3046875 425.78125 866.69921875 c 128,-1,47
 408.203125 871.09375 408.203125 871.09375 399.4140625 871.09375 c 0,48,49
 361.328125 871.09375 361.328125 871.09375 334.9609375 844.7265625 c 128,-1,50
 308.59375 818.359375 308.59375 818.359375 308.59375 780.2734375 c 0,51,52
 308.59375 744.140625 308.59375 744.140625 330.078125 709.47265625 c 128,-1,53
 351.5625 674.8046875 351.5625 674.8046875 388.671875 650.390625 c 1,54,-1
 510.7421875 650.390625 l 1,55,-1
 510.7421875 591.796875 l 1,56,-1
 392.578125 591.796875 l 1,57,-1
 392.578125 422.8515625 l 1,58,-1
 158.203125 422.8515625 l 2,59,60
 142.578125 422.8515625 142.578125 422.8515625 131.34765625 415.0390625 c 128,-1,61
 120.1171875 407.2265625 120.1171875 407.2265625 120.1171875 396.484375 c 0,62,63
 120.1171875 375.9765625 120.1171875 375.9765625 161.62109375 334.47265625 c 128,-1,64
 203.125 292.96875 203.125 292.96875 223.6328125 292.96875 c 0,65,66
 234.375 292.96875 234.375 292.96875 250.48828125 297.36328125 c 128,-1,67
 266.6015625 301.7578125 266.6015625 301.7578125 289.0625 309.5703125 c 0,68,69
 308.59375 317.3828125 308.59375 317.3828125 325.1953125 321.2890625 c 128,-1,70
 341.796875 325.1953125 341.796875 325.1953125 353.515625 325.1953125 c 0,71,72
 393.5546875 325.1953125 393.5546875 325.1953125 422.36328125 292.48046875 c 128,-1,73
 451.171875 259.765625 451.171875 259.765625 451.171875 214.84375 c 0,74,75
 451.171875 133.7890625 451.171875 133.7890625 403.80859375 76.66015625 c 128,-1,76
 356.4453125 19.53125 356.4453125 19.53125 289.0625 19.53125 c 1,77,78
 304.6875 -15.625 304.6875 -15.625 345.21484375 -46.38671875 c 128,-1,79
 385.7421875 -77.1484375 385.7421875 -77.1484375 444.3359375 -97.65625 c 1,80,-1
 405.2734375 -156.25 l 1,0,1
EndSplineSet
Fore
SplineSet
510 740 m 1
 470 702 l 1
 457 716 440 725 420 725 c 0
 387 725 366 703 366 672 c 0
 366 637 394 602 428 579 c 1
 551 579 l 1
 551 524 l 1
 438 524 l 1
 438 401 l 1
 242 401 l 18
 184 401 165 390 165 355 c 0
 165 332 194 306 219 284 c 1
 313 284 l 2
 423 284 500 234 500 140 c 0
 500 34 401 -15 298 -15 c 0
 283 -15 266 -14 251 -12 c 1
 226 -64 184 -106 135 -133 c 1
 108 -85 l 1
 143 -65 174 -37 195 -2 c 1
 140 13 76 46 76 116 c 0
 76 165 116 204 165 204 c 0
 232 204 273 144 273 77 c 0
 273 65 271 53 269 41 c 1
 278 40 289 40 298 40 c 0
 367 40 427 65 442 119 c 0
 444 126 445 133 445 140 c 0
 445 192 406 219 360 226 c 0
 345 228 329 229 311 229 c 2
 203 229 l 1
 172 255 109 289 109 357 c 0
 109 440 186 451 242 451 c 2
 384 451 l 1
 384 524 l 1
 -15 524 l 1
 -15 579 l 1
 348 579 l 1
 327 604 311 635 311 672 c 0
 311 733 359 780 420 780 c 0
 456 780 487 764 510 740 c 1
165 149 m 0
 146 149 131 135 131 116 c 0
 131 75 180 58 215 50 c 1
 217 59 218 68 218 77 c 0
 218 113 199 149 165 149 c 0
EndSplineSet
Validated: 1
Layer: 2
SplineSet
295 740 m 0
 277.19140625 759.115234375 252.4140625 771.108398438 224.583984375 771.108398438 c 0
 177.731445312 771.108398438 143.771484375 737.712890625 143.771484375 691.279296875 c 0
 143.771484375 630.336914062 201.524414062 581.78515625 247 560 c 1024
472 740 m 0
 455.016350023 758.22977017 430.885251442 769.778055804 406 771 c 0
 391.797194612 771.697402461 377.383153909 769.033909899 364.568497286 762.870256218 c 0
 351.753840662 756.706602538 340.639436794 746.993542285 333 735 c 0
 322.694395533 718.820704814 319.049127573 698.825399846 321.511010591 679.801356949 c 0
 323.972893609 660.777314051 332.096554962 642.78258415 343 627 c 0
 363.133862671 597.856515462 392.054581778 575.303769853 424 560 c 1024
EndSplineSet
Layer: 4
SplineSet
241.736328125 264.126953125 m 5
 202.90625 228.716796875 l 5
 172.284558146 254.467589169 109.221679688 289.73828125 109.221679688 357.328125 c 4
 109.221679688 439.875976562 186.346679688 451.421875 242 451.421875 c 6
 438.321289062 451.421875 l 5
 438.321289062 401.421875 l 5
 438.321289062 401.421875 285.864257812 401.421875 242 401.421875 c 4
 184.377929688 401.421875 165.221679688 390.248046875 165.221679688 355.328125 c 4
 165.221679688 324.988839674 217.868669495 285.75722521 241.736328125 264.126953125 c 5
383.711914062 562 m 5
 438.711914062 562 l 5
 438.711914062 425 l 5
 383.711914062 425 l 5
 383.711914062 562 l 5
164.793945312 204.463867188 m 4
 231.86321506 204.463867188 272.762695312 143.297693163 272.762695312 76.6083984375 c 4
 272.762695312 64.9990234375 271.443359375 52.7919921875 269.266601562 41.26953125 c 5
 278.72265625 40.4892578125 288.333007812 40.0517578125 297.513671875 40.0517578125 c 4
 366.635966856 40.0517578125 427.252688912 65.1866523663 441.97265625 119.096679688 c 4
 443.784179688 125.732421875 444.7109375 132.669921875 444.7109375 139.571289062 c 5
 499.7109375 139.571289062 l 5
 499.7109375 33.8000045608 400.616501536 -14.9482421875 297.513671875 -14.9482421875 c 4
 282.026367188 -14.9482421875 266.510742188 -13.94921875 251.26953125 -12.2001953125 c 5
 225.817711956 -64.6173955508 184.14085772 -105.941674513 134.805664062 -133.212890625 c 5
 108.197265625 -85.078125 l 5
 143.643761869 -65.483924371 173.956404594 -37.0233665005 194.525390625 -1.8486328125 c 5
 139.579333028 12.707005199 75.84375 46.6639091109 75.84375 116.44921875 c 4
 75.84375 165.173975371 115.667970318 204.463867188 164.793945312 204.463867188 c 4
164.793945312 149.463867188 m 4
 145.712693533 149.463867188 130.84375 135.239567843 130.84375 116.44921875 c 4
 130.84375 75.8904184228 180.330160982 57.9968772856 214.865234375 49.7470703125 c 5
 216.735351562 58.767578125 217.762695312 67.91796875 217.762695312 76.6083984375 c 4
 217.762695312 112.863379651 198.985220971 149.463867188 164.793945312 149.463867188 c 4
444.479492188 133.221679688 m 6
 444.633789062 135.331054688 444.7109375 137.450195312 444.7109375 139.571289062 c 4
 444.7109375 191.376315045 406.58778674 219.691140305 360.35546875 226.377929688 c 4
 345.244140625 228.564453125 328.680664062 228.716796875 310.90625 228.716796875 c 6
 202.90625 228.716796875 l 5
 202.90625 283.716796875 l 5
 310.90625 283.716796875 l 5
 311.474909783 283.716796875 l 6
 395.288174813 283.716796875 453.24787088 261.717947819 483.31640625 205.65234375 c 4
 494.283203125 185.205078125 499.7109375 162.37109375 499.7109375 139.571289062 c 4
 499.7109375 136.1171875 499.584960938 132.661132812 499.333007812 129.211914062 c 6
 444.479492188 133.221679688 l 6
-15 579 m 5
 551 579 l 5
 551 524 l 5
 -15 524 l 5
 -15 579 l 5
510.240234375 739.944335938 m 5
 469.998046875 702.453125 l 5
 456.93359375 716.4765625 439.435546875 724.807617188 419.703125 724.807617188 c 4
 387.166992188 724.807617188 366.389648438 703.96875 366.389648438 672.478515625 c 4
 366.389648438 629.301757812 412.0078125 586.1171875 454 566 c 5
 430.237304688 516.3984375 l 5
 381.278320312 539.852539062 311.389648438 593.76953125 311.389648438 672.478515625 c 4
 311.389648438 733.85546875 358.533203125 779.807617188 419.703125 779.807617188 c 4
 455.630859375 779.807617188 487.6875 764.151367188 510.240234375 739.944335938 c 5
EndSplineSet
EndChar

StartChar: udeva
Encoding: 267 2313 57
Width: 496
VWidth: 1000
GlyphClass: 2
Flags: HMW
AnchorPoint: "DVAnchor3" 312 579 basechar 0
LayerCount: 5
Back
SplineSet
212.188721898 329.205416195 m 1,0,-1
 199.811278102 382.794583805 l 1,1,2
 226.762615259 389.019510889 226.762615259 389.019510889 254.569259185 389.019510889 c 0,3,4
 261.459053555 389.019510889 261.459053555 389.019510889 268.33076097 388.631190617 c 0,5,6
 275.202468386 388.242870344 275.202468386 388.242870344 282.044509986 387.466658314 c 0,7,8
 288.886551587 386.690446284 288.886551587 386.690446284 295.697319378 385.518423488 c 0,9,10
 302.508087169 384.346400693 302.508087169 384.346400693 309.222117799 382.786848454 c 0,11,12
 376.779412193 367.094467 376.779412193 367.094467 423.136641175 318.644381182 c 0,13,14
 446.64502208 294.074684129 446.64502208 294.074684129 461.311356102 263.179163025 c 0,15,16
 475.977690124 232.283641921 475.977690124 232.283641921 479.360998573 198.761477333 c 0,17,18
 479.593035242 196.462434396 479.593035242 196.462434396 479.766871841 194.154835682 c 0,19,20
 479.940708439 191.847236967 479.940708439 191.847236967 480.055810811 189.541334823 c 0,21,22
 480.170913182 187.235432679 480.170913182 187.235432679 480.228309679 184.931420712 c 0,23,24
 480.285706175 182.627408746 480.285706175 182.627408746 480.285706175 180.319551278 c 0,25,26
 480.285706175 106.794301701 480.285706175 106.794301701 431.686104122 54.316790697 c 0,27,28
 405.532371725 26.0761730448 405.532371725 26.0761730448 369.400364026 10.7778467316 c 0,29,30
 333.268356327 -4.52047958147 333.268356327 -4.52047958147 294.547350266 -4.52047958147 c 0,31,32
 293.052848563 -4.52047958147 293.052848563 -4.52047958147 291.557522484 -4.49644001771 c 0,33,34
 239.049380734 -3.65146982762 239.049380734 -3.65146982762 189.474291024 23.5858190258 c 0,35,36
 145.996844467 47.4729723806 145.996844467 47.4729723806 110.172021512 89.0489028176 c 0,37,38
 50.373473005 158.447160448 50.373473005 158.447160448 28.2333856414 252.712159415 c 1,39,-1
 81.7763799836 265.287840585 l 1,40,41
 100.835375593 184.141087552 100.835375593 184.141087552 151.837744113 124.951097182 c 0,42,43
 181.181912679 90.8961874738 181.181912679 90.8961874738 215.958162755 71.7896003934 c 0,44,45
 253.575844474 51.1218886665 253.575844474 51.1218886665 292.442477516 50.4964400177 c 0,46,47
 293.494316303 50.4795136442 293.494316303 50.4795136442 294.547350266 50.4795204185 c 0,48,49
 353.169442278 50.4795204185 353.169442278 50.4795204185 391.33283775 91.6880884149 c 0,50,51
 402.061332433 103.272642074 402.061332433 103.272642074 409.714015499 117.735271285 c 0,52,53
 417.366698565 132.197900496 417.366698565 132.197900496 421.32620237 148.144574916 c 0,54,55
 425.285706175 164.091249336 425.285706175 164.091249336 425.285706175 180.319551278 c 0,56,57
 425.285706175 181.942508508 425.285706175 181.942508508 425.245373145 183.561538621 c 0,58,59
 425.205040116 185.180568735 425.205040116 185.180568735 425.124335785 186.796010206 c 0,60,61
 425.043631453 188.411451677 425.043631453 188.411451677 424.922234488 190.023242912 c 0,62,63
 424.800837523 191.635034147 424.800837523 191.635034147 424.639001427 193.238522667 c 0,64,65
 419.64306404 242.738778944 419.64306404 242.738778944 383.396939569 280.621281411 c 0,66,67
 348.370436824 317.229100755 348.370436824 317.229100755 296.777882201 329.213151546 c 0,68,69
 286.461116843 331.609556239 286.461116843 331.609556239 275.858179606 332.814533564 c 0,70,71
 265.255242369 334.019510889 265.255242369 334.019510889 254.569259185 334.019510889 c 0,72,73
 233.031743421 334.019510889 233.031743421 334.019510889 212.188721898 329.205416195 c 1,0,-1
258.239257812 334.142578125 m 5,74,-1
 254.569335938 389.01953125 l 1,75,76
 277.05810443 390.524179869 277.05810443 390.524179869 294.500976562 404.795898438 c 0,77,78
 311.94523899 419.06750473 311.94523899 419.06750473 317.872070312 440.813476562 c 0,79,80
 320.306640625 449.741707194 320.306640625 449.741707194 320.306640625 459.225585938 c 0,81,82
 320.306640625 473.925903706 320.306640625 473.925903706 314.654296875 487.1171875 c 0,83,84
 304.972005814 509.707661638 304.972005814 509.707661638 283.34375 521.380859375 c 1,85,-1
 309.46484375 569.78125 l 1,86,87
 347.971850305 548.99966688 347.971850305 548.99966688 365.20703125 508.782226562 c 0,88,89
 375.306640625 485.217933794 375.306640625 485.217933794 375.306640625 459.225585938 c 0,90,91
 375.306640625 442.38160016 375.306640625 442.38160016 370.936523438 426.348632812 c 0,92,93
 360.38473776 387.637672514 360.38473776 387.637672514 329.329101562 362.228515625 c 0,94,95
 298.273860895 336.819682352 298.273860895 336.819682352 258.239257812 334.142578125 c 5,74,-1
-15 524 m 1,0,-1
 -15 579 l 1,1,-1
 528 579 l 1,2,-1
 528 524 l 1,3,-1
 -15 524 l 1,0,-1
47 243 m 5,8,-1
 98 264 l 5,9,10
 150.000488282 132 150.000488282 132 235 74 c 4,11,12
 275.000488282 45.9995117188 275.000488282 45.9995117188 319 46 c 4,13,14
 361 46 361 46 390 72 c 132,-1,15
 418.999511718 97.9995117188 418.999511718 97.9995117188 419 136 c 4,16,17
 419 185.999511718 419 185.999511718 377.5 217.5 c 132,-1,18
 335.999511718 249 335.999511718 249 276 249 c 4,19,20
 246 249 246 249 210 236 c 5,21,-1
 185 236 l 5,22,-1
 121 300 l 6,23,24
 95.999511718 322.000488282 95.999511718 322.000488282 96 354 c 4,25,26
 96 382.999511718 96 382.999511718 117 404 c 132,-1,27
 138 425 138 425 167 425 c 6,28,-1
 439 425 l 5,29,-1
 439 370 l 5,30,-1
 167 370 l 6,31,32
 159.999511718 370 159.999511718 370 155.5 365 c 132,-1,33
 151 360.000488282 151 360.000488282 151 354 c 132,-1,34
 151 348 151 348 159 340 c 6,35,-1
 205 294 l 5,36,37
 242.999511718 304.000488282 242.999511718 304.000488282 276 304 c 4,38,39
 352.999511718 304 352.999511718 304 413.5 259 c 132,-1,40
 473.999511718 214 473.999511718 214 474 136 c 4,41,42
 474 74.0004882812 474 74.0004882812 428 32.5 c 132,-1,43
 381.999511718 -9.00048828125 381.999511718 -9.00048828125 319 -9 c 4,44,45
 257.999511718 -9 257.999511718 -9 204 28 c 4,46,47
 105 94 105 94 47 243 c 5,8,-1
-12.6953125 591.796875 m 1,0,-1
 -12.6953125 650.390625 l 1,1,-1
 628.90625 650.390625 l 1,2,-1
 628.90625 591.796875 l 1,3,-1
 490.234375 591.796875 l 1,4,5
 509.765625 569.3359375 509.765625 569.3359375 519.53125 541.9921875 c 128,-1,6
 529.296875 514.6484375 529.296875 514.6484375 529.296875 487.3046875 c 0,7,8
 529.296875 444.3359375 529.296875 444.3359375 511.71875 409.66796875 c 128,-1,9
 494.140625 375 494.140625 375 463.8671875 357.421875 c 1,10,11
 505.859375 343.75 505.859375 343.75 530.76171875 300.78125 c 128,-1,12
 555.6640625 257.8125 555.6640625 257.8125 555.6640625 201.171875 c 0,13,14
 555.6640625 125.9765625 555.6640625 125.9765625 503.90625 72.75390625 c 128,-1,15
 452.1484375 19.53125 452.1484375 19.53125 379.8828125 19.53125 c 0,16,17
 279.296875 19.53125 279.296875 19.53125 186.03515625 125.48828125 c 128,-1,18
 92.7734375 231.4453125 92.7734375 231.4453125 22.4609375 422.8515625 c 1,19,-1
 75.1953125 446.2890625 l 1,20,21
 137.6953125 274.4140625 137.6953125 274.4140625 217.7734375 179.6875 c 128,-1,22
 297.8515625 84.9609375 297.8515625 84.9609375 379.8828125 84.9609375 c 0,23,24
 424.8046875 84.9609375 424.8046875 84.9609375 457.51953125 119.140625 c 128,-1,25
 490.234375 153.3203125 490.234375 153.3203125 490.234375 201.171875 c 0,26,27
 490.234375 254.8828125 490.234375 254.8828125 459.47265625 293.45703125 c 128,-1,28
 428.7109375 332.03125 428.7109375 332.03125 385.7421875 332.03125 c 2,29,-1
 255.859375 332.03125 l 1,30,-1
 230.46875 389.6484375 l 1,31,-1
 373.046875 389.6484375 l 2,32,33
 411.1328125 389.6484375 411.1328125 389.6484375 437.5 418.45703125 c 128,-1,34
 463.8671875 447.265625 463.8671875 447.265625 463.8671875 487.3046875 c 0,35,36
 463.8671875 514.6484375 463.8671875 514.6484375 448.2421875 541.9921875 c 128,-1,37
 432.6171875 569.3359375 432.6171875 569.3359375 405.2734375 591.796875 c 1,38,-1
 -12.6953125 591.796875 l 1,0,-1
EndSplineSet
Fore
SplineSet
-15 524 m 1
 -15 579 l 1
 516 579 l 1
 516 524 l 1
 359 524 l 1
 373 502 382 476 382 447 c 0
 382 405 364 368 335 342 c 1
 407 314 458 249 458 167 c 0
 458 73 383 -2 288 -2 c 0
 143 -2 66 134 35 228 c 1
 87 242 l 1
 117 150 186 48 288 48 c 0
 349 48 403 97 403 167 c 0
 403 250 337 307 255 307 c 2
 208 307 l 1
 208 357 l 1
 253 357 l 1
 292 364 327 398 327 447 c 0
 327 482 309 509 287 524 c 1
 -15 524 l 1
EndSplineSet
Validated: 1
Layer: 2
SplineSet
206 326 m 0
 237.578225306 334.543982383 271.430451549 334.57598735 303 326 c 0
 333.547098161 317.701765143 361.935994367 301.336376507 384.048214781 278.686086969 c 0
 406.160435195 256.035797431 421.891816706 227.059233806 428 196 c 0
 436.077779291 154.925653742 426.43946129 110.347800806 400.71702957 77.3219178472 c 0
 374.994597851 44.2960348885 333.832520938 24.2221987299 291.989257812 23 c 0
 260.674789769 22.0853365581 229.488051285 31.079295302 202.150712502 46.3797013844 c 0
 174.813373719 61.6801074668 151.123032824 82.9854778657 131.005 107 c 0
 99.5912730162 144.497982461 76.2741133713 188.528262434 61 235 c 1024
256 332 m 0
 281.018964559 335.910196125 304.650355099 348.219421694 322.194569932 366.479726928 c 0
 339.738784765 384.740032162 351.093289221 408.844697303 354 434 c 0
 356.924111198 459.305889677 351.278427722 485.525296819 338.198382807 507.385097909 c 0
 325.118337893 529.244898999 304.682203999 546.614282531 281 556 c 1024
EndSplineSet
Layer: 4
SplineSet
208 307 m 5
 208 357 l 5
 208 357 236 357 255 357 c 5
 367 357 458.282226562 276.896484375 458.282226562 167.232421875 c 4
 458.282226562 73.4296875 382.724609375 -2.064453125 287.627929688 -2.064453125 c 4
 142.336914062 -2.064453125 65.6748046875 133.452148438 34.6513671875 227.842773438 c 5
 87.3486328125 242.157226562 l 5
 117.657226562 149.942382812 186.012695312 47.935546875 287.627929688 47.935546875 c 4
 348.369140625 47.935546875 403.282226562 97.1240234375 403.282226562 167.232421875 c 4
 403.282226562 250.271484375 337 307 255 307 c 5
 208 307 l 5
260.659179688 307.361328125 m 5
 251.340820312 356.638671875 l 5
 290.703125 362.790039062 327.25390625 397.614257812 327.25390625 447.15625 c 4
 327.25390625 490.540039062 299.629882812 521.344726562 270.010742188 533.083007812 c 5
 291.989257812 578.916992188 l 5
 341.500976562 559.294921875 382.25390625 510.607421875 382.25390625 447.15625 c 4
 382.25390625 374.771484375 328.1171875 317.904296875 260.659179688 307.361328125 c 5
-15 524 m 5
 -15 579 l 5
 162 579 339 579 516 579 c 5
 516 524 l 5
 -15 524 l 5
EndSplineSet
EndChar

StartChar: uudeva
Encoding: 268 2314 58
Width: 729
VWidth: 1000
GlyphClass: 2
Flags: HMW
AnchorPoint: "DVAnchor3" 320 577 basechar 0
LayerCount: 5
Back
SplineSet
-12.6953125 591.796875 m 1,0,-1
 -12.6953125 650.390625 l 1,1,-1
 913.0859375 650.390625 l 1,2,-1
 913.0859375 591.796875 l 1,3,-1
 483.3984375 591.796875 l 1,4,5
 504.8828125 567.3828125 504.8828125 567.3828125 515.625 540.52734375 c 128,-1,6
 526.3671875 513.671875 526.3671875 513.671875 526.3671875 487.3046875 c 0,7,8
 526.3671875 443.359375 526.3671875 443.359375 506.8359375 409.66796875 c 128,-1,9
 487.3046875 375.9765625 487.3046875 375.9765625 455.078125 364.2578125 c 1,10,11
 486.328125 349.609375 486.328125 349.609375 505.859375 330.078125 c 128,-1,12
 525.390625 310.546875 525.390625 310.546875 529.296875 291.015625 c 1,13,14
 551.7578125 344.7265625 551.7578125 344.7265625 595.21484375 376.953125 c 128,-1,15
 638.671875 409.1796875 638.671875 409.1796875 689.453125 409.1796875 c 0,16,17
 759.765625 409.1796875 759.765625 409.1796875 809.08203125 363.76953125 c 128,-1,18
 858.3984375 318.359375 858.3984375 318.359375 858.3984375 253.90625 c 0,19,20
 858.3984375 188.4765625 858.3984375 188.4765625 829.1015625 131.8359375 c 128,-1,21
 799.8046875 75.1953125 799.8046875 75.1953125 748.046875 39.0625 c 1,22,-1
 705.078125 86.9140625 l 1,23,24
 746.09375 110.3515625 746.09375 110.3515625 769.53125 155.2734375 c 128,-1,25
 792.96875 200.1953125 792.96875 200.1953125 792.96875 253.90625 c 0,26,27
 792.96875 293.9453125 792.96875 293.9453125 762.6953125 322.75390625 c 128,-1,28
 732.421875 351.5625 732.421875 351.5625 689.453125 351.5625 c 0,29,30
 640.625 351.5625 640.625 351.5625 600.5859375 297.8515625 c 128,-1,31
 560.546875 244.140625 560.546875 244.140625 545.8984375 162.109375 c 1,32,33
 536.1328125 100.5859375 536.1328125 100.5859375 485.83984375 60.05859375 c 128,-1,34
 435.546875 19.53125 435.546875 19.53125 371.09375 19.53125 c 0,35,36
 267.578125 19.53125 267.578125 19.53125 171.38671875 135.25390625 c 128,-1,37
 75.1953125 250.9765625 75.1953125 250.9765625 26.3671875 435.546875 c 1,38,-1
 84.9609375 461.9140625 l 1,39,40
 128.90625 294.921875 128.90625 294.921875 208.984375 189.94140625 c 128,-1,41
 289.0625 84.9609375 289.0625 84.9609375 371.09375 84.9609375 c 0,42,43
 418.9453125 84.9609375 418.9453125 84.9609375 453.125 123.046875 c 128,-1,44
 487.3046875 161.1328125 487.3046875 161.1328125 487.3046875 214.84375 c 0,45,46
 487.3046875 262.6953125 487.3046875 262.6953125 453.125 297.36328125 c 128,-1,47
 418.9453125 332.03125 418.9453125 332.03125 371.09375 332.03125 c 2,48,-1
 253.90625 332.03125 l 1,49,-1
 227.5390625 389.6484375 l 1,50,-1
 357.421875 389.6484375 l 2,51,52
 400.390625 389.6484375 400.390625 389.6484375 430.17578125 418.45703125 c 128,-1,53
 459.9609375 447.265625 459.9609375 447.265625 459.9609375 487.3046875 c 0,54,55
 459.9609375 510.7421875 459.9609375 510.7421875 443.359375 538.0859375 c 128,-1,56
 426.7578125 565.4296875 426.7578125 565.4296875 396.484375 591.796875 c 1,57,-1
 -12.6953125 591.796875 l 1,0,-1
EndSplineSet
Fore
SplineSet
208 307 m 1
 208 357 l 1
 253 357 l 1
 292 364 327 398 327 447 c 0
 327 482 309 509 287 524 c 1
 -15 524 l 1
 -15 579 l 1
 749 579 l 1
 749 524 l 1
 359 524 l 1
 373 502 382 476 382 447 c 0
 382 405 364 368 335 342 c 1
 377 326 412 297 434 260 c 1
 458 294 496 322 550 322 c 0
 639 322 699 246 699 167 c 0
 699 79 630 8 547 -3 c 2
 539 -4 l 1
 539 47 l 1
 593 54 644 103 644 167 c 0
 644 226 600 272 550 272 c 0
 507 272 476 240 463 199 c 0
 460 189 459 178 458 167 c 0
 458 73 383 -2 288 -2 c 0
 143 -2 66 134 35 228 c 1
 87 242 l 1
 117 150 186 48 288 48 c 0
 349 48 403 97 403 167 c 0
 403 250 337 307 255 307 c 2
 208 307 l 1
EndSplineSet
Validated: 1
Layer: 2
SplineSet
285 23 m 0
 312.95729101 18.1631169425 342.687451252 25.5507119682 365.489732974 42.4344765544 c 0
 388.292014697 59.3182411406 403.48684794 84.9346753143 412 112 c 0
 421.759829748 143.028808031 423.917680673 176.074475889 434 207 c 0
 442.540105067 233.19508633 457.482436865 257.828681417 479.405388684 274.517004459 c 0
 501.328340503 291.205327501 529.549746457 299.366331088 557 297 c 0
 588.987900812 294.242504008 619.281874448 277.444539063 639.551973895 252.545690678 c 0
 659.822073342 227.646842294 670.131377584 195.086594822 669 163 c 0
 667.784970206 128.54097477 653.525252711 94.790960251 630.09172763 69.4972729067 c 0
 606.65820255 44.2035855624 574.1888023 27.4750993789 540 23 c 1024
EndSplineSet
Layer: 3
SplineSet
581 122 m 5
 581 177 l 5
 637.346679688 177 673 218.560546875 673 273 c 4
 673 331.8828125 627.20703125 381 569 381 c 4
 508.771484375 381 461.764280013 332.923805746 435 292 c 4
 433.234574598 289.30058398 396.159179688 296.102539062 396 320 c 5
 395.904296875 334.33203125 433.080760015 371.461829779 432 369.809570312 c 5
 463.569335938 403.577148438 511.415039062 436 568 436 c 4
 656.86328125 436 728 361.80078125 728 273 c 4
 728 188.65625 668.849609375 122 581 122 c 5
EndSplineSet
Layer: 4
SplineSet
538.76171875 46.9775390625 m 5
 546.599609375 46.9775390625 l 5
 546.599609375 -2.5126953125 l 5
 538.76171875 -3.53515625 l 5
 538.76171875 46.9775390625 l 5
403.431640625 167.232421875 m 5
 403.99609375 182.025390625 405.159179688 197.526367188 410.314453125 213.336914062 c 4
 427.249023438 265.280273438 473.331054688 321.633789062 550.3046875 321.633789062 c 4
 638.806640625 321.633789062 699.264648438 246.2578125 699.264648438 167.009765625 c 4
 699.264648438 78.6591796875 629.803710938 8.37890625 546.599609375 -2.5126953125 c 5
 538.76171875 46.9775390625 l 5
 593.239257812 54.1083984375 644.264648438 102.553710938 644.264648438 167.009765625 c 4
 644.264648438 226.46484375 599.994140625 271.633789062 550.3046875 271.633789062 c 4
 507.604492188 271.633789062 476.401367188 240.090820312 463.046875 199.12890625 c 4
 459.807617188 189.192382812 458.79296875 178.494140625 458.282226562 167.232421875 c 5
 403.431640625 167.232421875 l 5
-15 524 m 5
 -15 579 l 5
 749 579 l 5
 749 524 l 5
 -15 524 l 5
260.659179688 307.361328125 m 5
 251.340820312 356.638671875 l 5
 290.703125 362.790039062 327.25390625 397.614257812 327.25390625 447.15625 c 4
 327.25390625 490.540039062 299.629882812 521.344726562 270.010742188 533.083007812 c 5
 291.989257812 578.916992188 l 5
 341.500976562 559.294921875 382.25390625 510.607421875 382.25390625 447.15625 c 4
 382.25390625 374.771484375 328.1171875 317.904296875 260.659179688 307.361328125 c 5
208 307 m 5
 208 357 l 5
 208 357 236 357 255 357 c 4
 367 357 458.282226562 276.896484375 458.282226562 167.232421875 c 4
 458.282226562 73.4296875 382.724609375 -2.064453125 287.627929688 -2.064453125 c 4
 142.336914062 -2.064453125 65.6748046875 133.452148438 34.6513671875 227.842773438 c 5
 87.3486328125 242.157226562 l 5
 117.657226562 149.942382812 186.012695312 47.935546875 287.627929688 47.935546875 c 4
 348.369140625 47.935546875 403.282226562 97.1240234375 403.282226562 167.232421875 c 4
 403.282226562 250.271484375 337 307 255 307 c 4
 208 307 l 5
EndSplineSet
EndChar

StartChar: rvocalicdeva
Encoding: 269 2315 59
Width: 730
VWidth: 1000
GlyphClass: 2
Flags: HMW
AnchorPoint: "DVAnchor3" 352 579 basechar 0
AnchorPoint: "DVAnchor0" 410 -6 basechar 0
LayerCount: 5
Back
SplineSet
507.685717987 331.910932422 m 5,0,-1
 464.314282013 298.089067578 l 5,1,2
 455.762178358 309.055849505 455.762178358 309.055849505 449.806114923 321.655753195 c 132,-1,3
 443.850051489 334.255656885 443.850051489 334.255656885 440.776782894 347.870008362 c 132,-1,4
 437.7035143 361.48435984 437.7035143 361.48435984 437.7035143 375.396989222 c 4,5,6
 437.7035143 376.96416145 437.7035143 376.96416145 437.74392441 378.533985312 c 4,7,8
 438.312957755 400.596091152 438.312957755 400.596091152 446.586504932 421.242539625 c 132,-1,9
 454.86005211 441.888988097 454.86005211 441.888988097 470.033580832 457.910105912 c 4,10,11
 501.869212568 491.52406718 501.869212568 491.52406718 546.188195047 491.52406718 c 4,12,13
 547.457651062 491.52406718 547.457651062 491.52406718 548.731511462 491.490269023 c 4,14,15
 584.561875771 490.53682902 584.561875771 490.53682902 610.741159172 466.690746365 c 132,-1,16
 636.73623274 443.012456036 636.73623274 443.012456036 641.277978913 407.487386763 c 4,17,18
 641.681765082 404.329013069 641.681765082 404.329013069 641.880851932 401.157217325 c 132,-1,19
 642.079938782 397.985421581 642.079938782 397.985421581 642.079938782 394.812525609 c 4,20,21
 642.079938782 381.858700733 642.079938782 381.858700733 638.886346907 369.06779539 c 132,-1,22
 635.692755033 356.276890048 635.692755033 356.276890048 630.073537398 345.107103441 c 132,-1,23
 624.454319764 333.937316834 624.454319764 333.937316834 616.591599927 323.969063074 c 4,24,25
 597.289537926 299.498160369 597.289537926 299.498160369 568.660358213 286.094457517 c 4,26,27
 552.633656977 278.591024195 552.633656977 278.591024195 533.050858479 274.173947147 c 5,28,-1
 520.949141521 327.826052853 l 5,29,30
 534.71419033 330.93088392 534.71419033 330.93088392 545.339641787 335.905542483 c 4,31,32
 562.172744867 343.786519654 562.172744867 343.786519654 573.408400073 358.030936926 c 4,33,34
 579.881954131 366.238024412 579.881954131 366.238024412 583.480946456 375.939909594 c 132,-1,35
 587.079938782 385.641794775 587.079938782 385.641794775 587.079938782 394.812525609 c 4,36,37
 587.079938782 396.261994589 587.079938782 396.261994589 586.990476999 397.687267127 c 132,-1,38
 586.901015215 399.112539665 586.901015215 399.112539665 586.722021087 400.512613237 c 4,39,40
 584.745443783 415.973196673 584.745443783 415.973196673 573.704431791 426.030190233 c 132,-1,41
 562.648842021 436.100462342 562.648842021 436.100462342 547.268488538 436.509730977 c 4,42,43
 546.729675192 436.52406871 546.729675192 436.52406871 546.188195047 436.52406718 c 4,44,45
 539.908716669 436.52406718 539.908716669 436.52406718 533.385552158 434.559140378 c 132,-1,46
 526.862387648 432.594213576 526.862387648 432.594213576 520.810390046 428.871879617 c 132,-1,47
 514.758392444 425.149545658 514.758392444 425.149545658 509.966419168 420.089894088 c 4,48,49
 502.147418153 411.834125852 502.147418153 411.834125852 497.591238165 400.473272642 c 132,-1,50
 493.035058176 389.112419433 493.035058176 389.112419433 492.7256393 377.115878204 c 4,51,52
 492.70350776 376.257811808 492.70350776 376.257811808 492.7035143 375.396989222 c 4,53,54
 492.7035143 351.123346964 492.7035143 351.123346964 507.685717987 331.910932422 c 5,0,-1
529.397460938 288.741210938 m 1,26,27
 551.7578125 290.05078125 551.7578125 290.05078125 572.041015625 299.018554688 c 0,28,29
 577.53515625 301.447265625 577.53515625 301.447265625 582.780273438 304.401367188 c 0,30,31
 616.733398438 323.52734375 616.733398438 323.52734375 632.208007812 356.674804688 c 0,32,33
 650.288085938 395.40234375 650.288085938 395.40234375 635.06640625 433.024414062 c 0,34,35
 634.552734375 434.290039062 634.552734375 434.290039062 634.00390625 435.533203125 c 0,36,37
 617.07421875 473.826171875 617.07421875 473.826171875 576.181640625 486.067382812 c 0,38,39
 540.569335938 496.725585938 540.569335938 496.725585938 505 481 c 0,40,41
 502.564453125 479.922851562 502.564453125 479.922851562 500.216796875 478.7421875 c 0,42,43
 477.565429688 467.35546875 477.565429688 467.35546875 462.327148438 447.287109375 c 128,-1,45
 446.96484375 427.057617188 446.96484375 427.057617188 442.3046875 402.021484375 c 0,46,47
 437.979492188 378.767578125 437.979492188 378.767578125 443.690429688 353.958007812 c 0,48,49
 447.234375 338.565429688 447.234375 338.565429688 458.0234375 314.16015625 c 2,50,-1
 536.063476562 137.641601562 l 1,51,-1
 586.3671875 159.880859375 l 1,52,-1
 529.397460938 288.741210938 l 1,26,27
503.62890625 347.325195312 m 0,53,54
 499.1015625 358.419921875 499.1015625 358.419921875 497.2890625 366.295898438 c 0,55,56
 494.143554688 379.955078125 494.143554688 379.955078125 496.377929688 391.959960938 c 0,57,58
 498.650390625 404.173828125 498.650390625 404.173828125 506.129882812 414.025390625 c 128,-1,60
 513.659179688 423.94140625 513.659179688 423.94140625 524.918945312 429.602539062 c 0,61,62
 526.0625 430.176757812 526.0625 430.176757812 527.240234375 430.696289062 c 0,63,64
 544.247070312 438.215820312 544.247070312 438.215820312 560.411132812 433.375976562 c 0,65,66
 577.01953125 428.405273438 577.01953125 428.405273438 583.700195312 413.293945312 c 2,67,68
 584.081054688 412.39453125 l 2,69,70
 590.322265625 396.970703125 590.322265625 396.970703125 582.370117188 379.940429688 c 128,-1,72
 574.362304688 362.78515625 574.362304688 362.78515625 555.786132812 352.3203125 c 0,73,74
 552.869140625 350.677734375 552.869140625 350.677734375 549.801757812 349.321289062 c 0,75,76
 530.479492188 340.779296875 530.479492188 340.779296875 511.935546875 344.799804688 c 0,77,78
 507.703125 345.71875 507.703125 345.71875 503.62890625 347.325195312 c 0,53,54
65 416 m 1,0,1
 65 471 l 1,9,-1
 134 471 134 471 170 459 c 0,7,8
 215 445 215 445 252.5 407.5 c 128,-1,9
 290 370 290 370 305 340 c 2,10,-1
 320 310 l 1,5,6
 270 288 l 1,4,-1
 268 295 268 295 255.5 315.5 c 128,-1,5
 243 336 243 336 214 366.5 c 128,-1,6
 185 397 185 397 154 407 c 0,2,3
 126 416 126 416 65 416 c 1,0,1
140.1953125 481.4453125 m 0,0,1
 168.515625 481.4453125 168.515625 481.4453125 198.7890625 466.30859375 c 128,-1,2
 229.0625 451.171875 229.0625 451.171875 257.3828125 422.8515625 c 2,3,-1
 360.8984375 318.359375 l 1,4,-1
 360.8984375 591.796875 l 1,5,-1
 -72.6953125 591.796875 l 1,6,-1
 -72.6953125 650.390625 l 1,7,-1
 797.421875 650.390625 l 1,8,-1
 797.421875 591.796875 l 1,9,-1
 426.328125 591.796875 l 1,10,-1
 426.328125 357.421875 l 1,11,12
 440.9765625 351.5625 440.9765625 351.5625 458.5546875 348.14453125 c 128,-1,13
 476.1328125 344.7265625 476.1328125 344.7265625 497.6171875 344.7265625 c 0,14,15
 515.1953125 344.7265625 515.1953125 344.7265625 526.9140625 346.6796875 c 128,-1,16
 538.6328125 348.6328125 538.6328125 348.6328125 543.515625 351.5625 c 1,17,18
 534.7265625 364.2578125 534.7265625 364.2578125 529.35546875 378.90625 c 128,-1,19
 523.984375 393.5546875 523.984375 393.5546875 523.984375 409.1796875 c 0,20,21
 523.984375 431.640625 523.984375 431.640625 544.4921875 446.77734375 c 128,-1,22
 565 461.9140625 565 461.9140625 595.2734375 461.9140625 c 128,-1,23
 625.546875 461.9140625 625.546875 461.9140625 646.0546875 442.87109375 c 128,-1,24
 666.5625 423.828125 666.5625 423.828125 666.5625 396.484375 c 0,25,26
 666.5625 372.0703125 666.5625 372.0703125 656.30859375 352.5390625 c 128,-1,27
 646.0546875 333.0078125 646.0546875 333.0078125 627.5 325.1953125 c 1,28,29
 684.140625 269.53125 684.140625 269.53125 714.4140625 213.37890625 c 128,-1,30
 744.6875 157.2265625 744.6875 157.2265625 744.6875 110.3515625 c 0,31,32
 744.6875 59.5703125 744.6875 59.5703125 708.5546875 23.4375 c 128,-1,33
 672.421875 -12.6953125 672.421875 -12.6953125 621.640625 -12.6953125 c 0,34,35
 580.625 -12.6953125 580.625 -12.6953125 548.3984375 14.6484375 c 128,-1,36
 516.171875 41.9921875 516.171875 41.9921875 504.453125 84.9609375 c 1,37,-1
 563.046875 110.3515625 l 1,38,39
 566.953125 84.9609375 566.953125 84.9609375 583.5546875 68.359375 c 128,-1,40
 600.15625 51.7578125 600.15625 51.7578125 621.640625 51.7578125 c 0,41,42
 646.0546875 51.7578125 646.0546875 51.7578125 663.14453125 68.84765625 c 128,-1,43
 680.234375 85.9375 680.234375 85.9375 680.234375 110.3515625 c 0,44,45
 680.234375 153.3203125 680.234375 153.3203125 649.47265625 202.63671875 c 128,-1,46
 618.7109375 251.953125 618.7109375 251.953125 563.046875 298.828125 c 1,47,48
 548.3984375 292.96875 548.3984375 292.96875 532.28515625 289.55078125 c 128,-1,49
 516.171875 286.1328125 516.171875 286.1328125 497.6171875 286.1328125 c 0,50,51
 473.203125 286.1328125 473.203125 286.1328125 455.625 289.55078125 c 128,-1,52
 438.046875 292.96875 438.046875 292.96875 426.328125 298.828125 c 1,53,-1
 426.328125 0 l 1,54,-1
 360.8984375 0 l 1,55,-1
 360.8984375 247.0703125 l 1,56,-1
 94.296875 124.0234375 l 1,57,-1
 56.2109375 175.78125 l 1,58,-1
 309.140625 292.96875 l 1,59,-1
 237.8515625 364.2578125 l 1,60,61
 207.578125 392.578125 207.578125 392.578125 182.1875 407.71484375 c 128,-1,62
 156.796875 422.8515625 156.796875 422.8515625 140.1953125 422.8515625 c 0,63,64
 112.8515625 422.8515625 112.8515625 422.8515625 74.765625 405.76171875 c 128,-1,65
 36.6796875 388.671875 36.6796875 388.671875 -9.21875 357.421875 c 1,66,-1
 -48.28125 403.3203125 l 1,67,68
 6.40625 440.4296875 6.40625 440.4296875 54.2578125 460.9375 c 128,-1,69
 102.109375 481.4453125 102.109375 481.4453125 140.1953125 481.4453125 c 0,0,1
EndSplineSet
Fore
SplineSet
545 277 m 1
 594 233 675 201 675 111 c 0
 675 48 625 -3 564 -7 c 1
 560 48 l 1
 592 50 620 77 620 111 c 0
 620 153 587 176 560 195 c 0
 535 213 507 233 485 259 c 1
 378 225 l 1
 378 82 l 2
 378 63 393 48 412 48 c 0
 425 48 435 53 441 63 c 1
 487 32 l 1
 469 6 444 -7 412 -7 c 0
 363 -7 323 33 323 82 c 2
 323 209 l 1
 108 148 l 2
 93 201 l 1
 274 252 l 1
 264 273 218 356 154 377 c 0
 129 385 97 386 65 386 c 1
 65 441 l 1
 101 441 137 439 170 429 c 0
 264 401 313 295 323 271 c 1
 323 524 l 1
 -15 524 l 1
 -15 579 l 1
 745 579 l 1
 745 524 l 1
 378 524 l 1
 378 283 l 1
 456 307 l 1
 443 327 438 351 438 375 c 0
 438 436 484 492 546 492 c 0
 600 492 642 449 642 395 c 0
 642 334 598 293 545 277 c 1
511 325 m 1
 547 337 587 351 587 395 c 0
 587 419 569 437 546 437 c 0
 516 437 493 406 493 375 c 0
 493 357 497 340 511 325 c 1
EndSplineSet
Validated: 1
Layer: 2
SplineSet
486 315 m 0
 472.166061877 332.739937295 464.654742698 355.336117343 465.234781855 377.824931758 c 0
 465.814821013 400.313746173 474.530643932 422.666530006 490 439 c 0
 504.910884792 454.743802669 526.323535774 464.576807089 548 464 c 0
 564.206331003 463.568752242 580.237492048 457.277594331 592.222795481 446.360468299 c 0
 604.208098915 435.443342266 611.944081807 420.08117967 614 404 c 0
 616.856159423 381.659416118 608.948286866 358.683456346 595 341 c 0
 584.915352 328.214814665 571.747493358 317.904529601 557 311 c 0
 547.435816145 306.522209169 537.301694965 303.323640331 527 301 c 1024
466 387 m 0
 465.328125 351.412109375 477.1875 315.947265625 498.014648438 287.08203125 c 0
 518.840820312 258.215820312 548.168945312 236.875 577 216 c 0
 590.184570312 206.454101562 603.274414062 196.65625 614.749023438 185.111328125 c 0
 626.223632812 173.56640625 636.005859375 160.1328125 642 145 c 0
 648.500976562 128.587890625 650.3671875 110.328125 647 93 c 0
 643.172851562 73.30078125 632.655273438 54.9677734375 617.595703125 41.705078125 c 0
 602.53515625 28.443359375 583.0234375 20.3291015625 563 19 c 1024
79 152 m 0
 79 152 391 238 591 305 c 1048
EndSplineSet
Layer: 4
SplineSet
-15 579 m 5
 745 579 l 5
 745 524 l 5
 -15 524 l 5
 -15 579 l 5
65 386 m 5
 65 441 l 5
 101 441 136.673828125 438.966796875 170 429 c 4
 277 397 325 266 325 266 c 5
 276 247 l 5
 275 250 225.9765625 352.927734375 154 377 c 4
 129.106445312 385.325195312 97 386 65 386 c 5
108.024414062 147.528320312 m 6
 93.4072265625 200.55078125 l 5
 93.4072265625 200.55078125 346.399212099 269.260742188 545.339641787 335.905273438 c 5
 562.810546875 283.75390625 l 5
 361.573242188 216.33984375 108.264648438 147.594726562 108.024414062 147.528320312 c 6
519.13671875 304.612304688 m 5
 557.779046989 251.053227689 639.027069936 225.644440859 666.388671875 156.567382812 c 4
 672.575180304 140.949255845 675.402757331 125.511773155 675.402757331 110.720982524 c 4
 675.402757331 48.0888669535 624.700671227 -2.94722977282 563.642578125 -7 c 5
 560 47.87890625 l 5
 592.304323327 50.0234311989 620.193431798 77.1629684721 620.193431798 111.291443164 c 4
 620.193431798 153.727263451 586.471717095 175.778476696 559.693359375 195.165039062 c 4
 530.932617188 215.989257812 498.764648438 238.84765625 474.534179688 272.430664062 c 5
 519.13671875 304.612304688 l 5
546.188195047 436.509730977 m 4
 516.110652221 436.509730977 493.475660605 407.052917333 492.7035143 377.115878204 c 4
 492.7035143 376.54383394 492.7035143 375.970805767 492.7035143 375.396989222 c 4
 492.7035143 355 499 335 517 319 c 5
 462.314453125 298.088867188 l 5
 445.162109375 320.083984375 437.7035143 347.461249667 437.7035143 375.396989222 c 4
 437.7035143 436.006215407 484.381484088 491.52406718 546.188195047 491.52406718 c 4
 599.717004614 491.52406718 642.079938782 448.691912947 642.079938782 394.812525609 c 4
 642.079938782 328.360005165 589.056221013 286.806462435 533.050858479 274.173947147 c 5
 520.949141521 327.826052853 l 5
 553.558369773 335.18135877 587.079938782 357.28405316 587.079938782 394.812525609 c 4
 587.079938782 418.149615369 569.764091617 435.911126739 547.268488538 436.509730977 c 4
 546.909279641 436.509730977 546.54917099 436.509730977 546.188195047 436.509730977 c 4
412 -7 m 4
 363.05718714 -7 323 33.0585666803 323 82 c 6
 323 562 l 5
 378 562 l 5
 378 82 l 6
 378 63.4899118431 393.490457776 48 412 48 c 4
 425.333007812 48 435 53 441 63 c 5
 487 32 l 5
 469 6 444 -7 412 -7 c 4
EndSplineSet
EndChar

StartChar: lvocalicdeva
Encoding: 270 2316 60
Width: 708
VWidth: 1000
GlyphClass: 2
Flags: HMW
LayerCount: 5
Back
SplineSet
265.140625 0 m 1,0,1
 174.3203125 39.0625 174.3203125 39.0625 119.14453125 109.86328125 c 128,-1,2
 63.96875 180.6640625 63.96875 180.6640625 63.96875 259.765625 c 0,3,4
 63.96875 337.890625 63.96875 337.890625 111.33203125 393.06640625 c 128,-1,5
 158.6953125 448.2421875 158.6953125 448.2421875 226.078125 448.2421875 c 0,6,7
 261.234375 448.2421875 261.234375 448.2421875 295.90234375 427.734375 c 128,-1,8
 330.5703125 407.2265625 330.5703125 407.2265625 356.9375 371.09375 c 1,9,10
 376.46875 400.390625 376.46875 400.390625 404.7890625 420.41015625 c 128,-1,11
 433.109375 440.4296875 433.109375 440.4296875 467.2890625 448.2421875 c 1,12,-1
 467.2890625 591.796875 l 1,13,-1
 8.3046875 591.796875 l 1,14,-1
 8.3046875 650.390625 l 1,15,-1
 720.21875 650.390625 l 1,16,-1
 720.21875 591.796875 l 1,17,-1
 531.7421875 591.796875 l 1,18,-1
 531.7421875 448.2421875 l 1,19,20
 590.3359375 430.6640625 590.3359375 430.6640625 625.98046875 371.58203125 c 128,-1,21
 661.625 312.5 661.625 312.5 661.625 234.375 c 0,22,23
 661.625 164.0625 661.625 164.0625 621.5859375 109.375 c 128,-1,24
 581.546875 54.6875 581.546875 54.6875 519.046875 39.0625 c 0,25,26
 476.078125 28.3203125 476.078125 28.3203125 448.734375 -0.9765625 c 128,-1,27
 421.390625 -30.2734375 421.390625 -30.2734375 421.390625 -65.4296875 c 128,-1,28
 421.390625 -100.5859375 421.390625 -100.5859375 450.19921875 -125 c 128,-1,29
 479.0078125 -149.4140625 479.0078125 -149.4140625 519.046875 -149.4140625 c 0,30,31
 557.1328125 -149.4140625 557.1328125 -149.4140625 588.87109375 -141.11328125 c 128,-1,32
 620.609375 -132.8125 620.609375 -132.8125 643.0703125 -117.1875 c 1,33,-1
 661.625 -175.78125 l 1,34,35
 635.2578125 -195.3125 635.2578125 -195.3125 598.63671875 -205.078125 c 128,-1,36
 562.015625 -214.84375 562.015625 -214.84375 519.046875 -214.84375 c 0,37,38
 451.6640625 -214.84375 451.6640625 -214.84375 404.30078125 -170.8984375 c 128,-1,39
 356.9375 -126.953125 356.9375 -126.953125 356.9375 -65.4296875 c 0,40,41
 356.9375 -7.8125 356.9375 -7.8125 395.51171875 36.62109375 c 128,-1,42
 434.0859375 81.0546875 434.0859375 81.0546875 494.6328125 90.8203125 c 0,43,44
 538.578125 98.6328125 538.578125 98.6328125 567.875 139.16015625 c 128,-1,45
 597.171875 179.6875 597.171875 179.6875 597.171875 234.375 c 0,46,47
 597.171875 296.875 597.171875 296.875 564.45703125 340.33203125 c 128,-1,48
 531.7421875 383.7890625 531.7421875 383.7890625 486.8203125 383.7890625 c 0,49,50
 449.7109375 383.7890625 449.7109375 383.7890625 415.53125 334.47265625 c 128,-1,51
 381.3515625 285.15625 381.3515625 285.15625 362.796875 208.0078125 c 1,52,-1
 298.34375 227.5390625 l 1,53,54
 303.2265625 250.9765625 303.2265625 250.9765625 311.52734375 273.92578125 c 128,-1,55
 319.828125 296.875 319.828125 296.875 330.5703125 318.359375 c 1,56,57
 312.015625 348.6328125 312.015625 348.6328125 284.18359375 366.2109375 c 128,-1,58
 256.3515625 383.7890625 256.3515625 383.7890625 226.078125 383.7890625 c 0,59,60
 186.0390625 383.7890625 186.0390625 383.7890625 157.71875 347.16796875 c 128,-1,61
 129.3984375 310.546875 129.3984375 310.546875 129.3984375 259.765625 c 0,62,63
 129.3984375 196.2890625 129.3984375 196.2890625 173.34375 139.6484375 c 128,-1,64
 217.2890625 83.0078125 217.2890625 83.0078125 291.5078125 51.7578125 c 1,65,-1
 265.140625 0 l 1,0,1
EndSplineSet
Fore
SplineSet
-15 579 m 1
 723 579 l 1
 723 524 l 1
 460 524 l 1
 460 423 l 1
 494 418 526 404 552 380 c 0
 584 350 602 307 602 263 c 0
 602 137 483 97 430 25 c 0
 416 6 407 -13 407 -39 c 0
 407 -99 461 -136 517 -136 c 0
 566 -136 611 -106 611 -57 c 0
 611 -50 611 -44 609 -38 c 1
 661 -22 l 1
 664 -33 666 -45 666 -57 c 0
 666 -139 596 -191 517 -191 c 0
 433 -191 352 -131 352 -39 c 0
 352 33 399 78 439 112 c 0
 484 150 547 190 547 263 c 0
 547 324 495 370 434 370 c 0
 366 370 312 318 312 249 c 0
 257 249 l 1
 257 285 267 318 284 345 c 1
 267 363 244 375 213 375 c 0
 140 375 95 312 95 239 c 0
 95 203 106 167 124 134 c 0
 153 81 198 37 251 7 c 1
 224 -41 l 1
 162 -6 109 45 75 108 c 0
 54 147 40 193 40 239 c 0
 40 321 81 382 138 411 c 0
 161 423 186 430 212 430 c 0
 258 430 294 412 321 386 c 1
 344 405 374 418 405 423 c 1
 405 524 l 1
 -15 524 l 1
 -15 579 l 1
EndSplineSet
Validated: 1
Layer: 2
SplineSet
311 342 m 4
 304.741210938 361.404296875 291.822265625 378.5859375 274.940429688 390.01953125 c 4
 258.059570312 401.454101562 237.362304688 407.052734375 217 406 c 4
 199.258789062 405.08203125 181.86328125 399.209960938 166.916992188 389.607421875 c 4
 151.970703125 380.004882812 139.478515625 366.75390625 130.168945312 351.624023438 c 4
 111.549804688 321.362304688 105.892578125 284.39453125 109 249 c 4
 113.78515625 194.498046875 137.268554688 143.032226562 167.33984375 97.326171875 c 4
 197.41015625 51.619140625 234.848632812 10.8798828125 277 -24 c 1028
290 227 m 4
 286.111328125 251.84765625 288.80078125 277.692382812 297.70703125 301.212890625 c 4
 306.61328125 324.733398438 321.7109375 345.861328125 341 362 c 4
 365.619140625 382.598632812 396.96484375 394.959960938 429 397 c 4
 468.010742188 399.484375 508.180664062 386.270507812 536.752929688 359.594726562 c 4
 565.325195312 332.91796875 580.866210938 292.984375 578 254 c 4
 575.470703125 219.598632812 559.3828125 187.188476562 537.251953125 160.729492188 c 4
 515.120117188 134.270507812 487.344726562 113.266601562 461 91 c 4
 443.250976562 75.9990234375 426.028320312 60.107421875 412.241210938 41.3994140625 c 4
 398.454101562 22.6923828125 388.3046875 1.0029296875 385 -22 c 4
 382.3515625 -40.4365234375 384.139648438 -59.5107421875 390.317382812 -77.08203125 c 4
 396.495117188 -94.654296875 406.984375 -110.640625 420.352539062 -123.610351562 c 4
 447.08984375 -149.55078125 484.748046875 -163.225585938 522 -163 c 4
 545.84375 -162.85546875 569.815429688 -157.0234375 590.375976562 -144.94921875 c 4
 610.936523438 -132.875 627.860351562 -114.248046875 636.48046875 -92.0166015625 c 4
 644.098632812 -72.369140625 645.0625 -50.1826171875 639 -30 c 1028
EndSplineSet
Layer: 4
SplineSet
294.41015625 333.544921875 m 5
 276.587856568 357.448638516 249.577579728 374.532159762 212.677348817 374.532159762 c 4
 139.593524431 374.532159762 95.155157876 312.455826421 95.155157876 239.301397047 c 4
 95.155157876 203.729059431 105.847403358 167.095953812 123.666015625 134.02734375 c 4
 152.196289062 81.0791015625 197.626953125 36.86328125 250.913085938 6.9658203125 c 5
 224 -41 l 5
 162.32421875 -6.39453125 109.247070312 44.83984375 75.2470703125 107.938476562 c 4
 53.998391887 147.373284427 40.1232557284 192.58597992 40.1232557284 238.969889986 c 4
 40.1232557284 321.339177188 80.9835000684 382.052731809 137.836914062 411.416015625 c 4
 160.834187417 423.294019609 186.564388468 429.575059615 212.456959851 429.575059615 c 4
 269.649298913 429.575059615 310.821141789 403.547230818 338.502929688 366.420898438 c 5
 294.41015625 333.544921875 l 5
434.229492188 369.79296875 m 4
 366.651663343 369.79296875 311.774740356 318.804665082 311.773098095 249.338869289 c 4
 311.615689566 249.338869289 256.758789062 249 256.758789062 249 c 5
 256.758789062 350.843524082 335.930899631 424.799804688 434.432617188 424.799804688 c 4
 476.999023438 424.799804688 519.686523438 409.416992188 551.520507812 379.696289062 c 4
 583.567382812 349.775390625 601.842773438 306.955078125 601.842773438 263.354492188 c 4
 601.842773438 137.311736171 483.657909277 97.3797996468 430.37890625 25.0849609375 c 4
 416.37809699 6.08764152903 407.319335938 -12.7056691592 407.319335938 -38.6005859375 c 4
 407.319335938 -98.5076120163 461.432896249 -135.501953125 517.081054688 -135.501953125 c 4
 566.346780654 -135.501953125 611.4296875 -106.383373705 611.4296875 -57.158203125 c 4
 611.4296875 -50.59765625 610.51171875 -44.068359375 608.663085938 -37.91015625 c 5
 661.337890625 -22.0888671875 l 5
 664.780273438 -33.548828125 666.477539062 -45.3994140625 666.477539062 -57.228515625 c 4
 666.477539062 -139.410017794 596.486837003 -190.502929688 517.081054688 -190.502929688 c 4
 433.026530377 -190.502929688 352.307617188 -130.967541055 352.307617188 -38.697265625 c 4
 352.307617188 33.159152323 399.545886101 78.4478184035 439.248046875 112.002929688 c 4
 484.074861983 149.889401178 546.83203125 190.217418704 546.83203125 263.09375 c 4
 546.83203125 323.749283466 495.26015837 369.79296875 434.229492188 369.79296875 c 4
-15 579 m 5
 723 579 l 5
 723 524 l 5
 -15 524 l 5
 -15 579 l 5
404.711914062 562 m 5
 459.711914062 562 l 5
 459.711914062 370 l 5
 404.711914062 370 l 5
 404.711914062 562 l 5
EndSplineSet
EndChar

StartChar: ecandradeva
Encoding: 271 2317 61
Width: 537
VWidth: 1000
GlyphClass: 2
Flags: HMW
LayerCount: 5
Back
SplineSet
257.1875 734.375 m 0,0,1
 184.921875 734.375 184.921875 734.375 129.74609375 784.1796875 c 128,-1,2
 74.5703125 833.984375 74.5703125 833.984375 61.875 910.15625 c 1,3,-1
 127.3046875 910.15625 l 1,4,5
 136.09375 857.421875 136.09375 857.421875 173.203125 822.265625 c 128,-1,6
 210.3125 787.109375 210.3125 787.109375 257.1875 787.109375 c 128,-1,7
 304.0625 787.109375 304.0625 787.109375 341.171875 822.265625 c 128,-1,8
 378.28125 857.421875 378.28125 857.421875 387.0703125 910.15625 c 1,9,-1
 451.5234375 910.15625 l 1,10,11
 438.828125 833.984375 438.828125 833.984375 383.65234375 784.1796875 c 128,-1,12
 328.4765625 734.375 328.4765625 734.375 257.1875 734.375 c 0,0,1
374.375 -124.0234375 m 1,13,-1
 321.640625 -78.125 l 1,14,15
 348.0078125 -74.21875 348.0078125 -74.21875 364.12109375 -61.03515625 c 128,-1,16
 380.234375 -47.8515625 380.234375 -47.8515625 380.234375 -32.2265625 c 0,17,18
 380.234375 -23.4375 380.234375 -23.4375 373.88671875 -11.71875 c 128,-1,19
 367.5390625 0 367.5390625 0 354.84375 12.6953125 c 2,20,-1
 113.6328125 234.375 l 1,21,22
 96.0546875 251.953125 96.0546875 251.953125 85.3125 270.99609375 c 128,-1,23
 74.5703125 290.0390625 74.5703125 290.0390625 74.5703125 305.6640625 c 2,24,-1
 74.5703125 591.796875 l 1,25,-1
 2.3046875 591.796875 l 1,26,-1
 2.3046875 650.390625 l 1,27,-1
 506.2109375 650.390625 l 1,28,-1
 506.2109375 591.796875 l 1,29,-1
 431.9921875 591.796875 l 1,30,-1
 431.9921875 396.484375 l 2,31,32
 431.9921875 345.703125 431.9921875 345.703125 409.04296875 308.10546875 c 128,-1,33
 386.09375 270.5078125 386.09375 270.5078125 348.0078125 259.765625 c 1,34,-1
 308.9453125 305.6640625 l 1,35,36
 332.3828125 312.5 332.3828125 312.5 346.54296875 339.84375 c 128,-1,37
 360.703125 367.1875 360.703125 367.1875 360.703125 403.3203125 c 2,38,-1
 360.703125 591.796875 l 1,39,-1
 145.859375 591.796875 l 1,40,-1
 145.859375 344.7265625 l 2,41,42
 145.859375 316.40625 145.859375 316.40625 152.6953125 294.921875 c 128,-1,43
 159.53125 273.4375 159.53125 273.4375 172.2265625 259.765625 c 1,44,-1
 399.765625 45.8984375 l 1,45,46
 424.1796875 24.4140625 424.1796875 24.4140625 437.8515625 4.39453125 c 128,-1,47
 451.5234375 -15.625 451.5234375 -15.625 451.5234375 -32.2265625 c 0,48,49
 451.5234375 -61.5234375 451.5234375 -61.5234375 430.0390625 -85.9375 c 128,-1,50
 408.5546875 -110.3515625 408.5546875 -110.3515625 374.375 -124.0234375 c 1,13,-1
EndSplineSet
Fore
SplineSet
-20 579 m 1
 557 579 l 1
 557 524 l 1
 458 524 l 1
 458 322 l 2
 458 272 418 232 368 232 c 1
 368 287 l 1
 385 287 403 305 403 322 c 2
 403 524 l 1
 158 524 l 1
 158 330 l 2
 158 244 193 220 242 176 c 2
 395 38 l 2
 412 22 421 2 421 -25 c 0
 421 -76 379 -114 330 -114 c 1
 330 -59 l 1
 351 -59 364 -45 365 -25 c 0
 365 -14 362 -6 356 0 c 2
 205 136 l 2
 145 190 103 223 103 330 c 2
 103 524 l 1
 -20 524 l 1
 -20 579 l 1
EndSplineSet
Refer: 117 2373 N 1 0 0 1 472 0 2
Validated: 32769
Layer: 4
SplineSet
452 748 m 5
 507 748 l 5
 507 663.631835938 425.784179688 609 345.5 609 c 4
 265.205078125 609 184 663.620117188 184 748 c 5
 239 748 l 5
 239 696.379882812 289.794921875 659 345.5 659 c 4
 401.215820312 659 452 696.368164062 452 748 c 5
-20 579 m 5
 557 579 l 5
 557 524 l 5
 458 524 l 5
 458 322 l 6
 458 271.698242188 418.30078125 232 368 232 c 5
 368 287 l 5
 385.099609375 287 403 304.901367188 403 322 c 6
 403 524 l 5
 158 524 l 5
 158 329.83984375 l 6
 158 243.98046875 192.81640625 220.4140625 242.203125 176 c 6
 395.373046875 38.2529296875 l 6
 412.662109375 22.56640625 421.104492188 1.51953125 421.104492188 -25.1064453125 c 4
 421.104492188 -75.931640625 378.926757812 -114 330 -114 c 5
 330 -59 l 5
 350.51953125 -59 363.795898438 -44.783203125 364.822265625 -24.798828125 c 4
 364.822265625 -13.9873046875 362.08203125 -5.5947265625 355.853515625 0 c 6
 204.796875 135.6796875 l 6
 144.767578125 189.596679688 103 222.534179688 103 329.83984375 c 6
 103 524 l 5
 -20 524 l 5
 -20 579 l 5
EndSplineSet
EndChar

StartChar: eshortdeva
Encoding: 272 2318 62
Width: 537
VWidth: 1000
GlyphClass: 2
Flags: HMW
LayerCount: 5
Back
SplineSet
230.8203125 785.15625 m 0,0,1
 159.53125 785.15625 159.53125 785.15625 104.35546875 834.47265625 c 128,-1,2
 49.1796875 883.7890625 49.1796875 883.7890625 35.5078125 960.9375 c 1,3,-1
 100.9375 960.9375 l 1,4,5
 109.7265625 907.2265625 109.7265625 907.2265625 146.8359375 872.0703125 c 128,-1,6
 183.9453125 836.9140625 183.9453125 836.9140625 230.8203125 836.9140625 c 0,7,8
 311.875 836.9140625 311.875 836.9140625 368.515625 781.25 c 1,9,10
 425.15625 727.5390625 425.15625 727.5390625 426.1328125 650.390625 c 1,11,-1
 506.2109375 650.390625 l 1,12,-1
 506.2109375 591.796875 l 1,13,-1
 431.9921875 591.796875 l 1,14,-1
 431.9921875 389.6484375 l 2,15,16
 431.9921875 341.796875 431.9921875 341.796875 409.04296875 306.15234375 c 128,-1,17
 386.09375 270.5078125 386.09375 270.5078125 348.0078125 259.765625 c 1,18,-1
 308.9453125 305.6640625 l 1,19,20
 332.3828125 312.5 332.3828125 312.5 346.54296875 339.84375 c 128,-1,21
 360.703125 367.1875 360.703125 367.1875 360.703125 403.3203125 c 2,22,-1
 360.703125 591.796875 l 1,23,-1
 145.859375 591.796875 l 1,24,-1
 145.859375 344.7265625 l 2,25,26
 145.859375 316.40625 145.859375 316.40625 152.6953125 294.921875 c 128,-1,27
 159.53125 273.4375 159.53125 273.4375 172.2265625 259.765625 c 1,28,-1
 399.765625 45.8984375 l 1,29,30
 424.1796875 24.4140625 424.1796875 24.4140625 437.8515625 4.39453125 c 128,-1,31
 451.5234375 -15.625 451.5234375 -15.625 451.5234375 -32.2265625 c 0,32,33
 451.5234375 -61.5234375 451.5234375 -61.5234375 430.0390625 -85.9375 c 128,-1,34
 408.5546875 -110.3515625 408.5546875 -110.3515625 374.375 -124.0234375 c 1,35,-1
 321.640625 -78.125 l 1,36,37
 348.0078125 -74.21875 348.0078125 -74.21875 364.12109375 -61.03515625 c 128,-1,38
 380.234375 -47.8515625 380.234375 -47.8515625 380.234375 -32.2265625 c 0,39,40
 380.234375 -23.4375 380.234375 -23.4375 373.88671875 -11.71875 c 128,-1,41
 367.5390625 0 367.5390625 0 354.84375 12.6953125 c 2,42,-1
 113.6328125 234.375 l 1,43,44
 96.0546875 251.953125 96.0546875 251.953125 85.3125 270.99609375 c 128,-1,45
 74.5703125 290.0390625 74.5703125 290.0390625 74.5703125 305.6640625 c 2,46,-1
 74.5703125 591.796875 l 1,47,-1
 2.3046875 591.796875 l 1,48,-1
 2.3046875 650.390625 l 1,49,-1
 360.703125 650.390625 l 1,50,51
 359.7265625 705.078125 359.7265625 705.078125 322.6171875 744.140625 c 0,52,53
 284.53125 785.15625 284.53125 785.15625 230.8203125 785.15625 c 0,0,1
EndSplineSet
Fore
SplineSet
147 773 m 1
 147 746 152 727 162 718 c 0
 172 709 191 704 221 704 c 2
 329 704 l 2
 372 704 404 693 426 671 c 0
 448 649 458 618 458 579 c 1
 557 579 l 1
 557 524 l 1
 458 524 l 1
 458 322 l 2
 458 272 418 232 368 232 c 1
 368 287 l 1
 385 287 403 305 403 322 c 2
 403 524 l 1
 158 524 l 1
 158 330 l 2
 158 244 193 220 242 176 c 2
 395 38 l 2
 412 22 421 2 421 -25 c 0
 421 -76 379 -114 330 -114 c 1
 330 -59 l 1
 351 -59 364 -45 365 -25 c 0
 365 -14 362 -6 356 0 c 2
 205 136 l 2
 145 190 103 223 103 330 c 2
 103 524 l 1
 -20 524 l 1
 -20 579 l 1
 403 579 l 1
 403 606 398 625 389 634 c 0
 380 643 360 648 329 648 c 2
 221 648 l 2
 178 648 146 659 124 681 c 0
 102 703 92 734 92 773 c 1
 147 773 l 1
EndSplineSet
Validated: 1
Layer: 4
SplineSet
-20 579 m 5
 557 579 l 5
 557 524 l 5
 458 524 l 5
 458 322 l 6
 458 271.698242188 418.30078125 232 368 232 c 5
 368 287 l 5
 385.099609375 287 403 304.901367188 403 322 c 6
 403 524 l 5
 158 524 l 5
 158 329.83984375 l 6
 158 243.98046875 192.81640625 220.4140625 242.203125 176 c 6
 395.373046875 38.2529296875 l 6
 412.662109375 22.56640625 421.104492188 1.51953125 421.104492188 -25.1064453125 c 4
 421.104492188 -75.931640625 378.926757812 -114 330 -114 c 5
 330 -59 l 5
 350.51953125 -59 363.795898438 -44.783203125 364.822265625 -24.798828125 c 4
 364.822265625 -13.9873046875 362.08203125 -5.5947265625 355.853515625 0 c 6
 204.796875 135.6796875 l 6
 144.767578125 189.596679688 103 222.534179688 103 329.83984375 c 6
 103 524 l 5
 -20 524 l 5
 -20 579 l 5
147 773 m 5
 147 745.666992188 151.833007812 727.333007812 161.5 718 c 132
 171.166992188 708.666992188 191 704 221 704 c 6
 329 704 l 6
 371.666992188 704 403.833007812 693 425.5 671 c 132
 447.166992188 649 458 618.333007812 458 579 c 6
 458 564 l 5
 403 564 l 5
 403 579 l 6
 403 606.333007812 398.333007812 624.666992188 389 634 c 132
 379.666992188 643.333007812 359.666992188 648 329 648 c 6
 221 648 l 6
 178.333007812 648 146.166992188 659 124.5 681 c 132
 102.833007812 703 92 733.666992188 92 773 c 5
 147 773 l 5
EndSplineSet
EndChar

StartChar: edeva
Encoding: 273 2319 63
Width: 475
VWidth: 1000
GlyphClass: 2
Flags: HMW
AnchorPoint: "DVAnchor3" 234 579 basechar 0
LayerCount: 5
Back
SplineSet
-61.6953125 591.796875 m 1,0,-1
 -61.6953125 650.390625 l 1,1,-1
 438.3046875 650.390625 l 1,2,-1
 438.3046875 591.796875 l 1,3,-1
 360.1796875 591.796875 l 1,4,-1
 360.1796875 401.3671875 l 2,5,6
 360.1796875 348.6328125 360.1796875 348.6328125 339.18359375 309.08203125 c 128,-1,7
 318.1875 269.53125 318.1875 269.53125 283.03125 259.765625 c 1,8,-1
 243.96875 305.6640625 l 1,9,10
 267.40625 312.5 267.40625 312.5 281.56640625 339.84375 c 128,-1,11
 295.7265625 367.1875 295.7265625 367.1875 295.7265625 403.3203125 c 2,12,-1
 295.7265625 591.796875 l 1,13,-1
 75.0234375 591.796875 l 1,14,-1
 75.0234375 344.7265625 l 2,15,16
 75.0234375 320.3125 75.0234375 320.3125 83.32421875 297.8515625 c 128,-1,17
 91.625 275.390625 91.625 275.390625 107.25 259.765625 c 2,18,-1
 334.7890625 45.8984375 l 1,19,20
 359.203125 24.4140625 359.203125 24.4140625 372.875 4.39453125 c 128,-1,21
 386.546875 -15.625 386.546875 -15.625 386.546875 -32.2265625 c 0,22,23
 386.546875 -61.5234375 386.546875 -61.5234375 365.0625 -85.9375 c 128,-1,24
 343.578125 -110.3515625 343.578125 -110.3515625 308.421875 -124.0234375 c 1,25,-1
 256.6640625 -78.125 l 1,26,27
 283.03125 -74.21875 283.03125 -74.21875 299.14453125 -61.03515625 c 128,-1,28
 315.2578125 -47.8515625 315.2578125 -47.8515625 315.2578125 -32.2265625 c 0,29,30
 315.2578125 -23.4375 315.2578125 -23.4375 308.91015625 -11.71875 c 128,-1,31
 302.5625 0 302.5625 0 288.890625 12.6953125 c 2,32,-1
 48.65625 234.375 l 2,33,34
 30.1015625 251.953125 30.1015625 251.953125 19.84765625 280.76171875 c 128,-1,35
 9.59375 309.5703125 9.59375 309.5703125 9.59375 341.796875 c 2,36,-1
 9.59375 591.796875 l 1,37,-1
 -61.6953125 591.796875 l 1,0,-1
EndSplineSet
Fore
SplineSet
-20 579 m 1
 495 579 l 1
 495 524 l 1
 414 524 l 1
 414 322 l 2
 414 272 374 232 324 232 c 1
 324 287 l 1
 341 287 359 305 359 322 c 2
 359 524 l 1
 114 524 l 1
 114 330 l 2
 114 244 149 220 198 176 c 2
 351 38 l 2
 368 22 377 2 377 -25 c 0
 377 -76 335 -114 286 -114 c 1
 286 -59 l 1
 307 -59 320 -45 321 -25 c 0
 321 -14 318 -6 312 0 c 2
 161 136 l 2
 101 190 59 223 59 330 c 2
 59 524 l 1
 -20 524 l 1
 -20 579 l 1
EndSplineSet
Validated: 1
Layer: 4
SplineSet
-124 579 m 5
 453 579 l 5
 453 524 l 5
 354 524 l 5
 354 322 l 6
 354 271.698242188 314.30078125 232 264 232 c 5
 264 287 l 5
 281.099609375 287 299 304.901367188 299 322 c 6
 299 524 l 5
 54 524 l 5
 54 329.83984375 l 6
 54 243.98046875 88.81640625 220.4140625 138.203125 176 c 6
 291.373046875 38.2529296875 l 6
 308.662109375 22.56640625 317.104492188 1.51953125 317.104492188 -25.1064453125 c 4
 317.104492188 -75.931640625 274.926757812 -114 226 -114 c 5
 226 -59 l 5
 246.51953125 -59 259.795898438 -44.783203125 260.822265625 -24.798828125 c 4
 260.822265625 -13.9873046875 258.08203125 -5.5947265625 251.853515625 0 c 6
 100.796875 135.6796875 l 6
 40.767578125 189.596679688 -1 222.534179688 -1 329.83984375 c 6
 -1 524 l 5
 -124 524 l 5
 -124 579 l 5
EndSplineSet
EndChar

StartChar: aideva
Encoding: 274 2320 64
Width: 537
VWidth: 1000
GlyphClass: 2
Flags: HMW
LayerCount: 5
Back
SplineSet
2.3046875 591.796875 m 1,0,-1
 2.3046875 650.390625 l 1,1,-1
 358.75 650.390625 l 1,2,-1
 163.4375 871.09375 l 1,3,-1
 222.03125 922.8515625 l 1,4,-1
 431.015625 650.390625 l 1,5,-1
 508.1640625 650.390625 l 1,6,-1
 508.1640625 591.796875 l 1,7,-1
 435.8984375 591.796875 l 1,8,-1
 435.8984375 403.3203125 l 2,9,10
 435.8984375 360.3515625 435.8984375 360.3515625 413.92578125 320.80078125 c 128,-1,11
 391.953125 281.25 391.953125 281.25 351.9140625 253.90625 c 1,12,-1
 312.8515625 305.6640625 l 1,13,14
 340.1953125 329.1015625 340.1953125 329.1015625 355.8203125 354.98046875 c 128,-1,15
 371.4453125 380.859375 371.4453125 380.859375 371.4453125 405.2734375 c 2,16,-1
 371.4453125 591.796875 l 1,17,-1
 137.0703125 591.796875 l 1,18,-1
 137.0703125 332.03125 l 2,19,20
 137.0703125 316.40625 137.0703125 316.40625 150.7421875 293.9453125 c 128,-1,21
 164.4140625 271.484375 164.4140625 271.484375 188.828125 247.0703125 c 1,22,-1
 403.671875 45.8984375 l 1,23,24
 426.1328125 23.4375 426.1328125 23.4375 437.8515625 3.41796875 c 128,-1,25
 449.5703125 -16.6015625 449.5703125 -16.6015625 449.5703125 -32.2265625 c 0,26,27
 449.5703125 -61.5234375 449.5703125 -61.5234375 428.0859375 -85.9375 c 128,-1,28
 406.6015625 -110.3515625 406.6015625 -110.3515625 371.4453125 -124.0234375 c 1,29,-1
 319.6875 -78.125 l 1,30,31
 347.03125 -73.2421875 347.03125 -73.2421875 364.609375 -60.546875 c 128,-1,32
 382.1875 -47.8515625 382.1875 -47.8515625 382.1875 -32.2265625 c 0,33,34
 382.1875 -22.4609375 382.1875 -22.4609375 372.421875 -6.8359375 c 128,-1,35
 362.65625 8.7890625 362.65625 8.7890625 345.078125 26.3671875 c 2,36,-1
 131.2109375 227.5390625 l 1,37,38
 103.8671875 250.9765625 103.8671875 250.9765625 88.2421875 278.3203125 c 128,-1,39
 72.6171875 305.6640625 72.6171875 305.6640625 72.6171875 333.0078125 c 2,40,-1
 72.6171875 591.796875 l 1,41,-1
 2.3046875 591.796875 l 1,0,-1
EndSplineSet
Fore
SplineSet
394 579 m 1
 255 820 l 1
 303 848 l 1
 458 579 l 1
 557 579 l 1
 557 524 l 1
 458 524 l 1
 458 322 l 2
 458 272 418 232 368 232 c 1
 368 287 l 1
 385 287 403 305 403 322 c 2
 403 524 l 1
 158 524 l 1
 158 330 l 2
 158 244 193 220 242 176 c 2
 395 38 l 2
 412 22 421 2 421 -25 c 0
 421 -76 379 -114 330 -114 c 1
 330 -59 l 1
 351 -59 364 -45 365 -25 c 0
 365 -14 362 -6 356 0 c 2
 205 136 l 2
 145 190 103 223 103 330 c 2
 103 524 l 1
 -20 524 l 1
 -20 579 l 1
 394 579 l 1
EndSplineSet
Validated: 1
Layer: 4
SplineSet
-20 579 m 5
 557 579 l 5
 557 524 l 5
 458 524 l 5
 458 322 l 6
 458 271.698242188 418.30078125 232 368 232 c 5
 368 287 l 5
 385.099609375 287 403 304.901367188 403 322 c 6
 403 524 l 5
 158 524 l 5
 158 329.83984375 l 6
 158 243.98046875 192.81640625 220.4140625 242.203125 176 c 6
 395.373046875 38.2529296875 l 6
 412.662109375 22.56640625 421.104492188 1.51953125 421.104492188 -25.1064453125 c 4
 421.104492188 -75.931640625 378.926757812 -114 330 -114 c 5
 330 -59 l 5
 350.51953125 -59 363.795898438 -44.783203125 364.822265625 -24.798828125 c 4
 364.822265625 -13.9873046875 362.08203125 -5.5947265625 355.853515625 0 c 6
 204.796875 135.6796875 l 6
 144.767578125 189.596679688 103 222.534179688 103 329.83984375 c 6
 103 524 l 5
 -20 524 l 5
 -20 579 l 5
458 579 m 5
 409.501953125 553 l 5
 255.349609375 820 l 5
 302.981445312 847.5 l 5
 458 579 l 5
EndSplineSet
EndChar

StartChar: ocandradeva
Encoding: 275 2321 65
Width: 1043
VWidth: 1000
GlyphClass: 2
Flags: HMW
LayerCount: 5
Back
SplineSet
706.0546875 728.515625 m 128,-1,1
 635.7421875 728.515625 635.7421875 728.515625 580.56640625 779.78515625 c 128,-1,2
 525.390625 831.0546875 525.390625 831.0546875 510.7421875 910.15625 c 1,3,-1
 576.171875 910.15625 l 1,4,5
 584.9609375 857.421875 584.9609375 857.421875 622.0703125 822.265625 c 128,-1,6
 659.1796875 787.109375 659.1796875 787.109375 706.0546875 787.109375 c 128,-1,7
 752.9296875 787.109375 752.9296875 787.109375 790.0390625 822.265625 c 128,-1,8
 827.1484375 857.421875 827.1484375 857.421875 835.9375 910.15625 c 1,9,-1
 901.3671875 910.15625 l 1,10,11
 886.71875 831.0546875 886.71875 831.0546875 831.54296875 779.78515625 c 128,-1,0
 776.3671875 728.515625 776.3671875 728.515625 706.0546875 728.515625 c 128,-1,1
302.734375 45.8984375 m 0,12,13
 224.609375 45.8984375 224.609375 45.8984375 151.3671875 110.83984375 c 128,-1,14
 78.125 175.78125 78.125 175.78125 23.4375 292.96875 c 1,15,-1
 69.3359375 332.03125 l 1,16,17
 118.1640625 226.5625 118.1640625 226.5625 179.19921875 168.45703125 c 128,-1,18
 240.234375 110.3515625 240.234375 110.3515625 302.734375 110.3515625 c 0,19,20
 343.75 110.3515625 343.75 110.3515625 372.0703125 145.01953125 c 128,-1,21
 400.390625 179.6875 400.390625 179.6875 400.390625 227.5390625 c 0,22,23
 400.390625 273.4375 400.390625 273.4375 368.1640625 305.6640625 c 128,-1,24
 335.9375 337.890625 335.9375 337.890625 290.0390625 337.890625 c 0,25,26
 275.390625 337.890625 275.390625 337.890625 259.27734375 334.9609375 c 128,-1,27
 243.1640625 332.03125 243.1640625 332.03125 224.609375 325.1953125 c 1,28,-1
 199.21875 383.7890625 l 1,29,30
 257.8125 388.671875 257.8125 388.671875 303.22265625 424.31640625 c 128,-1,31
 348.6328125 459.9609375 348.6328125 459.9609375 348.6328125 500.9765625 c 0,32,33
 348.6328125 536.1328125 348.6328125 536.1328125 321.77734375 560.546875 c 128,-1,34
 294.921875 584.9609375 294.921875 584.9609375 257.8125 584.9609375 c 0,35,36
 223.6328125 584.9609375 223.6328125 584.9609375 186.03515625 562.98828125 c 128,-1,37
 148.4375 541.015625 148.4375 541.015625 114.2578125 500.9765625 c 1,38,-1
 69.3359375 545.8984375 l 1,39,40
 102.5390625 595.703125 102.5390625 595.703125 152.83203125 623.046875 c 128,-1,41
 203.125 650.390625 203.125 650.390625 257.8125 650.390625 c 0,42,43
 322.265625 650.390625 322.265625 650.390625 367.67578125 606.93359375 c 128,-1,44
 413.0859375 563.4765625 413.0859375 563.4765625 413.0859375 500.9765625 c 0,45,46
 413.0859375 467.7734375 413.0859375 467.7734375 397.4609375 437.5 c 128,-1,47
 381.8359375 407.2265625 381.8359375 407.2265625 355.46875 383.7890625 c 1,48,49
 399.4140625 357.421875 399.4140625 357.421875 440.91796875 344.7265625 c 128,-1,50
 482.421875 332.03125 482.421875 332.03125 517.578125 332.03125 c 0,51,52
 530.2734375 332.03125 530.2734375 332.03125 548.828125 338.37890625 c 128,-1,53
 567.3828125 344.7265625 567.3828125 344.7265625 588.8671875 357.421875 c 1,54,-1
 588.8671875 591.796875 l 1,55,-1
 471.6796875 591.796875 l 1,56,-1
 471.6796875 650.390625 l 1,57,-1
 1031.25 650.390625 l 1,58,-1
 1031.25 591.796875 l 1,59,-1
 920.8984375 591.796875 l 1,60,-1
 920.8984375 0 l 1,61,-1
 855.46875 0 l 1,62,-1
 855.46875 591.796875 l 1,63,-1
 654.296875 591.796875 l 1,64,-1
 654.296875 0 l 1,65,-1
 588.8671875 0 l 1,66,-1
 588.8671875 292.96875 l 1,67,68
 573.2421875 279.296875 573.2421875 279.296875 555.17578125 272.94921875 c 128,-1,69
 537.109375 266.6015625 537.109375 266.6015625 517.578125 266.6015625 c 0,70,71
 493.1640625 266.6015625 493.1640625 266.6015625 472.65625 271.97265625 c 128,-1,72
 452.1484375 277.34375 452.1484375 277.34375 439.453125 286.1328125 c 1,73,74
 452.1484375 273.4375 452.1484375 273.4375 458.984375 256.34765625 c 128,-1,75
 465.8203125 239.2578125 465.8203125 239.2578125 465.8203125 220.703125 c 0,76,77
 465.8203125 148.4375 465.8203125 148.4375 418.45703125 97.16796875 c 128,-1,78
 371.09375 45.8984375 371.09375 45.8984375 302.734375 45.8984375 c 0,12,13
EndSplineSet
Fore
SplineSet
836 748 m 1
 892 748 l 1
 892 664 810 609 730 609 c 0
 650 609 568 664 568 748 c 1
 624 748 l 1
 624 696 674 659 730 659 c 0
 786 659 836 696 836 748 c 1
EndSplineSet
Refer: 54 2310 N 1 0 0 1 0 0 2
Validated: 32769
Layer: 4
SplineSet
836 748 m 5
 892 748 l 5
 892 664 810 609 730 609 c 4
 650 609 568 664 568 748 c 5
 624 748 l 5
 624 696 674 659 730 659 c 4
 786 659 836 696 836 748 c 5
EndSplineSet
Refer: 54 2310 S 1 0 0 1 0 0 2
EndChar

StartChar: oshortdeva
Encoding: 276 2322 66
Width: 1043
VWidth: 1000
GlyphClass: 2
Flags: HMW
LayerCount: 5
Back
SplineSet
725.5859375 787.109375 m 0,0,1
 654.296875 787.109375 654.296875 787.109375 599.12109375 836.42578125 c 128,-1,2
 543.9453125 885.7421875 543.9453125 885.7421875 530.2734375 962.890625 c 1,3,-1
 595.703125 962.890625 l 1,4,5
 604.4921875 909.1796875 604.4921875 909.1796875 641.6015625 874.0234375 c 128,-1,6
 678.7109375 838.8671875 678.7109375 838.8671875 725.5859375 838.8671875 c 0,7,8
 806.640625 838.8671875 806.640625 838.8671875 863.76953125 783.69140625 c 128,-1,9
 920.8984375 728.515625 920.8984375 728.515625 920.8984375 650.390625 c 1,10,-1
 1031.25 650.390625 l 1,11,-1
 1031.25 591.796875 l 1,12,-1
 920.8984375 591.796875 l 1,13,-1
 920.8984375 0 l 1,14,-1
 855.46875 0 l 1,15,-1
 855.46875 591.796875 l 1,16,-1
 654.296875 591.796875 l 1,17,-1
 654.296875 0 l 1,18,-1
 588.8671875 0 l 1,19,-1
 588.8671875 292.96875 l 1,20,21
 573.2421875 279.296875 573.2421875 279.296875 557.12890625 272.94921875 c 128,-1,22
 541.015625 266.6015625 541.015625 266.6015625 524.4140625 266.6015625 c 0,23,24
 497.0703125 266.6015625 497.0703125 266.6015625 474.609375 271.97265625 c 128,-1,25
 452.1484375 277.34375 452.1484375 277.34375 439.453125 286.1328125 c 1,26,27
 452.1484375 275.390625 452.1484375 275.390625 458.984375 256.8359375 c 128,-1,28
 465.8203125 238.28125 465.8203125 238.28125 465.8203125 214.84375 c 0,29,30
 465.8203125 144.53125 465.8203125 144.53125 418.45703125 95.21484375 c 128,-1,31
 371.09375 45.8984375 371.09375 45.8984375 302.734375 45.8984375 c 0,32,33
 224.609375 45.8984375 224.609375 45.8984375 151.3671875 110.83984375 c 128,-1,34
 78.125 175.78125 78.125 175.78125 23.4375 292.96875 c 1,35,-1
 69.3359375 332.03125 l 1,36,37
 118.1640625 226.5625 118.1640625 226.5625 179.19921875 168.45703125 c 128,-1,38
 240.234375 110.3515625 240.234375 110.3515625 302.734375 110.3515625 c 0,39,40
 343.75 110.3515625 343.75 110.3515625 372.0703125 145.01953125 c 128,-1,41
 400.390625 179.6875 400.390625 179.6875 400.390625 227.5390625 c 0,42,43
 400.390625 273.4375 400.390625 273.4375 368.1640625 305.6640625 c 128,-1,44
 335.9375 337.890625 335.9375 337.890625 290.0390625 337.890625 c 0,45,46
 275.390625 337.890625 275.390625 337.890625 259.27734375 334.9609375 c 128,-1,47
 243.1640625 332.03125 243.1640625 332.03125 224.609375 325.1953125 c 1,48,-1
 199.21875 383.7890625 l 1,49,50
 257.8125 388.671875 257.8125 388.671875 303.22265625 426.26953125 c 128,-1,51
 348.6328125 463.8671875 348.6328125 463.8671875 348.6328125 506.8359375 c 0,52,53
 348.6328125 541.9921875 348.6328125 541.9921875 321.77734375 566.89453125 c 128,-1,54
 294.921875 591.796875 294.921875 591.796875 257.8125 591.796875 c 0,55,56
 226.5625 591.796875 226.5625 591.796875 188.4765625 567.87109375 c 128,-1,57
 150.390625 543.9453125 150.390625 543.9453125 114.2578125 500.9765625 c 1,58,-1
 69.3359375 545.8984375 l 1,59,60
 105.46875 598.6328125 105.46875 598.6328125 155.2734375 627.44140625 c 128,-1,61
 205.078125 656.25 205.078125 656.25 257.8125 656.25 c 0,62,63
 322.265625 656.25 322.265625 656.25 367.67578125 612.79296875 c 128,-1,64
 413.0859375 569.3359375 413.0859375 569.3359375 413.0859375 506.8359375 c 0,65,66
 413.0859375 471.6796875 413.0859375 471.6796875 397.4609375 439.453125 c 128,-1,67
 381.8359375 407.2265625 381.8359375 407.2265625 355.46875 383.7890625 c 1,68,69
 404.296875 355.46875 404.296875 355.46875 445.80078125 340.33203125 c 128,-1,70
 487.3046875 325.1953125 487.3046875 325.1953125 517.578125 325.1953125 c 0,71,72
 526.3671875 325.1953125 526.3671875 325.1953125 542.96875 333.0078125 c 128,-1,73
 559.5703125 340.8203125 559.5703125 340.8203125 588.8671875 357.421875 c 1,74,-1
 588.8671875 591.796875 l 1,75,-1
 471.6796875 591.796875 l 1,76,-1
 471.6796875 650.390625 l 1,77,-1
 855.46875 650.390625 l 1,78,79
 855.46875 706.0546875 855.46875 706.0546875 817.3828125 746.58203125 c 128,-1,80
 779.296875 787.109375 779.296875 787.109375 725.5859375 787.109375 c 0,0,1
EndSplineSet
Fore
SplineSet
592 773 m 1
 592 746 596 727 606 718 c 0
 616 709 636 704 666 704 c 2
 774 704 l 2
 817 704 848 693 870 671 c 0
 892 649 903 618 903 579 c 2
 903 564 l 1
 848 564 l 1
 848 579 l 2
 848 606 843 625 834 634 c 0
 825 643 805 648 774 648 c 2
 666 648 l 2
 623 648 592 659 570 681 c 0
 548 703 537 734 537 773 c 1
 592 773 l 1
EndSplineSet
Refer: 54 2310 N 1 0 0 1 0 0 2
Validated: 32773
Layer: 4
SplineSet
592 773 m 1
 592 746 596 727 606 718 c 0
 616 709 636 704 666 704 c 2
 774 704 l 2
 817 704 848 693 870 671 c 0
 892 649 903 618 903 579 c 2
 903 564 l 1
 848 564 l 1
 848 579 l 2
 848 606 843 625 834 634 c 0
 825 643 805 648 774 648 c 2
 666 648 l 2
 623 648 592 659 570 681 c 0
 548 703 537 734 537 773 c 1
 592 773 l 1
EndSplineSet
Refer: 54 2310 N 1 0 0 1 0 0 2
EndChar

StartChar: odeva
Encoding: 277 2323 67
Width: 1043
VWidth: 1000
GlyphClass: 2
Flags: HMW
LayerCount: 5
Back
SplineSet
302.734375 45.8984375 m 0,0,1
 224.609375 45.8984375 224.609375 45.8984375 151.3671875 110.83984375 c 128,-1,2
 78.125 175.78125 78.125 175.78125 23.4375 292.96875 c 1,3,-1
 69.3359375 332.03125 l 1,4,5
 118.1640625 226.5625 118.1640625 226.5625 179.19921875 168.45703125 c 128,-1,6
 240.234375 110.3515625 240.234375 110.3515625 302.734375 110.3515625 c 0,7,8
 343.75 110.3515625 343.75 110.3515625 372.0703125 141.11328125 c 128,-1,9
 400.390625 171.875 400.390625 171.875 400.390625 214.84375 c 0,10,11
 400.390625 265.625 400.390625 265.625 368.1640625 301.7578125 c 128,-1,12
 335.9375 337.890625 335.9375 337.890625 290.0390625 337.890625 c 0,13,14
 275.390625 337.890625 275.390625 337.890625 259.27734375 334.9609375 c 128,-1,15
 243.1640625 332.03125 243.1640625 332.03125 224.609375 325.1953125 c 1,16,-1
 199.21875 383.7890625 l 1,17,18
 257.8125 388.671875 257.8125 388.671875 303.22265625 426.26953125 c 128,-1,19
 348.6328125 463.8671875 348.6328125 463.8671875 348.6328125 506.8359375 c 0,20,21
 348.6328125 541.9921875 348.6328125 541.9921875 321.77734375 566.89453125 c 128,-1,22
 294.921875 591.796875 294.921875 591.796875 257.8125 591.796875 c 0,23,24
 226.5625 591.796875 226.5625 591.796875 188.4765625 567.87109375 c 128,-1,25
 150.390625 543.9453125 150.390625 543.9453125 114.2578125 500.9765625 c 1,26,-1
 69.3359375 545.8984375 l 1,27,28
 105.46875 598.6328125 105.46875 598.6328125 155.2734375 627.44140625 c 128,-1,29
 205.078125 656.25 205.078125 656.25 257.8125 656.25 c 0,30,31
 322.265625 656.25 322.265625 656.25 367.67578125 612.79296875 c 128,-1,32
 413.0859375 569.3359375 413.0859375 569.3359375 413.0859375 506.8359375 c 0,33,34
 413.0859375 471.6796875 413.0859375 471.6796875 397.4609375 439.453125 c 128,-1,35
 381.8359375 407.2265625 381.8359375 407.2265625 355.46875 383.7890625 c 1,36,37
 404.296875 355.46875 404.296875 355.46875 443.84765625 340.33203125 c 128,-1,38
 483.3984375 325.1953125 483.3984375 325.1953125 510.7421875 325.1953125 c 0,39,40
 526.3671875 325.1953125 526.3671875 325.1953125 546.875 333.49609375 c 128,-1,41
 567.3828125 341.796875 567.3828125 341.796875 588.8671875 357.421875 c 1,42,-1
 588.8671875 591.796875 l 1,43,-1
 471.6796875 591.796875 l 1,44,-1
 471.6796875 650.390625 l 1,45,-1
 850.5859375 650.390625 l 1,46,-1
 615.234375 936.5234375 l 1,47,-1
 660.15625 975.5859375 l 1,48,-1
 915.0390625 650.390625 l 1,49,-1
 1031.25 650.390625 l 1,50,-1
 1031.25 591.796875 l 1,51,-1
 920.8984375 591.796875 l 1,52,-1
 920.8984375 0 l 1,53,-1
 855.46875 0 l 1,54,-1
 855.46875 591.796875 l 1,55,-1
 654.296875 591.796875 l 1,56,-1
 654.296875 0 l 1,57,-1
 588.8671875 0 l 1,58,-1
 588.8671875 292.96875 l 1,59,60
 573.2421875 279.296875 573.2421875 279.296875 557.12890625 272.94921875 c 128,-1,61
 541.015625 266.6015625 541.015625 266.6015625 524.4140625 266.6015625 c 0,62,63
 497.0703125 266.6015625 497.0703125 266.6015625 474.609375 271.97265625 c 128,-1,64
 452.1484375 277.34375 452.1484375 277.34375 439.453125 286.1328125 c 1,65,66
 452.1484375 275.390625 452.1484375 275.390625 458.984375 256.8359375 c 128,-1,67
 465.8203125 238.28125 465.8203125 238.28125 465.8203125 214.84375 c 0,68,69
 465.8203125 144.53125 465.8203125 144.53125 418.45703125 95.21484375 c 128,-1,70
 371.09375 45.8984375 371.09375 45.8984375 302.734375 45.8984375 c 0,0,1
EndSplineSet
Fore
SplineSet
898 578 m 1
 850 552 l 1
 695 819 l 1
 743 847 l 1
 898 578 l 1
EndSplineSet
Refer: 54 2310 N 1 0 0 1 0 0 2
Validated: 32773
Layer: 4
SplineSet
898 578 m 5
 850 552 l 5
 695 819 l 5
 743 847 l 5
 898 578 l 5
EndSplineSet
Refer: 54 2310 S 1 0 0 1 0 0 2
EndChar

StartChar: audeva
Encoding: 278 2324 68
Width: 1043
VWidth: 1000
GlyphClass: 2
Flags: HMW
LayerCount: 5
Back
SplineSet
302.734375 45.8984375 m 0,0,1
 224.609375 45.8984375 224.609375 45.8984375 151.3671875 110.83984375 c 128,-1,2
 78.125 175.78125 78.125 175.78125 23.4375 292.96875 c 1,3,-1
 69.3359375 332.03125 l 1,4,5
 118.1640625 226.5625 118.1640625 226.5625 179.19921875 168.45703125 c 128,-1,6
 240.234375 110.3515625 240.234375 110.3515625 302.734375 110.3515625 c 0,7,8
 343.75 110.3515625 343.75 110.3515625 372.0703125 141.11328125 c 128,-1,9
 400.390625 171.875 400.390625 171.875 400.390625 214.84375 c 0,10,11
 400.390625 265.625 400.390625 265.625 368.1640625 301.7578125 c 128,-1,12
 335.9375 337.890625 335.9375 337.890625 290.0390625 337.890625 c 0,13,14
 275.390625 337.890625 275.390625 337.890625 259.27734375 334.9609375 c 128,-1,15
 243.1640625 332.03125 243.1640625 332.03125 224.609375 325.1953125 c 1,16,-1
 199.21875 383.7890625 l 1,17,18
 257.8125 388.671875 257.8125 388.671875 303.22265625 424.31640625 c 128,-1,19
 348.6328125 459.9609375 348.6328125 459.9609375 348.6328125 500.9765625 c 0,20,21
 348.6328125 538.0859375 348.6328125 538.0859375 317.87109375 564.94140625 c 128,-1,22
 287.109375 591.796875 287.109375 591.796875 244.140625 591.796875 c 0,23,24
 214.84375 591.796875 214.84375 591.796875 181.640625 569.82421875 c 128,-1,25
 148.4375 547.8515625 148.4375 547.8515625 121.09375 506.8359375 c 1,26,-1
 69.3359375 545.8984375 l 1,27,28
 105.46875 598.6328125 105.46875 598.6328125 152.34375 627.44140625 c 128,-1,29
 199.21875 656.25 199.21875 656.25 244.140625 656.25 c 0,30,31
 314.453125 656.25 314.453125 656.25 363.76953125 610.83984375 c 128,-1,32
 413.0859375 565.4296875 413.0859375 565.4296875 413.0859375 500.9765625 c 0,33,34
 413.0859375 467.7734375 413.0859375 467.7734375 397.4609375 437.5 c 128,-1,35
 381.8359375 407.2265625 381.8359375 407.2265625 355.46875 383.7890625 c 1,36,37
 404.296875 355.46875 404.296875 355.46875 445.80078125 340.33203125 c 128,-1,38
 487.3046875 325.1953125 487.3046875 325.1953125 517.578125 325.1953125 c 0,39,40
 526.3671875 325.1953125 526.3671875 325.1953125 542.96875 333.0078125 c 128,-1,41
 559.5703125 340.8203125 559.5703125 340.8203125 588.8671875 357.421875 c 1,42,-1
 588.8671875 591.796875 l 1,43,-1
 471.6796875 591.796875 l 1,44,-1
 471.6796875 650.390625 l 1,45,-1
 826.171875 650.390625 l 1,46,-1
 556.640625 826.171875 l 1,47,-1
 595.703125 883.7890625 l 1,48,-1
 881.8359375 656.25 l 1,49,-1
 745.1171875 936.5234375 l 1,50,-1
 810.546875 975.5859375 l 1,51,-1
 917.96875 650.390625 l 1,52,-1
 1031.25 650.390625 l 1,53,-1
 1031.25 591.796875 l 1,54,-1
 920.8984375 591.796875 l 1,55,-1
 920.8984375 0 l 1,56,-1
 855.46875 0 l 1,57,-1
 855.46875 591.796875 l 1,58,-1
 654.296875 591.796875 l 1,59,-1
 654.296875 0 l 1,60,-1
 588.8671875 0 l 1,61,-1
 588.8671875 292.96875 l 1,62,63
 573.2421875 279.296875 573.2421875 279.296875 557.12890625 272.94921875 c 128,-1,64
 541.015625 266.6015625 541.015625 266.6015625 524.4140625 266.6015625 c 0,65,66
 497.0703125 266.6015625 497.0703125 266.6015625 474.609375 271.97265625 c 128,-1,67
 452.1484375 277.34375 452.1484375 277.34375 439.453125 286.1328125 c 1,68,69
 452.1484375 275.390625 452.1484375 275.390625 458.984375 256.8359375 c 128,-1,70
 465.8203125 238.28125 465.8203125 238.28125 465.8203125 214.84375 c 0,71,72
 465.8203125 144.53125 465.8203125 144.53125 418.45703125 95.21484375 c 128,-1,73
 371.09375 45.8984375 371.09375 45.8984375 302.734375 45.8984375 c 0,0,1
EndSplineSet
Fore
SplineSet
898 579 m 1
 850 553 l 1
 824 598 l 2
 819 602 814 605 808 609 c 0
 754 645 677 648 601 648 c 1
 601 703 l 1
 655 703 716 685 773 685 c 1
 695 820 l 1
 743 848 l 1
 898 579 l 1
EndSplineSet
Refer: 54 2310 N 1 0 0 1 0 0 2
Validated: 32773
Layer: 4
SplineSet
898 579 m 5
 850 553 l 5
 695 820 l 5
 743 848 l 5
 898 579 l 5
862 633 m 5
 862 598 855 599 855 571 c 5
 840 585 825 598 808 609 c 4
 754 645 677 648 601 648 c 5
 601 703 l 5
 676 703 766 703 838 655 c 4
 848 648 853 640 862 633 c 5
EndSplineSet
Refer: 54 2310 S 1 0 0 1 0 0 2
EndChar

StartChar: kadeva
Encoding: 279 2325 69
Width: 728
VWidth: 1000
GlyphClass: 2
Flags: HMW
AnchorPoint: "DVAnchor3" 379 579 basechar 0
AnchorPoint: "DVAnchor0" 442 -7 basechar 0
LayerCount: 5
Back
SplineSet
397 369.809570312 m 1,0,0
 398.203125 371.6484375 398.203125 371.6484375 399.364257812 350.545898438 c 128,-1,1
 400.525390625 329.442382812 400.525390625 329.442382812 401.674804688 308.323242188 c 128,-1,2
 402.825195312 287.203125 402.825195312 287.203125 404 289 c 0,3,4
 432 331 432 331 461 354 c 0,5,6
 498 381 498 381 534 381 c 0,7,8
 574 381 574 381 604 353 c 0,9,10
 633 325 633 325 638 283 c 1,11,-1
 638 273 l 2,12,13
 638 239 638 239 619 212 c 0,14,15
 605 193 605 193 584 184 c 0,16,17
 569 177 569 177 549 177 c 2,18,-1
 540 177 l 1,19,-1
 534 123 l 1,20,21
 539 122 539 122 549 122 c 0,22,23
 579 122 579 122 606 134 c 0,24,25
 640.5 149 640.5 149 663 179 c 0,26,27
 693 220 693 220 693 273 c 0,28,29
 693 284 693 284 692 289 c 0,30,31
 686 351 686 351 641 393 c 0,32,33
 595 436 595 436 533 436 c 0,34,35
 478 436 478 436 428 398 c 0,36,37
 411.6015625 385.427734375 411.6015625 385.427734375 397 369.809570312 c 1,0,0
374.60546875 264 m 1,0,0
 382.579101562 276.75390625 382.579101562 276.75390625 364.107421875 327.90625 c 1,1,-1
 358.198242188 339.430664062 l 1,2,3
 316 250 316 250 291 224 c 0,4,5
 273 204 273 204 250 192 c 0,6,7
 224 178 224 178 203 177 c 2,8,-1
 194 177 l 2,9,10
 156 177 156 177 125 203 c 0,11,12
 91 232 91 232 91 276 c 0,13,14
 91 315 91 315 120 346 c 0,15,16
 149 378 149 378 189 381 c 2,17,-1
 193 381 l 2,18,19
 216 381 216 381 232 368 c 0,20,21
 242 359 242 359 246 351 c 128,-1,22
 250 343 250 343 250 332 c 2,23,-1
 250 329 l 1,24,-1
 304 325 l 2,25,26
 304 326 304 326 304.5 328 c 128,-1,27
 305 330 305 330 305 332 c 0,28,29
 305 354 305 354 296 373 c 0,30,31
 284 398 284 398 266 412 c 0,32,33
 236 436 236 436 193 436 c 0,34,35
 191 436 191 436 189 435.5 c 128,-1,36
 187 435 187 435 185 435 c 0,37,38
 124 432 124 432 79 384 c 0,39,40
 36 338 36 338 36 276 c 0,41,42
 36 207 36 207 89 161 c 0,43,44
 133 122 133 122 194 122 c 0,45,46
 197 122 197 122 202 122.5 c 128,-1,47
 207 123 207 123 209 123 c 0,48,49
 242 126 242 126 277 144 c 0,50,51
 304 158 304 158 331 187 c 0,52,53
 338.625 195.1328125 338.625 195.1328125 349.526367188 214.3828125 c 128,-1,54
 360.427734375 233.6328125 360.427734375 233.6328125 367.516601562 248.81640625 c 2,55,-1
 374.60546875 264 l 1,0,0
408 82 m 1,0,1
 408 68 408 68 418 58 c 128,-1,2
 428 48 428 48 442 48 c 0,3,4
 462 48 462 48 471 63 c 1,5,-1
 517 32 l 1,6,7
 490 -7 490 -7 442 -7 c 0,8,9
 405 -7 405 -7 379 19 c 128,-1,10
 353 45 353 45 353 82 c 1,11,-1
 408 82 l 1,0,1
EndSplineSet
Fore
SplineSet
305 332 m 0
 305 283 265 243 216 243 c 0
 184 243 159 256 141 282 c 1
 187 313 l 1
 193 303 203 298 216 298 c 0
 235 298 250 313 250 332 c 0
 250 363 223 381 193 381 c 0
 140 381 91 329 91 276 c 0
 91 222 139 177 194 177 c 0
 283 177 337 280 353 336 c 1
 353 524 l 1
 -20 524 l 1
 -20 579 l 1
 748 579 l 1
 748 524 l 1
 408 524 l 1
 408 381 l 1
 439 410 483 436 533 436 c 0
 622 436 693 362 693 273 c 0
 693 189 634 122 546 122 c 1
 546 177 l 1
 602 177 638 219 638 273 c 0
 638 332 592 381 534 381 c 0
 479 381 436 342 408 304 c 1
 408 82 l 2
 408 63 423 48 442 48 c 0
 455 48 465 53 471 63 c 1
 517 32 l 1
 499 6 474 -7 442 -7 c 0
 393 -7 353 33 353 82 c 2
 353 220 l 1
 326 175 272 122 194 122 c 0
 108 122 36 191 36 276 c 0
 36 361 108 436 193 436 c 0
 252 436 305 395 305 332 c 0
EndSplineSet
Validated: 1
Layer: 2
SplineSet
537 150 m 4
 538.327148438 149.856445312 539.659179688 149.737304688 540.994140625 149.641601562 c 132
 542.329101562 149.546875 543.6640625 149.474609375 544.999023438 149.427734375 c 132
 546.333007812 149.379882812 547.669921875 149.356445312 549.0078125 149.356445312 c 4
 552.954101562 149.356445312 556.897460938 149.587890625 560.838867188 150 c 132
 564.780273438 150.412109375 568.681640625 150.999023438 572.541015625 151.811523438 c 132
 576.400390625 152.623046875 580.217773438 153.63671875 583.994140625 154.8515625 c 132
 587.770507812 156.065429688 591.459960938 157.470703125 595.063476562 159.06640625 c 4
 613.45703125 167.209960938 628.756835938 179.458984375 640.962890625 195.8125 c 4
 657.43359375 217.880859375 665.668945312 243.478515625 665.668945312 272.603515625 c 4
 665.668945312 274.84375 665.61328125 277.081054688 665.501953125 279.315429688 c 132
 665.389648438 281.549804688 665.22265625 283.778320312 665 286 c 4
 661.540039062 320.475585938 647.396484375 349.389648438 622.568359375 372.744140625 c 4
 614.693359375 380.15234375 605.956054688 386.49609375 596.357421875 391.775390625 c 132
 586.758789062 397.055664062 576.65234375 401.080078125 566.0390625 403.849609375 c 132
 555.42578125 406.619140625 544.723632812 408 533.93359375 408 c 4
 533.622070312 408 533.311523438 408 533 408 c 4
 501.680664062 407.76171875 472.08984375 397.024414062 444.225585938 375.787109375 c 4
 423.501953125 359.9921875 402.426757812 336.0625 381 304 c 4
 377.912109375 299.379882812 374.24609375 293.775390625 370.002929688 287.1875 c 132
 365.758789062 280.598632812 362.065429688 274.841796875 358.922851562 269.9140625 c 132
 355.780273438 264.987304688 352.125976562 259.42578125 347.961914062 253.23046875 c 132
 343.796875 247.034179688 339.90234375 241.435546875 336.278320312 236.43359375 c 132
 332.655273438 231.431640625 328.610351562 226.18359375 324.145507812 220.689453125 c 132
 319.680664062 215.1953125 315.228515625 210.103515625 310.790039062 205.4140625 c 4
 303.586914062 197.803710938 296.036132812 190.845703125 288.137695312 184.5390625 c 132
 280.240234375 178.232421875 272.001953125 172.717773438 263.423828125 167.995117188 c 4
 244.927734375 157.811523438 225.787109375 151.813476562 206 150 c 4
 204.049804688 149.821289062 202.09375 149.6875 200.133789062 149.598632812 c 132
 198.172851562 149.509765625 196.208984375 149.46484375 194.243164062 149.46484375 c 4
 178.30078125 149.46484375 162.736328125 152.280273438 147.551757812 157.91015625 c 132
 132.3671875 163.541015625 118.849609375 171.5703125 107 182 c 4
 78.3212890625 207.241210938 63.9814453125 238.603515625 63.9814453125 276.087890625 c 4
 63.9814453125 286.838867188 65.4033203125 297.540039062 68.2470703125 308.19140625 c 132
 71.091796875 318.841796875 75.16015625 328.951171875 80.453125 338.517578125 c 132
 85.74609375 348.083984375 92.083984375 356.8671875 99.4658203125 364.868164062 c 4
 124.137695312 391.60546875 153.315429688 405.983398438 187 408 c 4
 189.05859375 408.123046875 191.118164062 408.184570312 193.177734375 408.184570312 c 4
 215.052734375 408.184570312 233.66015625 402.123046875 249 390 c 4
 258.673828125 382.35546875 265.974609375 373.022460938 270.904296875 362.000976562 c 4
 271.594726562 360.458984375 272.229492188 358.890625 272.810546875 357.296875 c 132
 273.391601562 355.703125 273.915039062 354.094726562 274.380859375 352.470703125 c 132
 274.84765625 350.846679688 275.256835938 349.206054688 275.610351562 347.546875 c 132
 275.963867188 345.887695312 276.258789062 344.221679688 276.494140625 342.548828125 c 132
 276.73046875 340.875976562 276.908203125 339.193359375 277.028320312 337.501953125 c 132
 277.147460938 335.810546875 277.200195312 334.120117188 277.200195312 332.4296875 c 4
 277.200195312 331.5234375 277.189453125 330.6171875 277.155273438 329.7109375 c 4
 277.169921875 328.288085938 277.200195312 327.384765625 277.200195312 327 c 1028
EndSplineSet
Layer: 4
SplineSet
374.60546875 275 m 1
 358 364 l 1
 358 328 302 177 194 177 c 0
 138.994140625 177 91 222.018554688 91 276 c 0
 91 329.26171875 139.999023438 381 193 381 c 0
 208 381 222 376 232 368 c 0
 238 363 243 358 246 351 c 0
 249 345 250 338 250 332 c 0
 250 331 250 330 250 329 c 2
 304 325 l 1
 304 328 305 329 305 332 c 0
 305 346 302 360 296 373 c 0
 289 388 279 402 266 412 c 0
 245 429 218 436 193 436 c 0
 107.75 436 36 360.9765625 36 276 c 0
 36 191.110351562 108.348632812 122 194 122 c 0
 313 122 374.60546875 244 374.60546875 275 c 1
546 122 m 1
 633.849609375 122 693 188.65625 693 273 c 0
 693 361.80078125 621.86328125 436 533 436 c 0
 476.415039062 436 428.569335938 403.577148438 397 369.809570312 c 1
 399.803298646 291.843526399 l 0
 399.865690855 291.843526399 399.931204392 291.894808375 400 292 c 0
 426.759765625 332.926757812 473.771484375 381 534 381 c 0
 592.20703125 381 638 331.8828125 638 273 c 0
 638 218.560546875 602.346679688 177 546 177 c 1
 546 122 l 1
250 332 m 1
 250 322.666992188 246.666992188 314.666992188 240 308 c 128
 233.333007812 301.333007812 225.333007812 298 216 298 c 0
 202.666992188 298 193 303 187 313 c 1
 141 282 l 1
 159 256 184 243 216 243 c 0
 240.666992188 243 261.666992188 251.666992188 279 269 c 128
 296.333007812 286.333007812 305 307.333007812 305 332 c 1
 250 332 l 1
442 48 m 0
 423.489911844 48 408 63.4904577758 408 82 c 0
 408 229.333333333 408 376.666666667 408 524 c 1
 774 524 l 1
 774 579 l 1
 -20 579 l 1
 -20 524 l 1
 353 524 l 1
 353 376.666666667 353 229.333333333 353 82 c 0
 353 33.0571871407 393.05856668 -7 442 -7 c 0
 474 -7 499 6 517 32 c 1
 471 63 l 1
 465 53 455.333007812 48 442 48 c 0
EndSplineSet
EndChar

StartChar: khadeva
Encoding: 280 2326 70
Width: 845
VWidth: 1000
GlyphClass: 2
Flags: HMW
AnchorPoint: "DVAnchor3" 676 579 basechar 0
AnchorPoint: "DVAnchor0" 739 -7 basechar 0
LayerCount: 5
Back
SplineSet
456.484375 58.59375 m 0,0,1
 529.7265625 58.59375 529.7265625 58.59375 596.1328125 100.09765625 c 128,-1,2
 662.5390625 141.6015625 662.5390625 141.6015625 703.5546875 214.84375 c 1,3,-1
 703.5546875 266.6015625 l 1,4,5
 678.1640625 244.140625 678.1640625 244.140625 651.30859375 232.421875 c 128,-1,6
 624.453125 220.703125 624.453125 220.703125 600.0390625 220.703125 c 0,7,8
 534.609375 220.703125 534.609375 220.703125 489.19921875 261.71875 c 128,-1,9
 443.7890625 302.734375 443.7890625 302.734375 443.7890625 360.3515625 c 0,10,11
 443.7890625 418.9453125 443.7890625 418.9453125 489.19921875 459.9609375 c 128,-1,12
 534.609375 500.9765625 534.609375 500.9765625 600.0390625 500.9765625 c 0,13,14
 624.453125 500.9765625 624.453125 500.9765625 645.9375 495.60546875 c 128,-1,15
 667.421875 490.234375 667.421875 490.234375 684.0234375 481.4453125 c 1,16,-1
 684.0234375 416.015625 l 1,17,18
 658.6328125 424.8046875 658.6328125 424.8046875 637.1484375 430.17578125 c 128,-1,19
 615.6640625 435.546875 615.6640625 435.546875 600.0390625 435.546875 c 0,20,21
 561.953125 435.546875 561.953125 435.546875 535.09765625 413.57421875 c 128,-1,22
 508.2421875 391.6015625 508.2421875 391.6015625 508.2421875 360.3515625 c 128,-1,23
 508.2421875 329.1015625 508.2421875 329.1015625 535.09765625 307.6171875 c 128,-1,24
 561.953125 286.1328125 561.953125 286.1328125 600.0390625 286.1328125 c 0,25,26
 620.546875 286.1328125 620.546875 286.1328125 647.40234375 299.8046875 c 128,-1,27
 674.2578125 313.4765625 674.2578125 313.4765625 703.5546875 337.890625 c 1,28,-1
 703.5546875 591.796875 l 1,29,-1
 346.1328125 591.796875 l 1,30,-1
 346.1328125 448.2421875 l 2,31,32
 346.1328125 385.7421875 346.1328125 385.7421875 311.46484375 342.28515625 c 128,-1,33
 276.796875 298.828125 276.796875 298.828125 228.9453125 298.828125 c 0,34,35
 220.15625 298.828125 220.15625 298.828125 211.3671875 300.78125 c 128,-1,36
 202.578125 302.734375 202.578125 302.734375 196.71875 305.6640625 c 1,37,38
 236.7578125 193.359375 236.7578125 193.359375 308.53515625 125.9765625 c 128,-1,39
 380.3125 58.59375 380.3125 58.59375 456.484375 58.59375 c 0,0,1
47.3046875 591.796875 m 1,40,-1
 47.3046875 650.390625 l 1,41,-1
 879.3359375 650.390625 l 1,42,-1
 879.3359375 591.796875 l 1,43,-1
 768.984375 591.796875 l 1,44,-1
 768.984375 0 l 1,45,-1
 703.5546875 0 l 1,46,-1
 703.5546875 129.8828125 l 1,47,48
 660.5859375 69.3359375 660.5859375 69.3359375 595.15625 34.66796875 c 128,-1,49
 529.7265625 0 529.7265625 0 456.484375 0 c 0,50,51
 343.203125 0 343.203125 0 240.17578125 119.62890625 c 128,-1,52
 137.1484375 239.2578125 137.1484375 239.2578125 86.3671875 428.7109375 c 1,53,-1
 138.125 455.078125 l 1,54,55
 152.7734375 413.0859375 152.7734375 413.0859375 177.67578125 388.671875 c 128,-1,56
 202.578125 364.2578125 202.578125 364.2578125 228.9453125 364.2578125 c 0,57,58
 251.40625 364.2578125 251.40625 364.2578125 266.0546875 388.671875 c 128,-1,59
 280.703125 413.0859375 280.703125 413.0859375 280.703125 448.2421875 c 2,60,-1
 280.703125 591.796875 l 1,61,-1
 47.3046875 591.796875 l 1,40,-1
EndSplineSet
Fore
SplineSet
116 223 m 1
 159 105 284 54 389 54 c 0
 484 54 578 90 650 149 c 1
 650 219 l 1
 622 174 569 122 491 122 c 0
 405 122 333 191 333 276 c 0
 333 361 405 436 490 436 c 0
 515 436 542 429 563 412 c 0
 576 402 586 388 593 373 c 0
 599 360 602 346 602 332 c 0
 602 307 593 286 576 269 c 0
 559 252 538 243 513 243 c 0
 481 243 456 256 438 282 c 1
 484 313 l 1
 490 303 500 298 513 298 c 0
 522 298 530 301 537 308 c 0
 544 315 547 323 547 332 c 0
 547 338 546 345 543 351 c 0
 540 358 535 363 529 368 c 0
 519 376 505 381 490 381 c 0
 437 381 388 329 388 276 c 0
 388 222 436 177 491 177 c 0
 580 177 634 280 650 336 c 1
 650 524 l 1
 258 524 l 1
 258 352 l 2
 258 277 223 218 148 218 c 0
 137 218 126 220 116 223 c 1
739 48 m 0
 752 48 762 53 768 63 c 1
 814 32 l 1
 796 6 771 -7 739 -7 c 0
 690 -7 651 32 650 81 c 1
 574 30 483 -1 391 -1 c 0
 278 -1 163 45 98 138 c 0
 65 186 47 243 47 301 c 0
 47 321 50 338 58 353 c 1
 110 337 l 1
 110 337 103 326 103 312 c 0
 103 290 125 273 148 273 c 0
 184 273 203 303 203 340 c 0
 203 368 203 478 203 524 c 1
 -15 524 l 1
 -15 579 l 1
 865 579 l 1
 865 524 l 1
 705 524 l 1
 705 82 l 2
 705 64 721 48 739 48 c 0
EndSplineSet
Validated: 1
Layer: 2
SplineSet
75 314 m 4
 72.16015625 257.555664062 88.6162109375 200.317382812 121 154 c 4
 150.149414062 112.30859375 191.590820312 79.8017578125 237.852539062 58.64453125 c 4
 284.115234375 37.486328125 335.129882812 27.376953125 386 27 c 4
 494.87890625 26.193359375 602.768554688 69.49609375 684 142 c 1028
230 545 m 5
 230 352 l 6
 230 339.618164062 229.850585938 327.158203125 227.512695312 314.999023438 c 4
 225.173828125 302.840820312 220.649414062 291.037109375 213.65625 280.819335938 c 4
 206.662109375 270.6015625 197.264648438 262.040039062 186.428710938 256.048828125 c 4
 175.592773438 250.057617188 163.366210938 246.61328125 151 246 c 4
 131.905273438 245.053710938 112.321289062 251.038085938 97.787109375 263.458007812 c 4
 83.251953125 275.877929688 74.392578125 294.891601562 75 314 c 4
 75.59375 332.665039062 85.01953125 350.55078125 99.0869140625 362.833007812 c 4
 113.154296875 375.115234375 131.413085938 382.196289062 150 384 c 4
 171.716796875 386.107421875 194.3671875 380.8515625 212 368 c 4
 217.158203125 364.240234375 221.870117188 359.868164062 226 355 c 1028
EndSplineSet
Layer: 3
SplineSet
115.780542852 223.441197601 m 5
 139.969038886 158.033741374 192.854343214 109.399225689 249 84 c 4
 291 65 339 54 386 54 c 4
 387 54 387.973632812 54 388.973632812 54 c 4
 489.973632812 54 590 95 666 163 c 5
 702 121 l 5
 617.071123898 45.0635931323 504.189086289 -0.923094447002 389.288675135 -1 c 6
 388.973632812 -1 l 6
 261.688277185 -1 154.387617113 56.9428004005 98 138 c 4
 65 186 47 243 47 301 c 4
 47 320.537475845 49.9876709366 338.088209289 57.5 353.197265625 c 5
 109.5 337 l 5
 109.5 337 102.97265625 326 102.97265625 312.228515625 c 4
 102.97265625 289.760742188 124.194335938 273.405273438 147.624023438 273.405273438 c 4
 183.407226562 273.405273438 202.881835938 303.571289062 202.881835938 340.208984375 c 4
 202.881835938 376 203 545 203 545 c 5
 258 545 l 5
 258 352 l 6
 258 276.65625 222.586914062 218.405273438 147.624023438 218.405273438 c 4
 136.613408195 218.405273438 125.879369797 220.17050997 115.780542852 223.441197601 c 5
EndSplineSet
Layer: 4
SplineSet
739 48 m 4
 720.760510077 48 705 63.756757131 705 82 c 6
 705 524 l 5
 865 524 l 5
 865 579 l 5
 -15 579 l 5
 -15 524 l 5
 650 524 l 5
 650 376.666666667 650 229.333333333 650 82 c 4
 650 32.7865889069 689.792267325 -7 739 -7 c 4
 771 -7 796 6 814 32 c 5
 768 63 l 5
 762 53 752 48 739 48 c 4
547 332 m 5
 547 323 544 315 537 308 c 132
 530 301 522 298 513 298 c 4
 500 298 490 303 484 313 c 5
 438 282 l 5
 456 256 481 243 513 243 c 4
 538 243 559 252 576 269 c 132
 593 286 602 307 602 332 c 5
 547 332 l 5
672 275 m 5
 680 288 655 372 655 364 c 4
 655 328 599 177 491 177 c 4
 436 177 388 222 388 276 c 4
 388 329 437 381 490 381 c 4
 505 381 519 376 529 368 c 4
 535 363 540 358 543 351 c 4
 546 345 547 338 547 332 c 4
 547 331 547 330 547 329 c 6
 601 325 l 5
 601 328 602 329 602 332 c 4
 602 346 599 360 593 373 c 4
 586 388 576 402 563 412 c 4
 542 429 515 436 490 436 c 4
 405 436 333 361 333 276 c 4
 333 191 405 122 491 122 c 4
 610 122 672 244 672 275 c 5
115.780542852 223.441197601 m 5
 125.879369797 220.17050997 136.613408195 218.405273438 147.624023438 218.405273438 c 4
 222.586914062 218.405273438 258 276.65625 258 352 c 6
 258 545 l 5
 203 545 l 5
 203 545 202.881835938 376 202.881835938 340.208984375 c 4
 202.881835938 303.571289062 183.407226562 273.405273438 147.624023438 273.405273438 c 4
 124.194335938 273.405273438 102.97265625 289.760742188 102.97265625 312.228515625 c 4
 102.97265625 326 109.5 337 109.5 337 c 5
 57.5 353.197265625 l 5
 49.9876709366 338.088209289 47 320.537475845 47 301 c 4
 47 243 65 186 98 138 c 4
 162.869621773 44.7499187007 278.157226562 -1.1201171875 391.299804688 -1.1201171875 c 4
 505.463867188 -1.1201171875 617.570009212 45.5096552957 702 121 c 5
 666 163 l 5
 591.787894381 96.5996949727 490.926757812 53.783203125 388.973632812 53.783203125 c 4
 283.514648438 53.783203125 158.633081228 105.564810571 115.780542852 223.441197601 c 5
EndSplineSet
EndChar

StartChar: gadeva
Encoding: 281 2327 71
Width: 667
VWidth: 1000
GlyphClass: 2
Flags: HMW
AnchorPoint: "DVAnchor3" 498 579 basechar 0
LayerCount: 5
Back
SplineSet
116.3046875 591.796875 m 1,0,-1
 116.3046875 650.390625 l 1,1,-1
 647.5546875 650.390625 l 1,2,-1
 647.5546875 591.796875 l 1,3,-1
 537.203125 591.796875 l 1,4,-1
 537.203125 0 l 1,5,-1
 472.75 0 l 1,6,-1
 472.75 591.796875 l 1,7,-1
 309.6640625 591.796875 l 1,8,-1
 309.6640625 273.4375 l 2,9,10
 309.6640625 257.8125 309.6640625 257.8125 299.8984375 246.09375 c 128,-1,11
 290.1328125 234.375 290.1328125 234.375 277.4375 234.375 c 0,12,13
 253.0234375 234.375 253.0234375 234.375 200.2890625 295.41015625 c 128,-1,14
 147.5546875 356.4453125 147.5546875 356.4453125 147.5546875 383.7890625 c 0,15,16
 147.5546875 393.5546875 147.5546875 393.5546875 155.3671875 401.3671875 c 128,-1,17
 163.1796875 409.1796875 163.1796875 409.1796875 172.9453125 409.1796875 c 2,18,-1
 218.84375 409.1796875 l 2,19,20
 229.5859375 409.1796875 229.5859375 409.1796875 237.3984375 418.9453125 c 128,-1,21
 245.2109375 428.7109375 245.2109375 428.7109375 245.2109375 442.3828125 c 2,22,-1
 245.2109375 591.796875 l 1,23,-1
 116.3046875 591.796875 l 1,0,-1
EndSplineSet
Fore
SplineSet
-20 579 m 1
 687 579 l 1
 687 524 l 1
 527 524 l 1
 527 82 l 2
 527 63 542 48 561 48 c 0
 574 48 584 53 590 63 c 1
 636 32 l 1
 618 6 593 -7 561 -7 c 0
 512 -7 472 33 472 82 c 2
 472 524 l 1
 250 524 l 1
 250 351 l 2
 250 303 244 268 229 232 c 0
 216 200 186 154 129 154 c 0
 75 154 35 200 35 250 c 0
 35 324 98 351 159 351 c 2
 159 351 183 351 195 351 c 1
 195 524 l 1
 -20 524 l 1
 -20 579 l 1
191 296 m 1
 191 296 168 296 157 296 c 0
 110 296 90 281 90 250 c 0
 90 228 108 209 129 209 c 0
 166 209 184 258 191 296 c 1
EndSplineSet
Validated: 1
Layer: 4
SplineSet
195 351 m 5
 195 552 l 5
 250 552 l 5
 250 351 l 6
 250 303 244 268 229 232 c 4
 216 200 186 154 129 154 c 4
 75 154 35 200 35 250 c 4
 35 324 98 351 159 351 c 4
 160 351 l 6
 195 351 l 5
191 296 m 5
 191 296 168 296 157 296 c 4
 110 296 90 281 90 250 c 4
 90 228 108 209 129 209 c 4
 166 209 184 258 191 296 c 5
527 82 m 6
 527 63 542 48 561 48 c 4
 574 48 584 53 590 63 c 5
 636 32 l 5
 618 6 593 -7 561 -7 c 4
 512 -7 472 33 472 82 c 6
 472 562 l 5
 527 562 l 5
 527 82 l 6
-20 579 m 5
 687 579 l 5
 687 524 l 5
 -20 524 l 5
 -20 579 l 5
EndSplineSet
EndChar

StartChar: ghadeva
Encoding: 282 2328 72
Width: 601
VWidth: 1000
GlyphClass: 2
Flags: HMW
AnchorPoint: "DVAnchor3" 430 577 basechar 0
LayerCount: 5
Back
SplineSet
91.76171875 552.180664062 m 5,0,1
 71.380859375 526.948242188 71.380859375 526.948242188 65.0576171875 495.088867188 c 4,2,3
 62.541015625 482.41015625 62.541015625 482.41015625 62.541015625 469.336914062 c 4,4,5
 62.541015625 450.477539062 62.541015625 450.477539062 67.7099609375 432.357421875 c 4,6,7
 77.6396484375 397.545898438 77.6396484375 397.545898438 104.0078125 371.041015625 c 4,8,9
 128.772460938 346.146484375 128.772460938 346.146484375 162.970703125 333.826171875 c 4,10,11
 190.700195312 323.836914062 190.700195312 323.836914062 220.471679688 323.836914062 c 4,12,13
 228.059570312 323.836914062 228.059570312 323.836914062 235.599609375 324.509765625 c 5,14,-1
 230.709960938 379.291992188 l 5,15,16
 225.6015625 378.836914062 225.6015625 378.836914062 220.471679688 378.836914062 c 4,17,18
 200.305664062 378.836914062 200.305664062 378.836914062 181.610351562 385.571289062 c 4,19,20
 159.044921875 393.701171875 159.044921875 393.701171875 143 409.830078125 c 4,21,22
 126.638671875 426.276367188 126.638671875 426.276367188 120.599609375 447.444335938 c 4,23,24
 117.541015625 458.169921875 117.541015625 458.169921875 117.541015625 469.336914062 c 4,25,26
 117.541015625 477.000976562 117.541015625 477.000976562 119.005859375 484.3828125 c 4,27,28
 122.688476562 502.940429688 122.688476562 502.940429688 134.547851562 517.62109375 c 5,29,-1
 91.76171875 552.180664062 l 5,0,1
276.8125 175.78125 m 0,0,1
 325.640625 175.78125 325.640625 175.78125 378.375 206.0546875 c 128,-1,2
 431.109375 236.328125 431.109375 236.328125 477.984375 292.96875 c 1,3,-1
 477.984375 591.796875 l 1,4,-1
 179.15625 591.796875 l 1,5,6
 157.671875 580.078125 157.671875 580.078125 145.46484375 558.59375 c 128,-1,7
 133.2578125 537.109375 133.2578125 537.109375 133.2578125 513.671875 c 0,8,9
 133.2578125 478.515625 133.2578125 478.515625 165.97265625 453.61328125 c 128,-1,10
 198.6875 428.7109375 198.6875 428.7109375 243.609375 428.7109375 c 2,11,-1
 328.5703125 428.7109375 l 1,12,-1
 348.1015625 371.09375 l 1,13,-1
 289.5078125 371.09375 l 2,14,15
 233.84375 371.09375 233.84375 371.09375 193.31640625 342.28515625 c 128,-1,16
 152.7890625 313.4765625 152.7890625 313.4765625 152.7890625 273.4375 c 0,17,18
 152.7890625 232.421875 152.7890625 232.421875 189.41015625 204.1015625 c 128,-1,19
 226.03125 175.78125 226.03125 175.78125 276.8125 175.78125 c 0,0,1
6.3046875 591.796875 m 1,20,-1
 6.3046875 650.390625 l 1,21,-1
 653.765625 650.390625 l 1,22,-1
 653.765625 591.796875 l 1,23,-1
 543.4140625 591.796875 l 1,24,-1
 543.4140625 0 l 1,25,-1
 477.984375 0 l 1,26,-1
 477.984375 208.0078125 l 1,27,28
 431.109375 161.1328125 431.109375 161.1328125 378.375 135.7421875 c 128,-1,29
 325.640625 110.3515625 325.640625 110.3515625 276.8125 110.3515625 c 0,30,31
 198.6875 110.3515625 198.6875 110.3515625 143.51171875 157.71484375 c 128,-1,32
 88.3359375 205.078125 88.3359375 205.078125 88.3359375 273.4375 c 0,33,34
 88.3359375 308.59375 88.3359375 308.59375 106.890625 339.84375 c 128,-1,35
 125.4453125 371.09375 125.4453125 371.09375 159.625 389.6484375 c 1,36,37
 117.6328125 404.296875 117.6328125 404.296875 93.21875 438.96484375 c 128,-1,38
 68.8046875 473.6328125 68.8046875 473.6328125 68.8046875 513.671875 c 0,39,40
 68.8046875 533.203125 68.8046875 533.203125 77.10546875 553.22265625 c 128,-1,41
 85.40625 573.2421875 85.40625 573.2421875 101.03125 591.796875 c 1,42,-1
 6.3046875 591.796875 l 1,20,-1
EndSplineSet
Fore
SplineSet
495 48 m 0
 508 48 518 53 524 63 c 1
 570 32 l 1
 552 6 527 -7 495 -7 c 0
 446 -7 406 33 406 82 c 2
 406 193 l 1
 370 149 318 119 259 115 c 0
 255 115 251 114 247 114 c 0
 165 114 93 172 93 255 c 0
 93 268 95 280 99 292 c 0
 106 313 118 333 134 348 c 1
 94 372 62 414 62 469 c 0
 62 489 67 508 74 524 c 1
 -20 524 l 1
 -20 579 l 1
 621 579 l 1
 621 524 l 1
 461 524 l 1
 461 325 l 1
 461 82 l 2
 461 64 477 48 495 48 c 0
138 524 m 1
 128 510 117 491 117 469 c 0
 117 419 158 385 207 380 c 0
 210 380 214 380 217 380 c 2
 283 380 l 1
 283 325 l 1
 235 325 l 2
 230 325 224 324 219 324 c 0
 215 324 211 324 207 324 c 0
 172 320 148 292 148 255 c 0
 148 204 195 169 247 169 c 0
 250 169 252 169 255 169 c 0
 332 175 394 246 406 323 c 1
 406 524 l 1
 138 524 l 1
EndSplineSet
Validated: 1
Layer: 2
SplineSet
257 351 m 0
 252.783203125 350.624023438 248.549804688 350.436523438 244.31640625 350.436523438 c 0
 227.93359375 350.436523438 211.548828125 353.24609375 196.135742188 358.797851562 c 0
 177.904296875 365.365234375 161.014648438 375.795898438 147.348632812 389.534179688 c 0
 133.682617188 403.272460938 123.315429688 420.365234375 118 439 c 0
 115.2734375 448.557617188 113.885742188 458.498046875 113.885742188 468.435546875 c 0
 113.885742188 475.279296875 114.543945312 482.12109375 115.876953125 488.834960938 c 0
 119.143554688 505.296875 126.454101562 520.943359375 137 534 c 1024
242 350 m 0
 226.555664062 353.236328125 210.306640625 352.551757812 195.188476562 348.03125 c 0
 180.0703125 343.510742188 166.1171875 335.159179688 154.9609375 324 c 0
 143.8046875 312.83984375 135.469726562 298.901367188 130.838867188 283.81640625 c 0
 126.208984375 268.731445312 125.284179688 252.543945312 128 237 c 0
 133.186523438 207.311523438 151.850585938 180.627929688 176.918945312 163.8984375 c 0
 201.98828125 147.168945312 232.922851562 140.088867188 263 142 c 0
 311.646484375 145.091796875 357.502929688 170.895507812 389.306640625 207.834960938 c 0
 418.127929688 241.309570312 435.953125 284.013671875 440 328 c 1024
EndSplineSet
Layer: 3
SplineSet
462 82 m 6
 462 72.6669921875 465.333007812 64.6669921875 472 58 c 132
 478.666992188 51.3330078125 486.666992188 48 496 48 c 4
 509.333007812 48 519 53 525 63 c 5
 571 32 l 5
 553 6 528 -7 496 -7 c 4
 471.333007812 -7 450.333007812 1.6669921875 433 19 c 132
 415.666992188 36.3330078125 407 57.3330078125 407 82 c 6
 462 82 l 6
34 374.235351562 m 5
 34 429.235351562 l 5
 352 429.235351562 l 5
 352 374.235351562 l 5
 34 374.235351562 l 5
462 524 m 5
 462 82 l 5
 407 82 l 5
 407 195 l 5
 395 171 375 151.5 347 136.5 c 132
 319 121.5 290.161132812 114.1640625 260.482421875 114.493164062 c 4
 210.161132812 114.1640625 170.845703125 129.657226562 142.538085938 160.97265625 c 4
 114.1796875 191.657226562 100.123046875 228.4140625 100.368164062 271.241210938 c 4
 100.123046875 313.747070312 114.247070312 350.7578125 142.7421875 382.274414062 c 4
 170.9140625 413.424804688 210.209960938 429.078125 260.62890625 429.235351562 c 4
 278.875976562 429.078125 296.389648438 426.419921875 313.16796875 421.258789062 c 5
 290 388 l 6
 290 388.666992188 288.946289062 388.833007812 286.83984375 388.5 c 4
 283.61328125 388.166992188 279.41796875 385.787109375 274.254882812 381.362304688 c 4
 268.751953125 376.454101562 264.185546875 374.085937499 260.557617188 374.235351562 c 4
 230.852539062 374.085937499 205.096679688 363.946289062 183.291015625 343.837890625 c 4
 161.763671875 323.279296875 151.000976562 298.926757812 151.001953125 270.780273438 c 4
 151.000976562 256.259765625 153.837890625 242.752929688 159.513671875 230.2578125 c 4
 165.170898438 217.418945312 172.881835938 206.686523438 182.646484375 198.05859375 c 4
 192.215820312 189.352539062 203.82421875 182.377929688 217.473632812 177.1328125 c 4
 231.158203125 171.7109375 245.471679688 169.165039062 260.4140625 169.494140625 c 4
 300.137695312 169.165039062 334.4921875 184.24609375 363.477539062 214.73828125 c 4
 392.4921875 244.913085938 407 277.301757812 407 311.90625 c 6
 407 524 l 5
 4 524 l 5
 4 579 l 5
 611 579 l 5
 611 524 l 5
 462 524 l 5
EndSplineSet
Layer: 4
SplineSet
148 255 m 4
 148 295.415938956 176.569545634 325 217 325 c 5
 217 380 l 5
 155.987188984 380 113.761191199 338.743772129 99 292 c 4
 95 280 93 268 93 255 c 4
 93 172.154328952 165.025646858 114 247 114 c 4
 251 114 255 115 259 115 c 4
 367.890034642 122.64140594 450.230491937 217.304919371 461 325 c 5
 407 331 l 5
 398.526774603 250.504358731 334.863577497 174.989768312 255 169 c 4
 252 169 250 169 247 169 c 4
 194.84703154 169 148 204.25482485 148 255 c 4
217 325 m 5
 283 325 l 5
 283 380 l 5
 217 380 l 5
 217 325 l 5
219 379 m 4
 164.902406866 379 117 414.634437546 117 469 c 4
 117 496 132 517 144 532 c 5
 91 552 l 5
 73 530 62 502 62 469 c 4
 62 402 110 353 162 334 c 4
 180 327 199 324 219 324 c 4
 224 324 230 325 235 325 c 5
 230 379 l 5
 227 379 222 379 219 379 c 4
495 48 m 4
 476.760742188 48 461 63.7568359375 461 82 c 6
 461 524 l 5
 621 524 l 5
 621 579 l 5
 -20 579 l 5
 -20 524 l 5
 406 524 l 5
 406 82 l 6
 406 32.7861328125 445.791992188 -7 495 -7 c 4
 527 -7 552 6 570 32 c 5
 524 63 l 5
 518 53 508 48 495 48 c 4
EndSplineSet
EndChar

StartChar: ngadeva
Encoding: 283 2329 73
Width: 644
VWidth: 1000
GlyphClass: 2
Flags: HMW
AnchorPoint: "DVAnchor3" 407 575 basechar 0
AnchorPoint: "DVAnchor0" 328 -18 basechar 0
LayerCount: 5
Back
SplineSet
636.71875 325.1953125 m 0,0,1
 618.1640625 325.1953125 618.1640625 325.1953125 603.515625 338.8671875 c 128,-1,2
 588.8671875 352.5390625 588.8671875 352.5390625 588.8671875 371.09375 c 0,3,4
 588.8671875 388.671875 588.8671875 388.671875 603.515625 402.34375 c 128,-1,5
 618.1640625 416.015625 618.1640625 416.015625 636.71875 416.015625 c 0,6,7
 658.203125 416.015625 658.203125 416.015625 672.36328125 402.34375 c 128,-1,8
 686.5234375 388.671875 686.5234375 388.671875 686.5234375 371.09375 c 0,9,10
 686.5234375 352.5390625 686.5234375 352.5390625 672.36328125 338.8671875 c 128,-1,11
 658.203125 325.1953125 658.203125 325.1953125 636.71875 325.1953125 c 0,0,1
-12.6953125 591.796875 m 1,12,-1
 -12.6953125 650.390625 l 1,13,-1
 713.8671875 650.390625 l 1,14,-1
 713.8671875 591.796875 l 1,15,-1
 517.578125 591.796875 l 1,16,-1
 517.578125 428.7109375 l 1,17,-1
 296.875 428.7109375 l 2,18,19
 283.203125 428.7109375 283.203125 428.7109375 273.4375 420.8984375 c 128,-1,20
 263.671875 413.0859375 263.671875 413.0859375 263.671875 403.3203125 c 0,21,22
 263.671875 375.9765625 263.671875 375.9765625 300.29296875 334.47265625 c 128,-1,23
 336.9140625 292.96875 336.9140625 292.96875 361.328125 292.96875 c 0,24,25
 383.7890625 292.96875 383.7890625 292.96875 423.33984375 309.08203125 c 128,-1,26
 462.890625 325.1953125 462.890625 325.1953125 485.3515625 325.1953125 c 0,27,28
 525.390625 325.1953125 525.390625 325.1953125 554.19921875 294.43359375 c 128,-1,29
 583.0078125 263.671875 583.0078125 263.671875 583.0078125 220.703125 c 0,30,31
 583.0078125 134.765625 583.0078125 134.765625 525.390625 73.73046875 c 128,-1,32
 467.7734375 12.6953125 467.7734375 12.6953125 387.6953125 12.6953125 c 0,33,34
 293.9453125 12.6953125 293.9453125 12.6953125 194.3359375 91.30859375 c 128,-1,35
 94.7265625 169.921875 94.7265625 169.921875 16.6015625 305.6640625 c 1,36,-1
 69.3359375 344.7265625 l 1,37,38
 140.625 220.703125 140.625 220.703125 225.5859375 149.4140625 c 128,-1,39
 310.546875 78.125 310.546875 78.125 387.6953125 78.125 c 0,40,41
 440.4296875 78.125 440.4296875 78.125 479.00390625 119.62890625 c 128,-1,42
 517.578125 161.1328125 517.578125 161.1328125 517.578125 220.703125 c 0,43,44
 517.578125 236.328125 517.578125 236.328125 507.8125 248.046875 c 128,-1,45
 498.046875 259.765625 498.046875 259.765625 485.3515625 259.765625 c 0,46,47
 462.890625 259.765625 462.890625 259.765625 423.33984375 243.65234375 c 128,-1,48
 383.7890625 227.5390625 383.7890625 227.5390625 361.328125 227.5390625 c 0,49,50
 321.2890625 227.5390625 321.2890625 227.5390625 260.25390625 293.9453125 c 128,-1,51
 199.21875 360.3515625 199.21875 360.3515625 199.21875 403.3203125 c 0,52,53
 199.21875 438.4765625 199.21875 438.4765625 227.5390625 462.890625 c 128,-1,54
 255.859375 487.3046875 255.859375 487.3046875 296.875 487.3046875 c 2,55,-1
 452.1484375 487.3046875 l 1,56,-1
 452.1484375 591.796875 l 1,57,-1
 -12.6953125 591.796875 l 1,12,-1
EndSplineSet
Fore
SplineSet
327 37 m 0
 388 37 445 80 445 140 c 0
 445 192 406 219 360 226 c 0
 345 228 329 229 311 229 c 2
 203 229 l 1
 171 258 l 2
 153 275 110 305 110 355 c 0
 110 444 186 451 242 451 c 2
 384 451 l 1
 384 524 l 1
 -15 524 l 1
 -15 579 l 1
 664 579 l 1
 664 524 l 1
 439 524 l 1
 438 401 l 1
 438 401 286 401 242 401 c 0
 184 401 165 390 165 355 c 0
 165 333 186 315 210 293 c 2
 220 284 l 1
 318 284 l 2
 427 284 500 234 500 140 c 0
 500 48 419 -18 328 -18 c 0
 278 -18 233 -1 193 21 c 0
 121 62 61 119 8 179 c 1
 49 216 l 1
 100 159 156 105 220 69 c 0
 254 49 291 37 327 37 c 0
EndSplineSet
Refer: 108 2364 N 1 0 0 1 754 448 2
Validated: 32769
Layer: 4
SplineSet
241.736328125 264.126953125 m 5
 202.90625 228.716796875 l 5
 170.66796875 257.932617188 l 5
 153.123046875 274.629882812 110.221679688 305.189453125 110.221679688 355.328125 c 4
 110.221679688 443.875976562 186.346679688 451.421875 242 451.421875 c 4
 438.321289062 451.421875 l 5
 438.321289062 401.421875 l 5
 438.321289062 401.421875 285.864257812 401.421875 242 401.421875 c 4
 184.377929688 401.421875 165.221679688 390.248046875 165.221679688 355.328125 c 4
 165.221679688 333.446289062 186.40625 315.21484375 209.983398438 292.903320312 c 5
 241.736328125 264.126953125 l 5
202.90625 228.716796875 m 5
 202.90625 283.716796875 l 5
 310.90625 283.716796875 l 6
 328.798828125 283.716796875 348.041992188 283.732421875 368.23046875 280.811523438 c 4
 388.459960938 277.884765625 409.143554688 271.963867188 428.34375 261.209960938 c 4
 451.244140625 248.384765625 470.659179688 229.252929688 483.31640625 205.65234375 c 4
 494.283203125 185.205078125 499.7109375 162.37109375 499.7109375 139.571289062 c 4
 499.7109375 136.1171875 499.584960938 132.661132812 499.333007812 129.211914062 c 4
 496.202148438 86.3779296875 474.0078125 47.1640625 441.609375 20.83984375 c 4
 409.072265625 -5.5966796875 368.723632812 -18.0791015625 327.533203125 -18.28515625 c 4
 277.541992188 -18.28515625 232.801757812 -1.1044921875 193.26953125 21.3173828125 c 4
 121.212890625 62.185546875 61.46875 119.345703125 8.3759765625 178.919921875 c 5
 49.4365234375 215.513671875 l 5
 100.556640625 158.153320312 156.21484375 105.563476562 220.403320312 69.1572265625 c 4
 254.791992188 49.6533203125 290.94921875 36.71484375 327.395507812 36.71484375 c 4
 357.161132812 36.86328125 385.53125 46.142578125 406.926757812 63.5263671875 c 4
 428.25 80.8515625 442.564453125 107.020507812 444.479492188 133.221679688 c 4
 444.633789062 135.331054688 444.7109375 137.450195312 444.7109375 139.571289062 c 4
 444.7109375 153.614257812 441.2890625 167.646484375 434.84765625 179.657226562 c 4
 427.462890625 193.426757812 415.56640625 205.328125 401.46875 213.223632812 c 4
 389.549804688 219.899414062 375.42578125 224.198242188 360.35546875 226.377929688 c 4
 345.244140625 228.564453125 328.680664062 228.716796875 310.90625 228.716796875 c 6
 202.90625 228.716796875 l 5
383.711914062 562 m 5
 438.711914062 562 l 5
 438.711914062 425 l 5
 383.711914062 425 l 5
 383.711914062 562 l 5
550.544921875 270.495117188 m 5
 482.486328125 338.553710938 l 5
 550.544921875 406.612304688 l 5
 618.604492188 338.553710938 l 5
 550.544921875 270.495117188 l 5
-15 579 m 5
 664 579 l 5
 664 524 l 5
 -15 524 l 5
 -15 579 l 5
EndSplineSet
EndChar

